<mxfile host="app.diagrams.net" modified="2023-06-15T01:44:46.208Z" agent="Mozilla/5.0 (Macintosh; Intel Mac OS X 10_15_7) AppleWebKit/537.36 (KHTML, like Gecko) Chrome/114.0.0.0 Safari/537.36" etag="Aw9hxjOmaYsm8lMolV7d" version="21.3.8" type="github">
  <diagram name="第 1 页" id="7Q2_jt_SZ2100Dm4Wd0Q">
    <mxGraphModel dx="853" dy="901" grid="1" gridSize="10" guides="1" tooltips="1" connect="1" arrows="1" fold="1" page="1" pageScale="1" pageWidth="827" pageHeight="1169" math="0" shadow="0">
      <root>
        <mxCell id="0" />
        <mxCell id="1" parent="0" />
        <mxCell id="9tC2t4doHbZ-rZqAeVVs-114" value="" style="rounded=0;whiteSpace=wrap;html=1;fillColor=#f5f5f5;strokeColor=#666666;shadow=1;sketch=1;curveFitting=1;jiggle=2;fontColor=#333333;opacity=10;" vertex="1" parent="1">
          <mxGeometry x="115" y="2860" width="520" height="350" as="geometry" />
        </mxCell>
        <mxCell id="9tC2t4doHbZ-rZqAeVVs-93" value="" style="rounded=0;whiteSpace=wrap;html=1;fillColor=#f5f5f5;strokeColor=#666666;shadow=1;sketch=1;curveFitting=1;jiggle=2;fontColor=#333333;opacity=10;" vertex="1" parent="1">
          <mxGeometry x="110" y="2440" width="520" height="360" as="geometry" />
        </mxCell>
        <mxCell id="9tC2t4doHbZ-rZqAeVVs-109" value="" style="rounded=0;whiteSpace=wrap;html=1;glass=0;sketch=1;curveFitting=1;jiggle=2;textOpacity=20;opacity=20;" vertex="1" parent="1">
          <mxGeometry x="152.24" y="2525.71" width="438" height="145" as="geometry" />
        </mxCell>
        <mxCell id="9tC2t4doHbZ-rZqAeVVs-79" value="" style="rounded=0;whiteSpace=wrap;html=1;fillColor=#f5f5f5;strokeColor=#666666;shadow=1;sketch=1;curveFitting=1;jiggle=2;fontColor=#333333;opacity=10;" vertex="1" parent="1">
          <mxGeometry x="110" y="2060" width="520" height="340" as="geometry" />
        </mxCell>
        <mxCell id="9tC2t4doHbZ-rZqAeVVs-81" value="" style="ellipse;whiteSpace=wrap;html=1;aspect=fixed;sketch=1;curveFitting=1;jiggle=2;fillColor=#E9EBDB;strokeColor=#36393d;" vertex="1" parent="1">
          <mxGeometry x="145.12" y="2095" width="270" height="270" as="geometry" />
        </mxCell>
        <mxCell id="9tC2t4doHbZ-rZqAeVVs-89" value="" style="ellipse;whiteSpace=wrap;html=1;aspect=fixed;sketch=1;curveFitting=1;jiggle=2;fillColor=#f9f7ed;strokeColor=#36393d;" vertex="1" parent="1">
          <mxGeometry x="325.37" y="2094.9900000000002" width="270" height="270" as="geometry" />
        </mxCell>
        <mxCell id="9tC2t4doHbZ-rZqAeVVs-51" value="" style="rounded=0;whiteSpace=wrap;html=1;fillColor=#f5f5f5;strokeColor=#666666;shadow=1;sketch=1;curveFitting=1;jiggle=2;fontColor=#333333;opacity=10;" vertex="1" parent="1">
          <mxGeometry x="110" y="1420" width="520" height="280" as="geometry" />
        </mxCell>
        <mxCell id="9tC2t4doHbZ-rZqAeVVs-55" value="&amp;nbsp; &amp;nbsp;生态" style="rounded=0;whiteSpace=wrap;html=1;shadow=0;sketch=1;curveFitting=1;jiggle=2;fontSize=14;fillColor=#dae8fc;strokeColor=#6c8ebf;align=left;opacity=50;" vertex="1" parent="1">
          <mxGeometry x="160" y="1630" width="430" height="50" as="geometry" />
        </mxCell>
        <mxCell id="9tC2t4doHbZ-rZqAeVVs-1" value="" style="rounded=0;whiteSpace=wrap;html=1;fillColor=#f5f5f5;strokeColor=#666666;shadow=1;sketch=1;curveFitting=1;jiggle=2;fontColor=#333333;opacity=10;" vertex="1" parent="1">
          <mxGeometry x="110" y="460" width="520" height="200" as="geometry" />
        </mxCell>
        <mxCell id="9tC2t4doHbZ-rZqAeVVs-2" value="" style="shape=image;verticalLabelPosition=bottom;labelBackgroundColor=default;verticalAlign=top;aspect=fixed;imageAspect=0;image=data:image/png,iVBORw0KGgoAAAANSUhEUgAAAOEAAADhCAMAAAAJbSJIAAAAjVBMVEX///8EBwcAAADe3t7w8PDQ0NAAAwPz8/PBwcH39/fm5ub8/PylpaXT09PY2Nisra06OzuXl5ednZ1GR0eys7NRUlLHx8d/gIA0NTUmJydfYGBBQkJwcXHLy8u4uLiKi4tYWVkfICARExMtLi4YGhpqa2tMTEx2dnZfX19/f38pKioPERE2NzeQkZFUVFT3qTKHAAAKdklEQVR4nO2daXvyKhCGI+4ajVu1WtdWba2v/f8/74VoosJMAoRsXjwfznVOjgt3J4RheEDHsbKysrKysrKysrKysrKysrKysrKysrKysrKysrJKUbVm3i1IV26DkHevm3czUpNHCKlU6D+++3k3JRWt94yPiQbyy23n3R7Tau0CPl80kMte3m0yqdXgie8WyLn7Ko+d3ljgCwJ5qOfdOAOq/sF8t0DuR7W8W5hMnQXOFwRyMc27lfrqLGP4boGsDMsZyNq3BF8QyG0r7+Yqq71B+QhpANcql1IFsnvhMRohMDkdCEBPr72VJ5AjgG80vlERz2m6cziQZNPJu+0ycvkQUb5N2wkJJ+xFvSUSyPE67/bHaVLhW07IiWUvH0+EtKe6X2UM5Hou8i2vjxCekKr/jQTyY4J9Qc6afol8iyAgACF9JHnvCOSsmgdBtOpCgk3HuXs7QUKq/glipH13MCnWZLl/FPnGj3PdkFB4lHQn/5BAFmiyXN2KfIPV00vmASE06lVnSCB/vUJMljsHke+XT6gjCanWYySQ+U+Wa0KCTchOHNXiCOkfaoMEcp5r1aM540c1Qj6hh308IdX6iAQyt8lydyPyERd8qRRhRCB3oxyqHt0hlIAiL94HhLHRaL0hgVys4t5qWC7Ad0HHsKDRROLB0bkIud/t/s9ysuzxjbgm2KhUCKmmWySQ24yqHuszkmCjUiSkz+jhJ9wjSQaT5RaQgC5jZgTKhFSrBRbIdCfLq38RCTYqHUI6GI32mc+xxArvU4KNKmgnUc0162jVI5XJsljhpQm2VFS0CWkg3V1WgWz+xCbYqBIQUtXRqodRxqbI9yXd5ZMRRlQ9TCIu+QHwU6EnJCV0kKoH+dD+PLyRN8CzUk8P66VJyhNdbyAEkpgbHZv8PfqnghgSJryrqrM9l+ubq+jU+DtEqWBkitDxziQzwlvlT65gZIjQE7piuoRXyJPMw8MI4WQPPGrSJvQZ3+MLRgYIWwBfJoQVmcpfMzHhVEiHUySEZzWRNpnwzZoP9/oHtiCZBiHxsDrDEi1RJCPsv4npVKqEzajKHzwPTkLYAdLh96mRFCKykWjB6ADl4vqEUL15vjaUJMU0snNBAgnYZHQJRcMDIWdWj+1mQehEFIx4m0w1fLPKilJ7JvIRz/9fWRGygpFQlLoGkjxV/u6E8l/YFgwP5F6PzY6QaipRMNIghOrNw/AOyJSQ/q/RJ1JnuNwGeGVCxPAQKmNCJ6Lyd7XJKBICCTZXj82eMKbyp0S43ol8S+5L8yB0Iip/xyEJ7rXY72kBho6DkM3mRMgKRr+IcU2SUHQUw/XY3AgdzO8kR9gH6s1jcNaSJyH9drjyF0tYBRLsDySZz5fQwfxO7M3onhLRUUxnZOhaWu6EqN+pgkyWJQ0P94/Pn9CJ8DsJk+XmSeQDDQ+hikHI/E4DCZuM6CgOE2z8kwtC6ET4nXa3QIqGB4IbHkIViNC5+p0ExsAmAzmKh/FTrGIR0ufkN/RgZcY1frE+xvAQqmiEzgottvL/HW14CFU4whZebH3i4xNsVMUljMjoZAwPoQpLSOYjqOpRwRJsVAUmhKseWIKNqtCErOrxPFkmZKBqrywc4fqJkGr1UOgl7+oep8IRTgLCu7GgGTgfyFijNWUgdNzg2p9Ga8pFuNVoTSkIL8G1pUZrLKGOLGGkwj53vF+bBde+NVpTCsLNyxOGMTxptKYUhKfg2kyjNZZQR8YJw6ztotGa4hJu79cWwbWhRmsKRzgKaBb3a4fXJPy5X3sLrsG73aJVOEIXiOExuBZT3gZVNMLW4PbmBvkOZ/OFI2zrEnbdh+JTg5Dz8FpS+1cwwuqPHmFNMPmxjSDMOx3Eld+iLyXjhP2H/egqhH3Qu+CvWfSLRNh7Wn6WJ2yhvlffFxZ8ns4WLaOEde68BCK5edwFfdlAQHMmnIr2j73EBnmx++GEOvsljRG2xAPz/F50iv5c1v14MwZ9F2zQIEuNvVCGCNfvSBxoLxrjf3mo+zEX3/QHjishc+Wj6YwQiufpcE0G9453XWCHMmXwB722C67rX7eEKp3WYoAQ2p8iNOvA7x+Fuh8L+N0XU93Adyvbs6GweJGYUNhuD4oZRx4HM2j0Y74LrhErdJD8HMquICYkFOyruB5242LdD7iXux58JKaf7kgNRokIR/J8t1b9TeHRj5A9mnN2LvCXYPsZjBEyd4sK361VO7D7HSOPeIhKdzZx7dYlFO3xsozA6Md3P/67oh/UAy/SlKFLuFKPH9bCS5xr5E6IPXcWEcmOLmHdCGAw+kkSkiloDPPvVnQbbo6Esd0v0FPNoAVa/Vkgv1ww3cmNML77heqEbfSHh7aL+VHJH3C35kSodHgMR+jc0h34Y0988pQLIR0zVCou4GavKZru7J6z4DwIJbtfqH7YxqfLXe8Dgzw+7IzPgZAo7EqLInRYunPGkvNlkO6UgbCOElKt4E0brBZ53SxWJkJkC0Z3Ah7A55/jwLb/l5+QqjPco7VI3Z3OWRIGtuHIN/bgnSn307NLQXiOft36L3K2UwbCStwrayNgclYCwtCQ+S7x4j6cnL8QoYMn569DyA5uA5LzAhNq2Uurmx2/xlACwjelt/EFLMX12qLHkNXJuK9VPK8tS8LQnrFV4eMBVc8sSkDYUF2OVyYU67h0+q96KFOS+SHbVadyXnOwRf/RgIKrC/Ed1ZflklUx2OKK/N80JDxIvFhcZ6B8Oqe1J61E0Ti+yS4gKRBCfB96p9EbqCZyy1G4pC3CEN9Y92xvIxVhto1XYrVT0l7qAcdOK++SMkx4Lf/FdkgpEzR0jMsgyZHehgj9DvkT84eWMNBOhAXzhHwGCf3G/Is0ysTaS8V1dpVjfVMgbEALwCN8QTeGEDr2XWMXn0HCxhn20MywDhk4AcHTBaDfVYo6JiMLQpqX1oCJOFsGhDOPLU4IHaM0N3NAedLMuz0CPBx0dIbuLpQQOrbfSPyYehqL+I+EVGuhfb5jQfRyIzZviC/6mBM11cCzEGX4xuFcu74FO+SGm6qChFPBZ0b/2/SPlK3FM7Pj+fZP92EHOJiGjpCHp4JDSHifdQE+SHLW8UjHqR91lpWoBvDrOW3AtPLs/nLeA8Kgi9WBn5XQ8oDLqDmUcn3dmnECB70J3CHDJnOEK8FRRbDfHTIk5uGSuFnpdAktdq3ewA5586F8BYTsBq8Dx5ily8dUxc7remzGLjJNrAL3e2BmqASEdacH/C5d/DFDJtQeRVswJf7MTeDhzObJK+czHA+BnwXJhs9XC16nvLZjJmUj9EBP3+CzEf67wCdxjJJBQY9+vx1b6ZrM9Ah0SKSTs4JWmjigui6QB/8q1RGqsIsE4sN/9ytVrZ6WKRsa45TM9gTGl98vAT4cUk4zMK2PcIUpA88ndcxXeup6/tmkhPxo//BJxCDL+HL4AUBevQWdaCf62cw+vM7ZkH0wp69O4olaB5wnz0r12+px6j7XeGn8Ti/F52t9nycR8v16fEw9v0OSl+Vj8jukwmJVKVWA4cHKysrKysrKysrKysrKysrKysrKysrKysrKysqq/PoPbmyUo9MRtmEAAAAASUVORK5CYII=;imageBorder=#E6E6E6;" vertex="1" parent="1">
          <mxGeometry x="510" y="500.5" width="60" height="60" as="geometry" />
        </mxCell>
        <mxCell id="9tC2t4doHbZ-rZqAeVVs-3" value="" style="shape=image;verticalLabelPosition=bottom;labelBackgroundColor=default;verticalAlign=top;aspect=fixed;imageAspect=0;image=data:image/png,iVBORw0KGgoAAAANSUhEUgAAAOEAAADhCAMAAAAJbSJIAAAAjVBMVEX///8EBwcAAADe3t7w8PDQ0NAAAwPz8/PBwcH39/fm5ub8/PylpaXT09PY2Nisra06OzuXl5ednZ1GR0eys7NRUlLHx8d/gIA0NTUmJydfYGBBQkJwcXHLy8u4uLiKi4tYWVkfICARExMtLi4YGhpqa2tMTEx2dnZfX19/f38pKioPERE2NzeQkZFUVFT3qTKHAAAKdklEQVR4nO2daXvyKhCGI+4ajVu1WtdWba2v/f8/74VoosJMAoRsXjwfznVOjgt3J4RheEDHsbKysrKysrKysrKysrKysrKysrKysrKysrKysrJKUbVm3i1IV26DkHevm3czUpNHCKlU6D+++3k3JRWt94yPiQbyy23n3R7Tau0CPl80kMte3m0yqdXgie8WyLn7Ko+d3ljgCwJ5qOfdOAOq/sF8t0DuR7W8W5hMnQXOFwRyMc27lfrqLGP4boGsDMsZyNq3BF8QyG0r7+Yqq71B+QhpANcql1IFsnvhMRohMDkdCEBPr72VJ5AjgG80vlERz2m6cziQZNPJu+0ycvkQUb5N2wkJJ+xFvSUSyPE67/bHaVLhW07IiWUvH0+EtKe6X2UM5Hou8i2vjxCekKr/jQTyY4J9Qc6afol8iyAgACF9JHnvCOSsmgdBtOpCgk3HuXs7QUKq/glipH13MCnWZLl/FPnGj3PdkFB4lHQn/5BAFmiyXN2KfIPV00vmASE06lVnSCB/vUJMljsHke+XT6gjCanWYySQ+U+Wa0KCTchOHNXiCOkfaoMEcp5r1aM540c1Qj6hh308IdX6iAQyt8lydyPyERd8qRRhRCB3oxyqHt0hlIAiL94HhLHRaL0hgVys4t5qWC7Ad0HHsKDRROLB0bkIud/t/s9ysuzxjbgm2KhUCKmmWySQ24yqHuszkmCjUiSkz+jhJ9wjSQaT5RaQgC5jZgTKhFSrBRbIdCfLq38RCTYqHUI6GI32mc+xxArvU4KNKmgnUc0162jVI5XJsljhpQm2VFS0CWkg3V1WgWz+xCbYqBIQUtXRqodRxqbI9yXd5ZMRRlQ9TCIu+QHwU6EnJCV0kKoH+dD+PLyRN8CzUk8P66VJyhNdbyAEkpgbHZv8PfqnghgSJryrqrM9l+ubq+jU+DtEqWBkitDxziQzwlvlT65gZIjQE7piuoRXyJPMw8MI4WQPPGrSJvQZ3+MLRgYIWwBfJoQVmcpfMzHhVEiHUySEZzWRNpnwzZoP9/oHtiCZBiHxsDrDEi1RJCPsv4npVKqEzajKHzwPTkLYAdLh96mRFCKykWjB6ADl4vqEUL15vjaUJMU0snNBAgnYZHQJRcMDIWdWj+1mQehEFIx4m0w1fLPKilJ7JvIRz/9fWRGygpFQlLoGkjxV/u6E8l/YFgwP5F6PzY6QaipRMNIghOrNw/AOyJSQ/q/RJ1JnuNwGeGVCxPAQKmNCJ6Lyd7XJKBICCTZXj82eMKbyp0S43ol8S+5L8yB0Iip/xyEJ7rXY72kBho6DkM3mRMgKRr+IcU2SUHQUw/XY3AgdzO8kR9gH6s1jcNaSJyH9drjyF0tYBRLsDySZz5fQwfxO7M3onhLRUUxnZOhaWu6EqN+pgkyWJQ0P94/Pn9CJ8DsJk+XmSeQDDQ+hikHI/E4DCZuM6CgOE2z8kwtC6ET4nXa3QIqGB4IbHkIViNC5+p0ExsAmAzmKh/FTrGIR0ufkN/RgZcY1frE+xvAQqmiEzgottvL/HW14CFU4whZebH3i4xNsVMUljMjoZAwPoQpLSOYjqOpRwRJsVAUmhKseWIKNqtCErOrxPFkmZKBqrywc4fqJkGr1UOgl7+oep8IRTgLCu7GgGTgfyFijNWUgdNzg2p9Ga8pFuNVoTSkIL8G1pUZrLKGOLGGkwj53vF+bBde+NVpTCsLNyxOGMTxptKYUhKfg2kyjNZZQR8YJw6ztotGa4hJu79cWwbWhRmsKRzgKaBb3a4fXJPy5X3sLrsG73aJVOEIXiOExuBZT3gZVNMLW4PbmBvkOZ/OFI2zrEnbdh+JTg5Dz8FpS+1cwwuqPHmFNMPmxjSDMOx3Eld+iLyXjhP2H/egqhH3Qu+CvWfSLRNh7Wn6WJ2yhvlffFxZ8ns4WLaOEde68BCK5edwFfdlAQHMmnIr2j73EBnmx++GEOvsljRG2xAPz/F50iv5c1v14MwZ9F2zQIEuNvVCGCNfvSBxoLxrjf3mo+zEX3/QHjishc+Wj6YwQiufpcE0G9453XWCHMmXwB722C67rX7eEKp3WYoAQ2p8iNOvA7x+Fuh8L+N0XU93Adyvbs6GweJGYUNhuD4oZRx4HM2j0Y74LrhErdJD8HMquICYkFOyruB5242LdD7iXux58JKaf7kgNRokIR/J8t1b9TeHRj5A9mnN2LvCXYPsZjBEyd4sK361VO7D7HSOPeIhKdzZx7dYlFO3xsozA6Md3P/67oh/UAy/SlKFLuFKPH9bCS5xr5E6IPXcWEcmOLmHdCGAw+kkSkiloDPPvVnQbbo6Esd0v0FPNoAVa/Vkgv1ww3cmNML77heqEbfSHh7aL+VHJH3C35kSodHgMR+jc0h34Y0988pQLIR0zVCou4GavKZru7J6z4DwIJbtfqH7YxqfLXe8Dgzw+7IzPgZAo7EqLInRYunPGkvNlkO6UgbCOElKt4E0brBZ53SxWJkJkC0Z3Ah7A55/jwLb/l5+QqjPco7VI3Z3OWRIGtuHIN/bgnSn307NLQXiOft36L3K2UwbCStwrayNgclYCwtCQ+S7x4j6cnL8QoYMn569DyA5uA5LzAhNq2Uurmx2/xlACwjelt/EFLMX12qLHkNXJuK9VPK8tS8LQnrFV4eMBVc8sSkDYUF2OVyYU67h0+q96KFOS+SHbVadyXnOwRf/RgIKrC/Ed1ZflklUx2OKK/N80JDxIvFhcZ6B8Oqe1J61E0Ti+yS4gKRBCfB96p9EbqCZyy1G4pC3CEN9Y92xvIxVhto1XYrVT0l7qAcdOK++SMkx4Lf/FdkgpEzR0jMsgyZHehgj9DvkT84eWMNBOhAXzhHwGCf3G/Is0ysTaS8V1dpVjfVMgbEALwCN8QTeGEDr2XWMXn0HCxhn20MywDhk4AcHTBaDfVYo6JiMLQpqX1oCJOFsGhDOPLU4IHaM0N3NAedLMuz0CPBx0dIbuLpQQOrbfSPyYehqL+I+EVGuhfb5jQfRyIzZviC/6mBM11cCzEGX4xuFcu74FO+SGm6qChFPBZ0b/2/SPlK3FM7Pj+fZP92EHOJiGjpCHp4JDSHifdQE+SHLW8UjHqR91lpWoBvDrOW3AtPLs/nLeA8Kgi9WBn5XQ8oDLqDmUcn3dmnECB70J3CHDJnOEK8FRRbDfHTIk5uGSuFnpdAktdq3ewA5586F8BYTsBq8Dx5ily8dUxc7remzGLjJNrAL3e2BmqASEdacH/C5d/DFDJtQeRVswJf7MTeDhzObJK+czHA+BnwXJhs9XC16nvLZjJmUj9EBP3+CzEf67wCdxjJJBQY9+vx1b6ZrM9Ah0SKSTs4JWmjigui6QB/8q1RGqsIsE4sN/9ytVrZ6WKRsa45TM9gTGl98vAT4cUk4zMK2PcIUpA88ndcxXeup6/tmkhPxo//BJxCDL+HL4AUBevQWdaCf62cw+vM7ZkH0wp69O4olaB5wnz0r12+px6j7XeGn8Ti/F52t9nycR8v16fEw9v0OSl+Vj8jukwmJVKVWA4cHKysrKysrKysrKysrKysrKysrKysrKysrKysqq/PoPbmyUo9MRtmEAAAAASUVORK5CYII=;imageBorder=#E6E6E6;" vertex="1" parent="1">
          <mxGeometry x="500" y="510.5" width="60" height="60" as="geometry" />
        </mxCell>
        <mxCell id="9tC2t4doHbZ-rZqAeVVs-4" value="" style="endArrow=classic;startArrow=classic;html=1;rounded=0;exitX=1;exitY=0.5;exitDx=0;exitDy=0;strokeColor=#B3B3B3;entryX=-0.053;entryY=0.347;entryDx=0;entryDy=0;entryPerimeter=0;" edge="1" parent="1" source="9tC2t4doHbZ-rZqAeVVs-26" target="9tC2t4doHbZ-rZqAeVVs-27">
          <mxGeometry width="50" height="50" relative="1" as="geometry">
            <mxPoint x="260" y="535.5" as="sourcePoint" />
            <mxPoint x="500" y="554" as="targetPoint" />
          </mxGeometry>
        </mxCell>
        <mxCell id="9tC2t4doHbZ-rZqAeVVs-5" value="" style="rounded=0;whiteSpace=wrap;html=1;fillColor=#f5f5f5;strokeColor=#666666;shadow=1;sketch=1;curveFitting=1;jiggle=2;fontColor=#333333;opacity=10;" vertex="1" parent="1">
          <mxGeometry x="110" y="210" width="520" height="200" as="geometry" />
        </mxCell>
        <mxCell id="9tC2t4doHbZ-rZqAeVVs-6" value="" style="rounded=1;whiteSpace=wrap;html=1;sketch=1;curveFitting=1;jiggle=2;shadow=1;glass=1;fillColor=#cce5ff;strokeColor=#0E193D;" vertex="1" parent="1">
          <mxGeometry x="230" y="80" width="120" height="60" as="geometry" />
        </mxCell>
        <mxCell id="9tC2t4doHbZ-rZqAeVVs-7" value="" style="shape=image;imageAspect=0;aspect=fixed;verticalLabelPosition=bottom;verticalAlign=top;image=data:image/png,iVBORw0KGgoAAAANSUhEUgAAAOEAAADhCAMAAAAJbSJIAAAAxlBMVEUrLjr///+f6vmk8v+i7/6h7fwpKzclIi8hGignJjMfFSQiHCooKDQjHywlIzCl9P8dECAaHi0hJTIRFieKydcAAB2c5fRWdoIACiBzpLEeEyJdgo54rbrp6eqP0d+Y3+03Qk719fZcgIyBushkjZkyOkaGw9G0tbgMEiVfYWhHSVM/QkwVGirBwsQ7SVVtm6hBU1+FhotRbnqQkZZKY29tb3V5e4Dd3d+am58aBRrLy859tMJRU1vS0tRFW2alpqq6u74TAAofZzeDAAAZ3UlEQVR4nMVd6WKqOhBGA2FHxH0puGFta9Vau9ra3vd/qQsJKmoggeDp/DqnKvCRyewzEUpXp+HN9+/P+9Pr3df9gy8Igv9w/3X3+vT+8/t9M7z+7YVrXvzm++fpy5+3a/Nq1XFgQEJI4T8cp1qd19pz/+vp5/vmmg9xLYQ3j89f8/Zs7hgYVRJBw5nP2vOv58drwbwGwpvbV39Wqxqp0E7JqNZm/uvvNVAWjXD4+XzfmDvpC5ewnM688fD0WfADFYtw+Pgyn1XzoDuirM1fHodFPlSBCB9fajWHA92eEMjiHqsohN9P80LgRSBnznNRe7IYhLcP7eLgIYLV9tdtIc9WAMLh+3zOs/eSyKjN34f8j8eN8O21Vr0CPEzV2uvbHyN8e2kUzJ5n5DReODFyIXx7mV0XH8I448PIgfDm2ut3wNh44RCsuREOn4sWn2kYZ8/Df43w1rmefCFR1cmrO/IhfHuoXUM/pBGsPeTbjrkQPrX/NT6Esf30jxB+wn/LoEeqwhyeR3aEr3+ygJhg+/XqCL/9v1pATFU/627MiPD9DxcQE2y/XxHh8Gv+x/hCmn8Nr4Xw0/l3Oj6NHCeLwMmA8L3BzaGqbOqmxX0Z2MjAqewI72q8z6Vbm2Wnvxz5WpYwHJFmd4UjHD7wylAZdppAFCURSPVVlxdi9WFYLMI37i3YHYliOSKpMlZ4WdVxGNUGG8LPGe8D2Z1KOUaiC3mvCGds8oYJ4W2D82kEZYIASiAgtJRiXeO9ptBgcjdYEP5wAzR2IIQFxq3FYNMphxhBR+eH+FMMwvc296PYdSlYwObOViE0FKEeQhR9fvOozQCRjrAAgMYGLeHCwv+FH24AWOzzL6LAYMJRERYAUDA7waKByQGRsQj+L3mawa/86RBpCH8KACho4ZqVleMf7HHwBzBY9QbcWoPKqBSEt0UAFJRmsGTTmPCUe+EidgK5uvWV5N8xUZsiUdMRFgNQMINtKG1jUNRWuDHDhRXBUuG04Rq/+RF+c6sJTHoIZxpDaPUO9k0ZeCtOkdP4zovwjduSiUjxguXy7Ngf+qEw7UkIpyRO7OTfMhCspRlwKQiH3IbVnvRtAKWytg6PJKDV0wZ9UULLuOUTOBAOcyG8L8zfRdtO8uQ9jI9xgFgMrG9tUMfGTp1Pbzj3eRDeFRhy0kM2lVzVDHBAS+uEsMAukDCGPZGQwHEpVSkUqib7i4kI32dFwQvIaoWGt+RNBNsWWm4IUJxiH1FfeBiiyQVxlqj5kxB+FiRGI+puETeKwPMAkBDa/S5XLWym1vkUYyPJl0pAOOSqGSGQghbuQJK0UvcfQRNBBNsPnhvA6jATwuKkzP4B7D5au0gHur4V/2yKIC65VjFJ2pARPl8hLqrt6kCUJEkUQbOnn9gxUA+9qzLYWEk/ZqH5MzvC72KMtTNS7cVkW3fHnY0mn30ETSRuynwuY5to2xARClcK3UNZ1zTFVC8/MQY4esNl3EAyGMLfXv8g+SKvkY6ccJmoVVJmioDw8So8SqMuMgPEBZej0SbUwxEQ5iqd5CcF2z18KsNhQfj0RwlCY4VUxsTkuUj1MhF+gfDtT3g0JGUZ8mmTz0BtXzhSFwgf/i4FivhU7HPpffhAQ3jLm2HiIAvJU844au08bHOO8I/EDCZ7GgqbLVe8/0LYnCF8/tM6BGOBNQafq/ichvDmz8QMpu6WfxGF2U0Kwpd/n6iHamzF4EDi34nOSzLCPJoCQlWVZRORbKlGlvAVtJSPRWsQs8O1cBHFjh58ZGW82JEab4kIMy6hIStd019sRpPlstNZLpeT3nq3EJSubqrUR4Oqrg1G28DlB+ujKQ4HyFFWVb/XG603Kx92FYaLnZJzl4TwLUNoJnj99mqydb0w6SkeKPhP2XO3y9bAJngQx1/LttDqe2IU0Ijtu+4YJXGEMhBRNrXpjpctwdYzoZy9JSC8Y15CteuPxuXQoS0TKHRyK81WkjsLzcBRdCtg/2PJi9UtoFyq5C7Fk4t5/ZaQIfh/sogxhG+MwSdoKq26BEQSuBhMQPQyodldLF1RPLwaSaz04u+iG+appOnpq5MkUB5vbOYQQHwnxhC+si2hbC2bIPaAiDUPJB7WtbK5eOnQshcdr3KAJ4mgOZ0MTmxtaxQu4jRYY8T2R6Qi8Ho6I8a4OD0ivGGy14zuqLmPmoXrGGyTSWu3Wvi+P1isAqHTGbvhB5LYPHdmDUUd1Q/PHKArjycrWZPPllpHnyqbUW+y7I/r6GL7+3kjm41XYzrxiPCdxZzRV/uoYPBK+72VFog6WTUMiMgwLNlUura/6W3Hp75sIFt2/TI4wKu4nY2uyITnRVkb0FPU4Fq6otn+elnf/1AC7oIpChAzbI4IWZbQnuBbSaDZWSm6lfBCoWrpJ7kWqMOJe4QnupOBoif8GMua+kH6QNXUrHU/2hlhoopFrM4uEd7SA4jwYwyiN9nSkx6Q9Mya3zmsgggCePY5a8bJRk7U4OQbqmKNolcEmOqp5rcXCO/pOtqc4kSRt05Vdmek2qvtvuArYO3loJsGLyAzVBXi5DziaNktD6cGXIZEFbw/R8hgsOEVlMCSVaKFZNib6XH5xmuFnoCBC6QSLwOLlrIUcRZHp0M8OPt7hE9UVdHtI4DNXQbLX7U39cpeSHhLQWNae1S6USGZ3/rAxVkcelzVeTpDSBWkJi4u8Hx2BjXsXT1aPxHUWzpr/iyBTdEldeYUR/UU4SNNkkIf8wdJvif8Qlsd8InjVYata6zAWXVK7KpRFmdHfY7a4wlCqlfRRQGGpsAKEOr+eI9P6g+yVQXbXvg7susEsVnnURdxb9dghEPaEqqouBCsWBdCVjviAZ+QtQ5BR0p/Tb4Z9JFAJzLxCdWGMYRUJkXFhWKHUcgYWq8p7vH52essUGWD2EmIDZsjFFel2jYRmwpMTIp2RrnJ5nLD7t60k8A2V+Ea9EWyvsD0Eb5uMKLprIhNBSZJqofFheKSKeBuwf7etKuvtHwRF6QvQNILVTendl0SVY8IP2nOfTfc+iJLWhHa64hBQ9MnbyIJvdGkjRj5kPR4FS4ERwifKUwKV5XgpY0ZdqHsj3HFutjsfWQw7c5IXadtREGehC+gR2NT7GAghLRchcV2xWABW+WIQfsCTw4JCogPk14pHIRvnFpjjHMYIcIbWvhCRzE+aihaFqZ4AYG76vJlB5B/0Uxkcs0LJRGVpxo3EUKq46ShUgnKK4Pd/QKWe13eth9U6wdWSZfRQvujSVX6yIUKEVIDNLaXJrwxGSYueyqDqc+V5ESEdpqYuC+QJKpQlZfzGiGkCiW5eVYBS7jnysPFouUWkw9OIWOXutOQbQ4GtBtBHyO8oQaC1RDhOAUhtCfYSKtMBao1xUKoAjVZ1GBhmsjEBwoDUgKDyUZFaBhYxEjSqIgFDKmLSojSEbL5FwJLzlBP51JzgTkUuAP+HRiRgopsk8Q3Qlih5xlDjRgg/KJ+MTRpklmm24pqmZcfxSWQ8U5Lsmrwp/QkHPxCCOn5GGQmNsmyFNodHB8qb3g7J+KE3YskFwm7Vww7fhYiZMj7IpYpE81SQ44CcHWBq7DwnHA4KkmYIgVNd4IFoX0TIPykh4Jx3xJpY6s+Cg2VK52iRMyetDS7jdGmCUTNZ4Dwhx7NT2QZc4XMGEkc8XVMEAhZGR55DaHPZJcGVP0JEDKknJClK24vuELf4EL7JmPXC7R0TdHYQm6IESWyPkD5KQZPAFk1AkOwO7hdM3Txz7lCa0UxaIHNT5LhaOt6bmfAIpKUrZRotuDP6Aofhb4FpnJZhWQIaxPAnkcIv98rAyksgwZ9hl9ghXCZg0SPEzrkHkvHOwzwUcNsISG2OPNIbQyQWcZEWgULXrplgJq/yMEYnJ263DQkqg0FulUqRPHgk4oCwV4iQw30GGWMPIq1q4tj6q9QZy1ZIaYGG89odiMwKAshCgiDzfGiEUBxzajmISzHif58KLwnEhu+7fAKTTYLv/Yp/DI1HmA2PUZqMECpvGM1ROXJaUcJtR0flUeJJHPfQn1ijEWa81+BQR2iy6I3v5dK9hL3gK6YXSUcJogRVcDB89baPaFIG4Njgaj6I9DibBEpffHINNqkkhFglIqIsSn1CVHzMMFuiSpuGLe/8yzQE4f4uqgwEmdLlFG0ghksUbt8hpCsB+K/OG883f8diQQWdR+S8yQwVtHgC4vLYBHNNc7mZ1jB6HljRHfusENzsduiBANrFZjzKtwxfhVfWRKgusKjO3aZwhVIwsfIo4ooBdVFXax0F79pVgkH7wS6/xsRkhViv+s3URfWOps7r25Op7fQ535gl+3cy42uw1zIB78EFrMUEV5E0UfsBlpZ23e605NCOPojIuNTOjdMsSBlb8qA9wJ79wEqjJSQP1iZZC5UhkIz1oPP0IeH+Po8UmMiteqxbxD4IPjsX/YDsxn5g6Cfo3fH8A8FY+KGgQOw231q7eM2d3rqMEbs+AJSV2M0wmPfpJyRDHPZDMsXy9sByxpg5+JUbdqYjbh6o1JJDe2MwALP23Ztaqt1a6cz1PsIRIRyC1cTcA9DSyQbLWF5kP8Ohqqy/hhHfeOGAeZR5mqCPWXgU9x6BdaFxO2pdIkQt9SwhNhi5AsPzN/F46xA1leYlzDCmJelT/Aohkyp5UCWMutDbHgxxfAKoXOE6irPCw70ITNCBUUhJL421gwUIdzfDkL8gjOK8cCmYbZLF7jFs4ABXWwU7cP9Gn4gm0jKKuUCu5TZt0DlZPXrqaJzkk+CbbgRGoyyJrcC34LRP5R7yCqlpl2LoxN9iAdLgX5mUyPwDxl9/DDRXQbLf8ajZ8kSXPuddRMKyMdni9PoSzRDrvDsRAqd2KU6rv3MzkHVH4GhRv9g8bKFKAuiE9/C7FTESjZNiGn+yxYvRdUdEkN1dYGEPGBp7wHrvX62oEJEtU+mmDc0Qnu0ckWLl0A4inHgS8vMdffZDVPeApeWn1TuyUphRQkJhCNRvBZUbciUe9K9c6dFn0w7/IMrUykpmpiJwtwTQ/4Qj1uL70JrUpEA5wAyGuGIMOfQaJQ/pDf/dsMoWyUuSJXQhGLqzslPRlJUPws5Lyx5fFzseeKWmchTZOrOyUsooUfMzGQhlMenqgtcJ3gag5WjGWt8Y+TSKMquccozVItBradBTApOw3rQxA1ILvcM2STChdD0rop0QvU0tJoocmsAlHHYzc3aLM9K2HlqcVpRM5a6NlxMc5EogIabtRMqE5HCpZkpqmuj1CbirPllug9aiFEzdbNlIGS0kTve2SmqTXxMt72R60sqKocqhtgcFFrRFhE2aTivPH9kqRFWxKS0eyRupPLuCm6jnZACzkRRjXC63YabAck1ZFFnsCS1Cg/AQaHCrw7RED5qrT4WNAlJZWjjAn2wLNqxwuU0zIlQMh1q9VOdYOs8MHtKUaUTGBdcfVmIsjj0W6TqfFIKKE5R8ReoM5bvMRL28DmVRXvfM5PacIERptxKWaMSTKm5K7IKGhdf8lk0qN0CI0yLKNLWMCyjbeIy2kmBleyoiYVYNAMtXdEUlpE8uGEd9x+mGN9noWcSqRBnd8HUKIpTcZn39lKCQ8Uf9afuNBzJk6H/MK2HFFdBpkfZoNbHtbTeqiBOxXV0lxJc9rciKlKVgNSn1c7HekjTvODIxlfMVNawe3jkE5hwtuVFhE3Fi92vtY5HKlH7H5xXtl5uuAhV72jTGdfHKayh76K+mXoBnWt7U/GccZTTAsdwik3KNU56uYcpGlHbBhDRaVsBa4h9P0G+qeo06iwZFSBwTJKpaEXlZgBIlWiSyzqFUefMMxU+RrGCLTHRQjv0rxXQgIgtmjMHPzpRAdRbguq38JEDCYMXQjqdqZDGpvLmhDMCCy0p/qUcehB7ubu4o3uSLBq9j8IKrY9AGkDrY4T+l1w9djYXo5Q4Zd4YYIUOpGYZTzADoyRFrCr9qI+0vuASqqgL9rxzS0cJttb+wloPj+dLuMRhyudhPk2SwsDn/ASs4VvCJpr/n2wDdaNufEnsKBy+nVG+1Pc4ajs9/hGPVkiqUz3MwqLNGEKKqQwmiDVUG3EsoXvm+H15i4WA2Gzl7ncmbkMc1oiZHliPJbkfFzOGkqI1Nq4F3L85c0c7UAx2N140VCH30AiTNFIB56JiviwOkSW87TBCc4aQ7EJdzGzSOtThA6oSTW6RwNbPFTPGtVdnjjnORcU4Fwopra2EWV8lIkLkHcajlggyzfdWFtF0IVFaqtk1B16cc22IWvQl9fxrCR1stdIlQuLMPcwv8WiwntoxG5Fht6LZg2JzomUVOdgoPd9g0T487u1oHxIFO3HmHnFuItJBJzE9JeAghgiRZS6l/YyTlpLNzyOHSpH4uZSlZM+VODeRGK659H9RXzfLAZS6v93PqfF6tCl0J6S2KoEOvvANUUPDUR92eyCxB5M8+5I4v9TqIc/iyDA4YZKsLuJjjw/DvgKMEzWDzFGWnnup53AFtIjHX6r2BNVo9YjskTC/lDSDFg7E06Y1e5s2wUg1/fjqGvbaiwZ+geYSsk+RNTXScDALdwlMN9qHssZxTHKOOGkGLXGOMNaHnf2FdGTeSwn6UN1IlfrJS1U/et5haNt21eWKAeDTEwKOqJSxbyElFPO2k+YIkzyMg01jMdg0WvCSwZkpIpsj7zA4sb7u8mQczfXJ4GJJ2hB5NHkWNHEnRnap2xqo/nqcbpda4Vcv9r5l7wdzog3psw1PJENceAcfWAJuQsIkZZ43aRGNQTnyLcrRdGTQShL+yOwgxHQsbV2PJitLojRtyUpekKo+8dDR1+FU4YR9nTaTnZikCfzDk5YlkNxNgnSwROpVUO3deD89WgLl7VrJA9LoCl3dXi37285ylTgZOnWuPjGXKA+84+xnsZzWF4srGIlMbGiDzmGGtASa27WqZavlCGx6V3QH0DB1XU/Oy6afjUA+38Iwe14Fs0a5kxrCS51cB3V5VK/sY2XhhO6RYDOPlDe6g3DUpJg+6oh+vkXCGSVyd7EcT8edDWWELB6L30w0tq3uIjxC/gASuJ210KWjhLK2wlxONRipZ5QkzW6Dsq4o9OI53OCZ0pcULOR6LB64Ppzq7XZa/odmWgklVlA1bWHiRu+lQqnOoJ8zw3lWEJY16U26qqKPpuX4WHdQadY7o53Q1fToBIlwNjgeDm4uWh13P8ZdbNK64xnOCuI870lxWaYBWJqATx4ox2CCslffdiaj9W61WCxWOzzgvSkeviaKHYMWyGc474nzMB1U8c5QcActRdt0XBGcWimHKf0VPKQ/dsJAIOWoo1AhvIRT+LlrNlIYTPXSqq75o60nxteSTOGc8x6keyeM567xnZ2HhicwF1FAS7f9daferKDTH0ngQmE0nSxsBuXJenYe5/mH6LDGBL+NjFI1NdPfTPpjr3x+4onUdLeTzeUBCuQLMZ9/yHeGJe49aWZx6gPqLpte7z/TX61bo8my0wnPremtV77SJR6gQKQMZ1jynUOKuz/6mUpswsG5UmVhBEoiPPUBU6g3MlwjyzmkfGfJquuwZZ51NAcm9FbSc+k0ynaWLN95wFGvZ4YiIhRnvsyIZiHoDDMh5DrTGU+oB0tmPo3moSfmtFgo65nOfOdy46gYM9NBGe1crs6/7Ody852tjka4S6wDSFCXPd9hwHnOVueSNviEOKbA8X6eT/bmyRglSRkKwiGHgYpPwwBbBmmDx92ILF9NokQpQ0FYepvlh2hv8Ukb1OeWd2i5XY4iXDi7cJkYEXIJVN3FndEURrVW2Pz0OUobEsUoHWHpNj9EKOAY/CR1Fc0FHpay40j6N87jFlkQln7yW6jqAk+HTps6qOEgdvZ5PjFq/6RDoCDkgShvoorFpNAo3FffZp/ncyQaQCrC0nt+iGY03tTbESsWZBgN6E1nZArARE3PjJALYjSiFvStiyikZY9w6Q2YcPQY0gEyIORhVGuAK0/E5sSI8yo0tRauupUk1tmSRIA0FmVDyCNRDTU6EEIsbzdqNwwWWqaiLfaHRIregsPcpkhRdoSl30Zu1R9WLEZZp0rT7S8no95y6+0TUZU+R18YbPyyPDwTwtJ3jcOA86eHhIwkxo7elIC74agohjVi0CInwtKbw2GGdzfuISFzjKEBb8SRKxUcJ81Uy46wNHzgcKYMezcux2K/kgikeov9aFgCVR+GjE/OijDwF5nG8SZhVIRW390fOOuNe37mSqkTqiX7g/kRlt7zyxsBnVJty6t1a71eqbbO1+cOG3Q1mAdh6bPKe/S6oaqqwd1V61RTnQkOhKXhPU8ctSia39/QHzUnwlLpuf3vxiiRCbbJgd+iEJa+Ba70IjdVBTYtmB9hqfT6h8sI26TsUtEIS59/toxVIYuIyY/wr3Zj5h3IgbD0ds9hqObEV7tnNNMKQRh4VM6/ZdWqw+IpFYmwNHye8ep/dnJmz8O8D5obYal089L4NxidxksmHV8YwmA73rWvj9GZ3eXbgEUgDAyAuyuvo9Pgw8eNMFjHl9n1ZE519sKJrwCEwX58ns2voTuM+eyZY/8ViDCg26+iNySstr/y6odTKgZhwKyv81pxIJ2a88zNnhEVhTCg37tZISCd2vyFUJ+WlwpEGFgBvy/zGU+digCdWvXlcVjkQxWKMKDh5/NDY54rPw6deePhKYf3kE5FIwzp5vbVn9WqWeIxRrU2819/CxCdF3QNhCHdPD5/1dq1qkM5lhhCpxp87+758RroQroWQkQ3nz+v90IAYF6tOk5YvR2hCnA51eo8+ES4f/35vBY4RFdFiGl48/378/70evd1/xCexOA/3H/dvT69//x+3wyvf/v/AY5ICgT9jfj3AAAAAElFTkSuQmCC;base64,iVBORw0KGgoAAAANSUhEUgAAAOEAAADhCAMAAAAJbSJIAAAAnFBMVEV9vkL////l5uXk5eT4+Pju7+77+/v19fXx8fHq6+p5vDp2uzR0ui97vT7b686o0YduuCTG3rfr6e33+fXn5uhuuCL9+/7t9Ofv7fGby3V+vUWu05Px9u262aTS5sSOxGPF37Lh7dmKw1eizoCWyG6OxWK22J3Q38W82qWr0o7I4bbf7dXK3ry71aiEwU7d5dfX4dDl6+Hc4dmvz5kgzPpwAAASQUlEQVR4nNVd6WKyOhAFtWqzKAIi7vtWrV97+/7vdgMuLElYJsHa+eO9+SxymJnM5JDMGKZpNmq1WoN91mu1N/bxVqvVY6M1hVHX9UzT+Tp/fh676/nqYlxltFqt193jZ285MFu27bLvNtmftqIrtK9XiI2+Q0eNihAGd+19nX+GK2JhjBFClFLjLuy/2QjChP3jfD09OabnulUirNfqAoSA0fv92fa/2XjObp8BM3KEYSV9Y/hzrnn8/bHrCu661KjRaDRab29vLfbJPtrso80+FUY9b/CxNhi4XGxJnNha7TpN329ruIf4qMGghsqop1QEHZ11S6OLUBKyOQxM170pox4qo55SUclRQ+xQEJd07dpsSAgM3QMlti7HvS0wWKhL6tNh6xzAU0EXqdLYDfTpUIu1N/zlEREl5aVAWttFy9Pjh1rm0t5Fi/YSIDHpLj1Xw1yqHA9tZ0c0qi8mTJE939UTD+tXvdRvblavFx1t2/+tLVwFvFAoGf2Ez7N+c7P6VS/1q7YKjRoAWI/Rmr1c93WbZwojJj/vbmlYsVGVaGH/21jV4gsF4x/FaAGdXiZrqxL3E2BEPdODJnAGcCL2mlPt06dcKLns/TYscCSjRfEw3yPVzS9ijJsJLPjDosVgS56KLxBkTduu8uqpkA7dxu5ZDpgUPDrbAB2WtmtvP3qugUZCrXWrXdoPS86lbfP4Owq8CkJnu+xcWi4e2v8uv6XAm1jr93I0R7mcxp/+pgKvgkb/yuU0JVI119w8fwrlhfanfpm8tHi0sL/o82J8ppBhiRVH8fWh/fn7FnoXNPounMAVXuO31q9goXeh+OTp5drc7+0vz6FpsaZ2seBfLFq4/41exAUjId2C0aKIDr09fhkXjIQMtXFt/r4aHkZV8Haih2uzz9ZvY5EIGmnh2uzDqwJkU6rhaODapq8UJdJCkZOb0+TMNPZLAwwg/peAlTTYAlzbK5voVSid5EaLjFTN7706QAbx4sC5Nm//+gDZjHoJE7g3IYq3TK7N3b+2D94Fzd2MBC4jWrj/XjGTEQkeFl49JXT4PfojAFkCN4Vwba3tyyXbcrF6fmmuzV6/2HIpW6wvXzaXSuKh/fk3Zpm7UPQti4fiVM39+gtxIi50ZWZxbfxMo7Zn5DcEd+0S0cLf/KFZ5i7kLGLg6sL1of3zt5zwJuS/olxb+19lThjsSazM/unqkarlcW2Xim4CkdG8u17hqkgR/GMXWj15x2oiISLHgRlKZ14RRuvLLcC1uadKbJRam4n5kFk17yDpin+FKvDDStJRclmaCTlUstEB/3j5XNuugqeL8YeZFqfbr+BRWpP321wqjYcD/TaKrDGHL5DlVr870rmfx7Vtdf9o0gGTMqPaDYZ8uplcm9fTHevJqCPDF8hU+744nP1mpqkZIMKHLHyBOw41v5bEuwChlGubarUaZB2bKUCT+ZRzx4vex9qfZHBtE52/RclmkEYz7lNMObOdYZ0PFg09KddmrzU6BblwSBYoQELJnEO+07mN0/oyJdGipjHjRniRRnFa3S2EWkcnbb1DfZGDzk0J12ZvdP0IJTkQEMp4AMpiLcVcW3upSYUCM/SO6SRNasQ6bmDrC7k2XV6IDe7ePwT3zjIBfiLSlKySvSuKFv/1dVwcWVwEXErsj2VzvC1riY4sdxNwbVpUSPvdMjeN+Iz8pCU6kr2Aa3M0eCHZlo0D5HLi3FGDqbKYyEeLnfJ1MZql73aWux2cuWNa6+ZRfV1FvnmuTdU4kLUr6oCpP+xzi6vBRtUd0dFOcW0NxUUFtYacA66LqkKwQO6ouiNuX0/VPbg2X2ldSMlqmb7HUusijuRQdkcyS3FtS5VHhg3eAUuubam1Tq+THaUd5UHqluDajvAHhgjvgAC6EFncumqgwjpagzjX1m6DAYocsAt7+JhyptCB0xxo7Lcirs09Q42UrLgU7YChj4uSLeeOcNaR1swoHtpDmDVgxE2CalyvyB2hR+TI2YytnkAqpNYuTVIMlAlCkTvC1lVobd64NjaXziCXwNv0424CHTB1Xd4dZ5DnRg07WlsMAbYebmJJiI6EMrw1Pr0dQK5Mzu4DIUCF4XvzuHQMfXQStdJLFMjqPMjcblwbxEj7SRMdbPXSnoik3HFc/vnRUfvGtXnd8jaAugkHrOBAGx4l3RGgBRb0r9HCM8rfHol7ii4HTEqK7gGoAS9u0QLyuolEP61nVS6SBOs4A5jp5sq1tRegv72J9vcOCYnRrhA94CvXZgNiBXqEiqpPC/XvWWETYmn7MFrYADeMJhpgNSEcVMFiQgjBiGZcBPcUEKKdbxp1F8LlKyCkDNt2fJidlgMmy1PnsNsEhZckX38ghDBldO4HXBvAhYsgDIqYMUlRUci6HJYmJ5PZWlICRkmHBvGCaDEGTPX5CMk9IzjEINL+UADvPlleRBgVES6DaAFhaAro8P6FThRLBHRqEqPBP2wlKzXwh2s0PEg0y0dIeYQ83cgJf1BVTYfo6Bvu17MQWj0OEC/cISQ1hCxuG+4ZEtAACEkRgKa5S0FUs1KWexnuDySnLI8wmapnSCr/UNOhYTmGB1n9AhCSJOHhLGfnxeHwMZudUivB1IYXVR3uDXMFyUpKI8TxWWY5vrBk5houWWpDN4s4/EPCbRQR4k8D9kamNEIrWjBP5lZqnzDFiWk2cUeKVorGBuzRlEVItxFA4QtFEn0hyb8r6hCtDVCwKI0QRS/QJFusY8RWJ35LijqkQwMULEojjF6fSSkl60FaNOMbChQRGhfj8ykIyeP2pcvtGHkXV7OilTL5BFEspRE+3tYfpE/UeiSt8QCmqkPDgL1Wg+uwI/X7yJLHWhHC9pjA/dCUvoSIuJ+NVitdg2iI0nNpjN+dymoNI7oKZSSMFmAdzp+CMBYPg6EgpxEVjKZXiQ+p6xCUtJXPaUgq+3ROi+MWWTk0lKED4Qj0V2p56UMmnY/xZkXECr2KupU+CSGnxCTQw5rZrXDOU9chTADrwy0HLAVz1hXRbeo6hAlgjc+/UeWls+G2Uf0hhAZeSc/ORDKY62UxwALi2mg/n2wz03sK/pIOmQR11nMhLnWugMECRBiw+vQ4y7HWxBHPPxMPY/+AsIXnx0VnII0fejPvFeivFBBe//XaY2a12S06vEaduGH/laxN8qUAqUXnu06Sa4wp8a+sLUQ5dey7iJBhfOdFbD7VsD58CkK8DSVjgxoil+jFVExf6joEbOIwSiN8vEzMNNnguNJNdOoQ8n60PML7/0yybjPa/hDjotQRPoWJinbfZDF79PL42opHCLbS3jPYxIjTz3oPFEOoU4ewTfpldfjwsKxNghEVFVO1OiMMqzBQEmHsQGkGaRGd+9Y3l9KhYYLO5JVEGNPOUvp7NKIB9MVD1DW857D6UQ56kpylQbHtjvpyGvxp2CA6sXTEjx37dbocYUopTtSWEGXeQIQzwwbR+qWzNhRPPJu9bkCwPaQ/2iziO20+YnalaKVkYLjT5yDkNio4y05nz6RzGqTONDQ1viG1TMM8PWc/DeGOGEhlo5PV9w3TgUymkP00y4IAxxpZDDS0DdgOUcj6sF9sy1BX524TNHWNpgc58wTb11Zg09AkvedYcW/i/s2ogTZFwdb4COepccex3moIrW+TIYRUC4ayGARP5UTbYCc4+a22R9jww1NBleyClvE02Nru0hu9Ag2dDivhRhu1fd5rhrDV8gBklAoTRRGxLpvxYdbpLJl0ZovdemURSVlmoqJDvGi0g628gFoD4dm+UFaSP85hE0M6kdw368urRWI6UUBoDa6ngrLIE4lEi4WJ5DRyITYx92dihaYGgLsc3U4FOYB7wJELzYRlZXQgtObxUovlF0HMl65nSH1AbaFEhrITFE9QR0hGiaIgkJNdn+71hKUPOPiEErUsJlwdi4hzASJEJFVnCXIo6L/bGdI26PBacsY/pY5wR8wgCCHlKr0BKsnR1e0M6XvbAxT0RPPkHZiHRDgjj01QkFN1fKEpwDzDklL//a0ZnlZ3Iatgkq654sROcrNZDP7w06dHAzeANDEItgLeKg7A2jwQrnTO8t6eG9NIB2U3zolKLc4gAMPtnPeKA++AA3riqnNrZBELxStclbsyf4qbWegQRrOFjZLrRptJywOWUBIUXTMn3wkfKkUhiAoOOmNgxUEyCLHd6tNAK8+Kiq4lpYyRChwQXqaOzpP12sAlhhBfQDCh0eIqFFR6Uyk1iD+S9drkm5Pz7ywdm+NSuEA/c0Bu5ahULhLH67UFBb5VTpyL3PEqhfthCSrTmFAHDAWt7bA+Te2OEFJXIRJRMdZAiraLwph3QFGtxRJC9m6qXpti4UtqrXmM3WIaRH2uJI1y6V16edRrazabrff395anWuYaWZukInqokFmIiu6plzHA57f390az2Xh/VLt2YS+DE/dK0HE28NjVvMFsjArNElRQqY2txtQrHIZFdZO9EXwdxR8QtkIhBathYcTzizrqJuOf4EGneiO4eitdPwQRaXVIxGXvRWst5sm9XUmgwxaTILlptRpVlChBLMw54mmRWkM+AkILe6V+9ei1r6Ba7Xil5B/dSqT4HsYF5XPJiqtcak41Fb3uO5Jq13oRUrI6PJSUTk8wXwxaXx8BdJT0RnC1KpGmWiLEU0xBBWGdvSD6TrI3wr1SMktydPbxie2/uMnHTUfMAfk1kpZSb1dBY/vaOeCd7xygtfcD4ksEh+4oymK19mQhjYw+pFr7IAkmy8mwL2jIorevDj6Yid4ILGNrs8ytzT6bTU9zX05BEcQOT1Lo7Y1ER14jSEMZKJa43bi2qLMchP7OFEERxOocMBTSc7M66bQzN4BCRES9xER7qTc6t3P6kOpvhkQlrYICkx1pz6PIPzfVHfCW3TySnHYFDa1E7Z7MsHyE/p/68R5paCvOtUV9SOEFd7NEUA27ilqLbOGbbA0s7EOqtRVL9NPp8rkLcLXhLCH7EGFOH1IHRIDnCiIxsvCk3wEDwUdb3If0nnlf1dk+V3RKDF+my4kzWS66FdWSDN8HvT+6kiW5tkTL+Ers1LiW2wt3JlRz+bC/TLE+pG41dlq1kIi6iCO8c23s85HAvf3T0pDlyYLm/iNVu6ahSa4t3oe0BFf9QoJjC/vsPqRh6ydQBbBfFesk6Vot1mH9z7liWDs6rcMU19ZKJHCQrQG/KHjoiVCkuLZ6wmA7f6n3OF0lU7XcvtxhO8s/NNtQ5CSdL6sPaZTA2QVfHb2ABHvQEqmalGtLJXDDius86xKr46dSNSnXljZY2ebR1xKy4BIZOdeWnnSq6kGuU4I1C4dQxrXxCdzrh0UyNhOpWjNI1eRcGxf8nera2esRsvMEqVqhaHEbfXGIZCdM1bK4Ni6B+++VDTVopiVK1TK5Ni71cS4vO6OSsSdO1bK4NkEC97IQreQbCoE6c+PhbdSZv2ToJwup82VzbYIEzh2+XgJHrY48Vcvm2oQJ3Mul4ZQu/Rs3KEjVcrg2ocF+vNZiCq+crFQtj2sTTTr+vtgmrucIGQqwJCedTK4tncCFCZH/XXVLmeJiTb3YnQlStdiojKcRjnZfw1IRPglZNT5aZHBtYpe0z1rfRwOFzB1xXCjHtUkYuO/Vb1sqtca+KLYLdRgilHFtstGf31UjHi29UvebwbVJRu2vX1QjJUfBrClQXJnVk5l2VNf+qbIPWZbgy94u5nzFuDbpqMcVGX2KUPLjulxSJk7VinJtstF3v6dhH29ZfPMv75qUiVM1WQJXKlpE33V17MUuI+Rytl1RyiJO1YpzbRmjk0rbAiYF4YPnipOyfIQ5XJswgbuOel/z52BE/XHDbAjvocBoPk8jGQ3nn+Wq+uiI+kfHFgd0eaqmFC0So95+XkkP0ofgsFFnsbgA5dqyR117P6wMI8V4WrvuPhAnZdJUrRzXljfqfR9xFcaKyKXX8FTurDDXljtqv83mms4R3IWpb7333/JVpIdrK+KSgzHSZq0UkfmHabtw5yvNtRUZbdfOayTpPlIKHrZWPwOzaFKmjWvLHw3TpPNxZEHOzj+Uh8lqOnikX4/rJpIy8agy1xY5n8hg76Ou3R4sNhiiyqCS+ajb+/Z9s0zKoo9rKzR6x73fbbAl7zvCCULEGq2D2oluIf6sTAJXnGvLGuWSJ9/3lr3jhuQ1kglbH1vGcLpnf9KAJGW5o+V4mnqJ0ZrLzM3pfI7Xw4sM4GXYPcwGpm+7orhQKCnLHf0frZaTQkTSmpkAAAAASUVORK5CYII=;base64,/9j/4AAQSkZJRgABAQAAAQABAAD/2wCEAAkGBxIQEA8QEBIQFRAVEBIVEBAWFRAVFg8QFxEXFhUWFRMYHSggGholGxUVITEhJSkrLi4uGB8/ODMsNygtLisBCgoKDg0OGhAQGislICUtLS8tLS0vLy0tLS0tLS0tLS0tLS0rLS0tLS0tLS0tLS0tLS0tLS0tLS0tLS0tLS0tLf/AABEIAOEA4QMBIgACEQEDEQH/xAAcAAEAAQUBAQAAAAAAAAAAAAAAAQIEBQYHAwj/xABAEAACAQEDCQQHBgYBBQAAAAAAAQIDBBExBQYSIUFRYXGBEyKRoSMyQlJisdEUFXKSosEHU4LC4fBDM2Nzg7L/xAAaAQACAwEBAAAAAAAAAAAAAAAABAEDBQIG/8QAMBEAAgECAwMMAgMBAAAAAAAAAAECAxEEEjEhUfAFEyJBYXGBkaGxwdEy8UJS4RT/2gAMAwEAAhEDEQA/AO4gAAAAAAAAAApbu1vA1bLmetChfCl6WpwfcT/Ft6eJZTpTqPLBXOZTjFXkzazCZRzostC9SqqUvdh3n44eZzPK+ctptN6nUah/Ljqj4bepiGalLkta1H4L7FJ4v+q8zfrd/EXFUKK4Sm2/0q67xMFas9bZO+6ooLdGMVd1uv8AM14pH4YOhHSK8dvuLyrVHqzI1suWmfrV6z/rl9S0lbajxnN9WeAL8kV1Iru957xtlRYTn4suKWWrTD1a9ZcpyX7mPAOMXql5IE2us2Cz5522nd6XSW6SjK/q1eZyw/xHmtVajF8YNx8nff5GiMhlM8HQnrBexZGtUWjOw5NzvslfV2mhL3and/Vh5mfhNNJppp4NYM+fTJ5Ly7aLK76VSSW2D1xfOL1CNbkpPbTfg/svhjP7I7iDSch5/Uqt0LRHs5++r3BvisV59DcqVRSSlFpxavUk001waMqrRnSdpqw3CcZros9AAVHYAAAAAAAAAAAAAAAAAxuWMr0bJDTqyu92C1ym+C/csM6M5adjjcrpV2u5T3fFLcvmcqyhb6loqOpVk5SfktyWxD2EwTq9KWyPv3C9auobFqZjODOqtam436FHZTi8fxPaYApJN6EIwjlirIz5ScndkkEkHZyCkqKSQIAYAAQSyAAkglkEgUgkgCCDM5Bzjr2OXo5X07+9Slri/o+KMOQczhGccsldEqTi7o7Xm/nFRtsb6b0aiXfpP1o8VvXH5GaPn+zWidKcZ05OM071JO5pnUs0M7o2tKlWujaEuSq8Vulw8NywsZye6XTp7Y+q/wA7TQo4hT6Mtfc24AGaNAAAAAAAAAAA13OzOONjp3Rudea9HDd8UuHzL/L2VoWShKtPXdqhHbObwS/3A4xlG3ztFWdaq75yd73JbEuCH8FhOdeaX4r146xevVyKy1KbTaZ1ZyqVJOU5O+UntZ5lJJvIzysgAkgqIAJIBSVFJIEMAAAZBJAASyCWQSBBAAEAgEgAIhNxacW00701inwJKSSDq+ZGdStUVQrNK0RWp/zoraviW1G3nz7Z60qcozg3GcWnGSxTWB2TNPL8bbQUncq0blVjx2SXB/UwOUMHzb5yH4vXs/x9RpYevm6MtfczwAMwaAAAAReSa9ndlLsqXZRffqXp8IbfHDxLKVN1JqC6zmclGLkzQc/cqStFoWv0EU1RWxv22+L1dLjWkzYrfZe1puPtYwe6Sw+nU1qMtj1Namtz2npaUYwiorRGW5OW1nomSUEplqOT0BQVXgQVElKJJAkpBDZJABfWLJFor66VCrJbJaLUXynK5eZlaWZFuktdOnHhKpD+28qnXpwdpSS8UdqnN6JmtkmyTzGtqwjSfBVF+6Rj7Vm3a6WudGSW9d5LrFNHMcTRek15k81NdTMWQz3+xT+Hx/wT9gqbo+L+hbzsN5zkluLUF19gqbo/mf0H3fU3R/M/oRzsN5GSW4tAXn3bV3R/M/oPuuruh+Z/QnnYb0TkluLQgvfuqruh+Z/QfdFXdD8z+gc7DeiMktxYmTzcyxKx2iFaN7jhUj79N4rntXFHl9z1t0PzP6FX3LW3Q/M/oRKdKScZNWZKjNO6O4WavGpCFSDThKKlF701ej2NJ/h1aKsITstbRuj3qLTv7r9aOG/X1Zux5etS5uo43vu7jVhLNFMAAqOwczy5bu3r1J+zfow/AsPHHqbvnJa+ys1Rr1pLQjzlqfle+hzk1uTaWx1H3fYji56R8SowGXrLoyVWOEtUuEtj6/NcTOlFekpxlCWDVz+vM1BNOxqsJXlaKK1JwlKEsYu7nua5rWTCR2mdtHoSU3gkgrJKbzbszM1ftF1otCfYf8dPDt3vfwfPljxWrRpRzSOoQc3ZGOzfzZr2y6Ue5Rv11pJ3PfoR9p+C47DoOSc1bLZrmoKdRf8ALUulK/4VhHojNRikkkkklcktSSWCSNeyznZSotwpLtai1O59yL4y2vgvExJ4jEYuWWGm5fL4XYOqFOiry8/o2ISkli0ubSOY27OG01r9KrKK92PcXlrfVsxUne73re96y+HJMrdKVu5X+UVSxy6o39Ps7FGaeDT5NMqONpXGQseXLRRu0Ks7vdk9OPhK+7oTPkiVujO/erfL9iI45X2x9f0dDyjkWhXv04LS/mR7svFY9bzUcsZt1KF849+ltkl3oL4o7uK8jKZIzxhNqFoSpy/mK/RfNYx81yNpi00mrmng9jQk+fwzyzX14MZi6dVXicqUStRNpzhzfSvrUFxqU15yivmjX4WfiPU6kaiuiiScXZngolSiXMaCK1A7uc3LaNJnoqR76JKiFwPJQKlE9dElRAgWSs6VSFSOMWnzW1eB0KlUUoxksGk1yavOfaJtmbNo0qOg8YO7+l61+/gJ4yF4qW4voy22MyADPGTTs+7T3qNLcnN9dUflLxNVMtnTW07XV3R0YrpFX+bZiD0eFhloxXZ77TJryzVGySSkkvKjFZdsulFVFjFd7jDf0+TZg0biatb7L2VRx9l64P4d3TAlFkX1FEZFR4plakdraDNhzQyH9sr3Sv7GF0qz3q/uwv3yufRPgddhFJJJJJJJJakksEkYTM7Jf2ayU4tXVJrtKu/SklcnyjcujPHPPKjo0lSg7qlW9N7Y0/afN4eJgV5yxVfJDTRfL46rD0EqNPNLx+EYnOrOR1HKhQldTWqpUXtvak/d+fLHVQDeo0YUYZIfvtfHYthl1Kkqks0gQAWnAAAADO5s5xSs0lTqNug3hi6T3x4b14ccADirSjVi4T0JhOUHmjqdkhJNJppppNNa008Gmapl3J3ZT0or0c3h7s8WuTxXU88xMqtqVmm/VTlSfw+1Hpiub3G0ZQsyq05weLXde6S1p+J5uUZYWs4vhbzZUlWp3XDNK0SdErUd+O1bntK1E0BU89EnRPTRJUQA8tEq0T0URogBRomWzbq6NZx2Si11WteV5jdEuLBPRq05bpq/k3c/I4qK8GuwmLtJM3MAGOPnLcp1NKvWlvqVH+tlqVVXfKT3tvzKT1SVkkYr1bAIJAgFnlSydrT1evHXDjvXX6F4ABOxp6Mlm/Y+3tVnpPCVWOkt8E9KX6UyMs2XQnpr1ZvwntXXHxMv/DinpZQpv3adWS56Gj/cRWllpyl2P2L4LNJLtOtnMc6LZ21qrS2Rlox/DDV89J9Tp05XJvcm/A445N63i9b5szeSYLNKW6y8/wBF2OlZRW+/p+ySADbM0AAAABSSQAAAFxk61ujWpVV7E03xj7S6q9dTrqd+tYbDjJ1rItTSs9nk8XRp389FJmPyvDZCfh8r58zRwEvyj48ehgsp0dGtUWxtSX9S1+d5baJlMvR9LF76fyl/kxxVRd6a7juorSZTok3EgsOCCQAIABBIG3/bEDXu3ZAh/wAyGueNQmrm1xfzILjKMNGtWjuqTXhNotzeWhltWZAJBIEAkAB42qgqkJQe3B7nsZP8OW4ZRjGWqTp1Y3cUtL+1nqUWNqjbbJadiqxhV4Rn6PSfJSu8CutHNTlHemWUpWkjqlSN6a3prxRx5K47IcrzhsnY2qvDZpuUfwy7y+d3QQ5Ims0477Pyv9oYx0XaL7+PQx4ANozgCkEkAAAAIAAAdYyFDRs1nTx7Kn5xT/c5bZLM6tSnSjjOaiuF7uv6YnX4RSSSwSSXJYGPyvNWhHtv8ffkaGAjtkzB5ffpIfgfnL/BjS7ytU0q0+F0fDH5loVUVanFdhZUfSYABYcAAAQCAGSBc9kSZ77vAl/0IY5pmjZzUdC111sclJcdKKb82zGmzZ92e6rSqbJQcXzi7/lLyNZNbDTzUYvs9tnwI1o2qNdoABeVgAAAKZwUk4vWmmmt6ZUAA6JkK2dtZ6c275paM3vnHU311PqYXPnJenCNogu9TV1TjC/U+j8m9xj81sqdjU0Jv0c7k37s9j5bH03G8SV6aetPU1vRhVFLCYjNHTq7utcdhpRar0rPjc/k46UmwZ0ZvuzSdSmm6Der/tN+zLhuf+vXz0NKrGpFTg9hlTg4Syy1AALDgEAAAAMtm/kOdrntjSi/SVP7Y75fL58znGEXKTskdRi5Oy1MzmFku+UrVJd2N8aXGT1SkuS1dXuNztFVQjKT2Lxewmz0I04RhBJQikopbEjDZYtmk9CL7sXre+Sx8PneeZqVHiq1+r2XG3vZsQiqNO3FzGyd7beLd75kAD4sAABAAIAAetlp6VSEd84rpfrPIyOQqWlWT2RTl+y+fkRUlli2dRV2kbQADGNC5g87bL2llm160GprktUv0tvoc9OuTimmmr01c1vRyzKVjdCtUpP2Zd174PXF+DRscmVbxdN9W37M/GQ2qXh9FsADUEwAAAAACAbbmzl5NRoVnrWqnN7VsjJ79zNSBTXoRrRyy/RZTqOm7o6pOCaaaTTVzTV6a2po1DLOZibc7K1HfSk9X9MtnJ+KPHI2cs6V0Kt86eCftRX7o26xW6nWV9OalvW1c44ox3HEYOV1p6Pj9D96WIVn/pyu22CrRd1WnOHFrU+UsH0ZanZmr9Tw3FlUyTZ5O+VGi3v0IX+KQ7Dldfzh5fT+2USwH9ZefHwcmPWy2WdV6NKE5vdFN3c7sDqdPI9njrVClf8Agi/mi9hFJXJJLYkrl4BPlZfxg/H/AAiOAfXLyNIyPmXJtStT0Y/you+T/FJal0v5o3Sz0I04xhCKjBK5RSuSKLXbKdGOlVnGK4vHksX0NNy7nhKScLPfCO2q/Wa+Fezzx5CTeIxktunovv1YwlSoLt9WZrLeWrpqzUH6V/8AUmv+CmvWf49iWxtGPSSuS1JK5LcjH5EsnZ09OX/UqXSlfio+yv3fPgZAahSjTWWPnvfGhVKbltYAB0cAAAAIAJAGwZuULoSn70rl+GP+W/AwMIOTUVi2kubdyNys9FQhGCwikhTFztHLvL6Ebu56gAzxoGqZ8ZO0oRtEVrh3anGDep9G/wBXA2s86tNSjKMknGSakng01c0W0arpTU0cVIKcXE5KC9yxk92atKm73HGnL3oPDqsHxRZHpYyUkpLRmO007MAEHRBIIAASCAAAqhUcWnFtNYNamikABl7NnJaIatPSW6ST88fMv4Z4VPapQfJyX7s1kC8sLRlrFcdxaq1RaSZs888Z7KUFzcn9DGW3Om0y1KSgvhSXm735mLLao9bCOEox0ivf3Jdeo9WTXrSm3KcpSk8W2231Z75Isfa1Na9HC6U+Pux6vyTLSXi9i3vYjasnWTsaah7WNR75vHosOh1VnljZBCN3cuWwAJloAAACACQAB6UKLnKMI+s3cuG9vggbtqStpk83rLpSdV4R1R4ya1vovnwNiPCzUFThGEcErue9vi3rPcyKtTPLMPQjlVgACs6AAADEZwZJVppaKuVSN7pSex7U+D+m45zUg4txkmpJtSi8U1imddNazqyF2y7akvTJd6P82K/uWzfhuu0cDi+bfNzex+jFMTQzdKOvuaKB/vJg2zOAAAACCQAEEgAABBICTLVnvVeo8qdNzlGEfWk7o8974LHoQyUrmRyBZNKbqv1YO6HGpdj0Xm0Z886FFU4Rpx9WKuv3va3xbvZ6CE55ncZSsrAAHBIIAJAABsADNkyLYOzjpyXpJLD3I+7z3/4LTIuTcK1RcacX/wDTW/cv9WwCGJrX6EfEao07dJgACZeAAAAAAAAAAaxnLm32t9Wgkq3tRwVX6S47du9aPOLTcWmpJ3Si1c4vc1sZ18wuXcg07StL1aqXdqLbwkvaXmtho4THOn0Km1b9wpXw2bpR19znQLrKOT6tnlo1Y3XvuzWuE/wy/bEtDajJSV07ozmmnZkggHQAAAQACJMAPKqzLZAstydZ4yvjT4R9qXV6uS4mNstndapGC1J65P3YLF/tzaNqSSSSVySSS3JYIWrz2ZUX049YAIFS0kgAkAAV0qcpy0YRcpblsW9vYgbsTa5Q2ZrJWSMKlZcY03s3OXHh/qucm5IjSunO6VTY/Zh+Fb+PyMsIVsTfow8xmnRttkAAJl4AAAAAAAAAAAAAAAAHjaKEKkXCpGMovGLSafQ1LKuZ2MrNL/1zb/TP9n4m5guo16lJ3g/Dq8uGVzpRmukjkdps86UtCrCUJbFJXX8ng+h5nWrRQhUi41IxlF4xkk0+jNft2ZtCd7pSnSe5d+H5Za/Bo1KXKcHsmrd21fYlPByX4u5ogM/a80bTD1OzqL4ZaMvyy1eZirRk+tT9ejVjx0JNfmV68x6FanP8ZLzF5Upx1TLVnnORMqq3o98l2dVaivu0I3Snx92PV+SZZJ5VdnEVd2RlsjWTs6ek1353N/DD2Y/v14F8Q58UUurHevFGe227sbSsrFYKqdKcvVhUlxUZXeN1xeUcj15YxjBfFJX+EbziU4x1Z0ot6IsRBNvRinKXupNvwRnrPm/Ba6k5S4LuR8tfmZWhZ4U1dCMYrcklfzFp4uK/HaWxoN6mCsWQ5yudV6K9xXOT5ywXS/mZyzWaFOOjCKiuG1729rPcCdSrKerGIwUdAACs6AAAAAAAAAAAAAAAAAAAAAAAAAAAAACUYfOH1DUbNhU/8n9oBoYb8BetqXFmxRtWRyAc4nQKWplQAIjDAAAgAAAAAAAAAAAAAAAAD//Z;base64,iVBORw0KGgoAAAANSUhEUgAAAOEAAADhCAMAAAAJbSJIAAAAllBMVEUUhsD///8Agr75/P0JhL/Z7PVQncsAi8Pv9/t0r9QAgL19tdcAg78gkcUAfbz7/v7m7/bM4u+lyuL0+fwxlcePutoxlMeGwt41m8vX5/Lh8PeWw9/Q5fG42etlps9Ios9xtdis0uehzORkqtKGvNuk0OZ6uttFmMmTxuFRp9HD3OyVwN231ulCn84mlMegx+FqqNBjr9VrmussAAAP/0lEQVR4nO2d6ZaqOhBGIZSCERDE5jgrztDaw/u/3GUUZUyACN7V34+z7O4jZpuhkkqlwvH/d3FtF4C5/gjfX3+E768/wvfXH2FjGgnPGr3qg1kTCoakaZpjXU5be3ObTL6Ur8nktrF/TxfLmWuSZAiMS8CQUJDmM2d3siecqmKMEcjgivP+kQFhhFWVm9innTObawwxGREK86XzPbiJLpjLxeXJZUUYi7fBwtHnjChZEBrL6+d+Cm6t5bM9cyIM5v7T0iUGpWmcUHAWg76ISOkeMcXzYLFqHLJZwpF+WZscNV0MyZnrg9PsMNskobRz8Yq6HYlkzuxf5g2WqjnC5a/IuSNlLbywLjlx7zRWroYIBUtRUQNwESOo4rGhsbUJQkHbfeEmKu8JEiuXRsxkfUJh9m02zucLKZdZfcbahLPvKWLC5wqQuVi2TDj/3jDjCxini16LhIa1BpkhX8Boj2vNAuoQ6gORNZ8nuZ7tqE4oHUyW7fNBwCmn6nOAyoT69EV8gczViwmNrfpSQA7U34q9sRKhMFPwS/k8YdGpZByrEEqXRqaftAL4p72GcLZvg89H3C/pV1bUhMK1X3N9VEPy2TJYExoL8xU2MBdROdAOOJSE0lZsrQJ9Aben7Ix0hNKmVTwfEc50E1UqwnnLFRgIOCpEGkKda7MLxgKgmeBQEK46UYOegMbFQUwoWEpXAD3EHTEiKaEwftVKgkigfJMaRkJCYdeqGUwLxAshIiGh1TFAioZKRrjqUB+M5CI2R+h0ZhR9FIhWU4TzVhZL5QKZxNVIQKh1sgY9Ec1uygmlTVcBXcRzuYeqlNAYtI1RqH3pYqqMUFiIbUMUCbhDmVksI7x2aiqTFijjErNYQrjsd83SJwVnvQ6h1JbTiULypnjRX0goXNpzOpFLPhV2xUJCve3CEwlQ4YK4iFDqrKlPSC5qp0WEvw3GHjAV2lQjXKltl5xY6rEKoTR5kzbqScmfoOYTHtouNZUGuXY/l9BR2i40lfLXinmE0r7tMtMJ1nmrjDzCcacn3GkBt6Aj7Nldn48mBf2cBX8O4eJdTGEs/JE92GQTLm9vZClCgZm9yMgkNN6wCt1KzF4MZxLOOr7szZGSWYlZhMLi9bEkTQhlLqOyCOcd9HCTCMQZIeGFrArZfA11nopOZIQGibEHrIoKC4kqrmyKATJ8ixmEu/IqBDw5agIbSSu7clA1+kdEWF6FIFaOFCTSclOxsQImIXRKF75Q4t2qL2lYERGnd9zShHbZs+U+a8DqewlwKycsj5lRmjvPkq95tUkHcCmrnyL8V/YQVLpTUEPxowlNVgpxWEZo9Eu+OxAbq0Jp/BHrU/ciWob3wDyj2tQYzskulCRcmWWP2NQ8/xBrweFYaN1zPxzjex1UW96kt76ThKX+JzRobJz5eawmMFcuMoAS/XVbcX2TbKYJQmldNqFAw8ZOeR7khzpU+3N+pWB1G/31X8WO2E+0sQRhaSNtkpBf/Yu18x6rby/3P1YlTDbTBOFnaeNvkrBQFQk5+CgilH5KG3/nCeX1czN9JnTO71+HnPI8aX4mHJdPB7tPCN/5hMahfIQOCec9hjJqESbq4Imwty9ffAbvF+w+O+31enV4W+YS6gS7MSGhgoCVkOnPCytOTFPzyifCK8E0IiKs+PEkMnfL5bJ3quyzxeM8QuNA8LW9gJDDqqvqTmm0lXIINYJu+BJCkD1Vf/ttnkM4I9nXfgVhf+2pdAKZp2e/6SPhkmS9wp4Q+rpguCLw+eUIOzmEV5JHsieU90Ejm1WOBcGPQe4PhAbRdgV7QjQIfBla5Z6ItkYmoUQUIfQCwnBxoMWfQRleJ2+kbEIivwEjQhAjRzfIn2F57ufhZY4ytYGiZRJqRMEJbAjVrbDz7AMAVqfh2sD4J/pGEfB5OetTDTsoh5CoZ7MgBPB8F87EbYzm8dFXudwq7u+8WO4eVSivqmcS6m0RAhfsivX2/VR82vxkBrstvTI356OwlUloETUEFoSHcHCXsnzNkfXula/O40LG7p5HwgvRTJBFKy2J1A71S0F4is/tx4Qjssk8A0I5cTy751jj8fiayMBHc4QVfmOTHxMKZAGzLOoQPXpxVwd3RopVLJ4H3w8+pSVFI3UNYiYhWaAXm7H03m/mAxOp3HT/a3+pKtffRT1zTnVqAKaZhGQJZ4oJg3XPw1d1X7knfpV8X+h4WJ0B3yxN8jQ7iCoX5mwRPuimNUomIVlMcCEhTDe+4s2/ydTXl6hGcxbF/8XzZwEKSmQpmLPilqltAYXtbUG1KQxiJiFZwyskVMKl5zUqz+S+UjOsm18NgamSnm1vuDm9UtD0OfzORZ76L8o3VJ4kZxKSjVVFhPd9qWVkniePhuDkFRKPvYE8MX8KvvJeH9+SzlhLUQ/+ix3V0QjMinAcmiFjGH7jz/GCGzmbEPkQwicy00FNC+D8PjqnGUs5NZOQrKUXEfo8mvf3cfh1BXWo9TQfXceZhIB9sOUZH9MJdow+DPwXg/qEZA29gBANvG5orfjYevnMo8tm4ETNJEHobSGC3zZHY9yPPEjGUr+bwpVq+q8tBXnplusQko3HBYTBhsHWa3Kj4BsHvw6FLcbBuyYpws3h++osvfJIA/U7LNds2D/3o6QJIy44li45jrUYErbVbMLa/TDwVStr799L8LSQEOFBJiGI+j2fd2/KhQ6knu0lxuYO4R/seMpjSAuylsaGEHwPkqT6p497gUk0A0I12JhNtVLgYs/mTAyHJeHbb4v3qOZ/6k/cPcd1COvaw8D7YKnB/t06rkPeOQa9qqdyBYT4Foyk2h4Ffwunckd1HdsQQsJse/hVsw6DxH/u/N1vXjsuJoxkIxLCcAoK4qIyIXAs5qVyUI6zIg48hiB67JFw5B+GK2ilk2ByGsbRQ7SXe1F/4vIS1mH2rG1Tc20RmO3VaqX7j/cfF1t8Y77zDW6CMN7q602iXbHZTfbS7w/D3mfHUURuHyWrw0n2+rBeHSa2z/mj5xQJ6nDmONdF+AUmrMVgfHX0nlceba9GB8/1wUQ5f0RNUww6pLH0nkLmrYFbJiFZEFIeIfQTU0rJIwzHUplD0dIiQehacU6x/UeOsR21WclZ6dH46aimX9GrqQiYMHoY7CxCwm3lXMJUUKDbr+8WPy5YetYGIAezNhOuyWe4vXeD9v6LLcWsDW0zCcn2enIIgfMbae9yuFwOO78uvG3qyOLH/zFr5o2DZnjAqcBCb0wGv3tKNDNv/BDv/UDo1KpDxW9VF99vrvh14TVTk4gQvvyvfNnHdnLq7Zg4iHSzaFZP+MHv+kBItpuVQ4iCcgzcUdBdK/iWzBucg7G0jDDy4FoiTpzKdiZY9KGNHyqf98MG4tO+RY2dGbziBWEUOqbd+Zt3rsBt9i6hIBjPhIb7H1M7CGGTFLHyECoiXTisBAPYkW4BnL1vIRGZ/Lx+GLhjwp/EL++nifvKf/FYOvD9NAmfEODQbh5NjH51STIMQ9KsqcqFxwKEDyonhphDWBqlX0CY8KDFP6U8a0nXmyf5fpxHX4sqNn9Ph+FGVOXzPSi616cAhEdnyOMeMEmwCRN/Kd7Hg7thDc5+uAlS1p96PPA4FIEL6Deb0DW5JO9m4NV/Dus19Ov48/NzvOo9DawWuT8RL7L38X03SqmaJwQuHf0/yjjTS+71xo8zh6d4GpJis9hdi47yZB5VjhqcRLyBCFxePM2cZHXBZJc7QNSG61RtCpdzYL21NfHTYPrY6h8JpWFbkXvIQ+xt3CF287RCkS4mJ/s7xNqaYm/tabfuKTaRZBeYUaTCkV+JyNvZUeE3tI3CceqvJQDZ8/maIlIBPQ40z4QkGSAZRZug232olEPvhTSNqEChSi4K+fGlM4KIGlYRQ/EnZ0QM0T1pkh8jTNIRXxATNQyjvqpebraf5xLy4/bqMJb8EwwUVSP30KeQT1h+KOgl0ZfBYE8UKpnxdvHZU/BM2Cvfh3wBodgfeKLaTnt4eyKNS+Lc0wfhiRKmMcLprX8aRcGbOYTlC82IkGFiCfCP61X8AOCej8wkCcujx1Cwi2Szy+8C58vxeLQqpr5N5cJMniEdlj1Btv1xwGGWMzLK+FTxtiX4EYoJy11age9duCgyYiJx6BsLo+pImsyIlSQsDwgIU/kIq48BCw2tYLlU9bS6mTyInTqPX+5avqfyMSQGir7pqmmO9kmgFKFT6ixAa/ZZI6SqWSM4q5SQoIdDeYrpuoCHqslNzJSfIE1Ikp7mzDY1xnJfNdUQTmcZShOOCLo4cPaKVXaM0epXrGyK1HTrysjAcyJBlLEKIgtxqlr93k9kp3EyCOekF4ZXLQe7p+KM3IlZub6275muzdv6zaDJIlx29D6LUslZA2AWoTF4z0pEdpYVy8yb2M1bV8oEXEYYQA6hNHzHSkTZt+pl5y99szTJvnKqMIfQeMNKxDnJj3Ky7OrvlK48UDImq4SQ/2y7wNQa5kwj8wipjvt1QPlXleTmZKc739C28tN55xO+WVL2/FyO+TcHLN+oEsOoOkrC6gliXi+8zccoIByRBX53QWLBcrzoFpZl5Wy3L5Za5FQpvCuoenaRlwpnZA8mJDRIUvK0rqcsGJSE/OzcfUQwi+95LCYcXbufnl20iq+WKybkDbrzt68XcGXXyZcQ8hLVwcbXKxF4UYGQn3d6Cg7n0stWSwl5vcOXXZAkhy8n5FedvSIQZIJLjwkI+WNH5zZQbOopCPlDJwkBfkkKT0TIn9qmyRDAttgQUhEapSEaLxfAgGyflozQu46hW3IBCffaCQl5rVuI5IDEhNUv1WAh4Mhz3xMT8sapM3aRuA/SEXrb391ABPxLNIrSE/I7uROIMomhr0bIWx1YLoJ4KS9oZUJe77c83oB8pryJiZKQ71UO5mlI69LlUk1CXjso7fluQByWLXjrE/KGNWkLUTZ39BF19IS8MLPb8aPijU5hJWoQetlh1RY6o3qqFBJZidAdU8UXW3/ABdtLLAh54cQqsC2Tj+N+q8a0ViXkeed1phG4fnYkCVtCXlqcXwR4PlDbiEYI3d44VJh3R0DKsFZEci1CXnAGHNvLkQH2q3pR5fUI3SnOdc9wwSHL9rVGA22E0GO0GTHKaFObrwlCd8hZbRh0Rxnfrk2cemiC0JVuq7hB4wEcUm9OhSlahhoidCvypFDf0pAPKG4bu0eyMUJ3tnrcm/UZQebMdYUlRK4aJHS1XPycOVSZEgCBuT7o6Uy0NdQsoVuRzmLgQlZZQcqYO/8snKbPVDVN6ErSrY+9iaguEJcxUuzDuHE8ngmhK6OnXw+2l/hXLmuyILv/S9kcrnqPzUkqNoSejPlMt072F6gYeV0zkd0rQFPRl30a67M5u/N+7Ag9CYYkaUvrsrWnSnCbWigsKlN7e7B0TZOMZuxentgSRvIvvhcMLbwXUjOCX7zks19D2Kb+CN9ff4Tvrz/C99cf4fvrPz6RMJnniw47AAAAAElFTkSuQmCC;imageBorder=#dedede;" vertex="1" parent="1">
          <mxGeometry x="150" y="250" width="80" height="80" as="geometry" />
        </mxCell>
        <mxCell id="9tC2t4doHbZ-rZqAeVVs-8" value="" style="shape=image;imageAspect=0;aspect=fixed;verticalLabelPosition=bottom;verticalAlign=top;image=data:image/png,iVBORw0KGgoAAAANSUhEUgAAAOEAAADhCAMAAAAJbSJIAAAAnFBMVEV9vkL////l5uXk5eT4+Pju7+77+/v19fXx8fHq6+p5vDp2uzR0ui97vT7b686o0YduuCTG3rfr6e33+fXn5uhuuCL9+/7t9Ofv7fGby3V+vUWu05Px9u262aTS5sSOxGPF37Lh7dmKw1eizoCWyG6OxWK22J3Q38W82qWr0o7I4bbf7dXK3ry71aiEwU7d5dfX4dDl6+Hc4dmvz5kgzPpwAAASQUlEQVR4nNVd6WKyOhAFtWqzKAIi7vtWrV97+/7vdgMuLElYJsHa+eO9+SxymJnM5JDMGKZpNmq1WoN91mu1N/bxVqvVY6M1hVHX9UzT+Tp/fh676/nqYlxltFqt193jZ285MFu27bLvNtmftqIrtK9XiI2+Q0eNihAGd+19nX+GK2JhjBFClFLjLuy/2QjChP3jfD09OabnulUirNfqAoSA0fv92fa/2XjObp8BM3KEYSV9Y/hzrnn8/bHrCu661KjRaDRab29vLfbJPtrso80+FUY9b/CxNhi4XGxJnNha7TpN329ruIf4qMGghsqop1QEHZ11S6OLUBKyOQxM170pox4qo55SUclRQ+xQEJd07dpsSAgM3QMlti7HvS0wWKhL6tNh6xzAU0EXqdLYDfTpUIu1N/zlEREl5aVAWttFy9Pjh1rm0t5Fi/YSIDHpLj1Xw1yqHA9tZ0c0qi8mTJE939UTD+tXvdRvblavFx1t2/+tLVwFvFAoGf2Ez7N+c7P6VS/1q7YKjRoAWI/Rmr1c93WbZwojJj/vbmlYsVGVaGH/21jV4gsF4x/FaAGdXiZrqxL3E2BEPdODJnAGcCL2mlPt06dcKLns/TYscCSjRfEw3yPVzS9ijJsJLPjDosVgS56KLxBkTduu8uqpkA7dxu5ZDpgUPDrbAB2WtmtvP3qugUZCrXWrXdoPS86lbfP4Owq8CkJnu+xcWi4e2v8uv6XAm1jr93I0R7mcxp/+pgKvgkb/yuU0JVI119w8fwrlhfanfpm8tHi0sL/o82J8ppBhiRVH8fWh/fn7FnoXNPounMAVXuO31q9goXeh+OTp5drc7+0vz6FpsaZ2seBfLFq4/41exAUjId2C0aKIDr09fhkXjIQMtXFt/r4aHkZV8Haih2uzz9ZvY5EIGmnh2uzDqwJkU6rhaODapq8UJdJCkZOb0+TMNPZLAwwg/peAlTTYAlzbK5voVSid5EaLjFTN7706QAbx4sC5Nm//+gDZjHoJE7g3IYq3TK7N3b+2D94Fzd2MBC4jWrj/XjGTEQkeFl49JXT4PfojAFkCN4Vwba3tyyXbcrF6fmmuzV6/2HIpW6wvXzaXSuKh/fk3Zpm7UPQti4fiVM39+gtxIi50ZWZxbfxMo7Zn5DcEd+0S0cLf/KFZ5i7kLGLg6sL1of3zt5zwJuS/olxb+19lThjsSazM/unqkarlcW2Xim4CkdG8u17hqkgR/GMXWj15x2oiISLHgRlKZ14RRuvLLcC1uadKbJRam4n5kFk17yDpin+FKvDDStJRclmaCTlUstEB/3j5XNuugqeL8YeZFqfbr+BRWpP321wqjYcD/TaKrDGHL5DlVr870rmfx7Vtdf9o0gGTMqPaDYZ8uplcm9fTHevJqCPDF8hU+744nP1mpqkZIMKHLHyBOw41v5bEuwChlGubarUaZB2bKUCT+ZRzx4vex9qfZHBtE52/RclmkEYz7lNMObOdYZ0PFg09KddmrzU6BblwSBYoQELJnEO+07mN0/oyJdGipjHjRniRRnFa3S2EWkcnbb1DfZGDzk0J12ZvdP0IJTkQEMp4AMpiLcVcW3upSYUCM/SO6SRNasQ6bmDrC7k2XV6IDe7ePwT3zjIBfiLSlKySvSuKFv/1dVwcWVwEXErsj2VzvC1riY4sdxNwbVpUSPvdMjeN+Iz8pCU6kr2Aa3M0eCHZlo0D5HLi3FGDqbKYyEeLnfJ1MZql73aWux2cuWNa6+ZRfV1FvnmuTdU4kLUr6oCpP+xzi6vBRtUd0dFOcW0NxUUFtYacA66LqkKwQO6ouiNuX0/VPbg2X2ldSMlqmb7HUusijuRQdkcyS3FtS5VHhg3eAUuubam1Tq+THaUd5UHqluDajvAHhgjvgAC6EFncumqgwjpagzjX1m6DAYocsAt7+JhyptCB0xxo7Lcirs09Q42UrLgU7YChj4uSLeeOcNaR1swoHtpDmDVgxE2CalyvyB2hR+TI2YytnkAqpNYuTVIMlAlCkTvC1lVobd64NjaXziCXwNv0424CHTB1Xd4dZ5DnRg07WlsMAbYebmJJiI6EMrw1Pr0dQK5Mzu4DIUCF4XvzuHQMfXQStdJLFMjqPMjcblwbxEj7SRMdbPXSnoik3HFc/vnRUfvGtXnd8jaAugkHrOBAGx4l3RGgBRb0r9HCM8rfHol7ii4HTEqK7gGoAS9u0QLyuolEP61nVS6SBOs4A5jp5sq1tRegv72J9vcOCYnRrhA94CvXZgNiBXqEiqpPC/XvWWETYmn7MFrYADeMJhpgNSEcVMFiQgjBiGZcBPcUEKKdbxp1F8LlKyCkDNt2fJidlgMmy1PnsNsEhZckX38ghDBldO4HXBvAhYsgDIqYMUlRUci6HJYmJ5PZWlICRkmHBvGCaDEGTPX5CMk9IzjEINL+UADvPlleRBgVES6DaAFhaAro8P6FThRLBHRqEqPBP2wlKzXwh2s0PEg0y0dIeYQ83cgJf1BVTYfo6Bvu17MQWj0OEC/cISQ1hCxuG+4ZEtAACEkRgKa5S0FUs1KWexnuDySnLI8wmapnSCr/UNOhYTmGB1n9AhCSJOHhLGfnxeHwMZudUivB1IYXVR3uDXMFyUpKI8TxWWY5vrBk5houWWpDN4s4/EPCbRQR4k8D9kamNEIrWjBP5lZqnzDFiWk2cUeKVorGBuzRlEVItxFA4QtFEn0hyb8r6hCtDVCwKI0QRS/QJFusY8RWJ35LijqkQwMULEojjF6fSSkl60FaNOMbChQRGhfj8ykIyeP2pcvtGHkXV7OilTL5BFEspRE+3tYfpE/UeiSt8QCmqkPDgL1Wg+uwI/X7yJLHWhHC9pjA/dCUvoSIuJ+NVitdg2iI0nNpjN+dymoNI7oKZSSMFmAdzp+CMBYPg6EgpxEVjKZXiQ+p6xCUtJXPaUgq+3ROi+MWWTk0lKED4Qj0V2p56UMmnY/xZkXECr2KupU+CSGnxCTQw5rZrXDOU9chTADrwy0HLAVz1hXRbeo6hAlgjc+/UeWls+G2Uf0hhAZeSc/ORDKY62UxwALi2mg/n2wz03sK/pIOmQR11nMhLnWugMECRBiw+vQ4y7HWxBHPPxMPY/+AsIXnx0VnII0fejPvFeivFBBe//XaY2a12S06vEaduGH/laxN8qUAqUXnu06Sa4wp8a+sLUQ5dey7iJBhfOdFbD7VsD58CkK8DSVjgxoil+jFVExf6joEbOIwSiN8vEzMNNnguNJNdOoQ8n60PML7/0yybjPa/hDjotQRPoWJinbfZDF79PL42opHCLbS3jPYxIjTz3oPFEOoU4ewTfpldfjwsKxNghEVFVO1OiMMqzBQEmHsQGkGaRGd+9Y3l9KhYYLO5JVEGNPOUvp7NKIB9MVD1DW857D6UQ56kpylQbHtjvpyGvxp2CA6sXTEjx37dbocYUopTtSWEGXeQIQzwwbR+qWzNhRPPJu9bkCwPaQ/2iziO20+YnalaKVkYLjT5yDkNio4y05nz6RzGqTONDQ1viG1TMM8PWc/DeGOGEhlo5PV9w3TgUymkP00y4IAxxpZDDS0DdgOUcj6sF9sy1BX524TNHWNpgc58wTb11Zg09AkvedYcW/i/s2ogTZFwdb4COepccex3moIrW+TIYRUC4ayGARP5UTbYCc4+a22R9jww1NBleyClvE02Nru0hu9Ag2dDivhRhu1fd5rhrDV8gBklAoTRRGxLpvxYdbpLJl0ZovdemURSVlmoqJDvGi0g628gFoD4dm+UFaSP85hE0M6kdw368urRWI6UUBoDa6ngrLIE4lEi4WJ5DRyITYx92dihaYGgLsc3U4FOYB7wJELzYRlZXQgtObxUovlF0HMl65nSH1AbaFEhrITFE9QR0hGiaIgkJNdn+71hKUPOPiEErUsJlwdi4hzASJEJFVnCXIo6L/bGdI26PBacsY/pY5wR8wgCCHlKr0BKsnR1e0M6XvbAxT0RPPkHZiHRDgjj01QkFN1fKEpwDzDklL//a0ZnlZ3Iatgkq654sROcrNZDP7w06dHAzeANDEItgLeKg7A2jwQrnTO8t6eG9NIB2U3zolKLc4gAMPtnPeKA++AA3riqnNrZBELxStclbsyf4qbWegQRrOFjZLrRptJywOWUBIUXTMn3wkfKkUhiAoOOmNgxUEyCLHd6tNAK8+Kiq4lpYyRChwQXqaOzpP12sAlhhBfQDCh0eIqFFR6Uyk1iD+S9drkm5Pz7ywdm+NSuEA/c0Bu5ahULhLH67UFBb5VTpyL3PEqhfthCSrTmFAHDAWt7bA+Te2OEFJXIRJRMdZAiraLwph3QFGtxRJC9m6qXpti4UtqrXmM3WIaRH2uJI1y6V16edRrazabrff395anWuYaWZukInqokFmIiu6plzHA57f390az2Xh/VLt2YS+DE/dK0HE28NjVvMFsjArNElRQqY2txtQrHIZFdZO9EXwdxR8QtkIhBathYcTzizrqJuOf4EGneiO4eitdPwQRaXVIxGXvRWst5sm9XUmgwxaTILlptRpVlChBLMw54mmRWkM+AkILe6V+9ei1r6Ba7Xil5B/dSqT4HsYF5XPJiqtcak41Fb3uO5Jq13oRUrI6PJSUTk8wXwxaXx8BdJT0RnC1KpGmWiLEU0xBBWGdvSD6TrI3wr1SMktydPbxie2/uMnHTUfMAfk1kpZSb1dBY/vaOeCd7xygtfcD4ksEh+4oymK19mQhjYw+pFr7IAkmy8mwL2jIorevDj6Yid4ILGNrs8ytzT6bTU9zX05BEcQOT1Lo7Y1ER14jSEMZKJa43bi2qLMchP7OFEERxOocMBTSc7M66bQzN4BCRES9xER7qTc6t3P6kOpvhkQlrYICkx1pz6PIPzfVHfCW3TySnHYFDa1E7Z7MsHyE/p/68R5paCvOtUV9SOEFd7NEUA27ilqLbOGbbA0s7EOqtRVL9NPp8rkLcLXhLCH7EGFOH1IHRIDnCiIxsvCk3wEDwUdb3If0nnlf1dk+V3RKDF+my4kzWS66FdWSDN8HvT+6kiW5tkTL+Ers1LiW2wt3JlRz+bC/TLE+pG41dlq1kIi6iCO8c23s85HAvf3T0pDlyYLm/iNVu6ahSa4t3oe0BFf9QoJjC/vsPqRh6ydQBbBfFesk6Vot1mH9z7liWDs6rcMU19ZKJHCQrQG/KHjoiVCkuLZ6wmA7f6n3OF0lU7XcvtxhO8s/NNtQ5CSdL6sPaZTA2QVfHb2ABHvQEqmalGtLJXDDius86xKr46dSNSnXljZY2ebR1xKy4BIZOdeWnnSq6kGuU4I1C4dQxrXxCdzrh0UyNhOpWjNI1eRcGxf8nera2esRsvMEqVqhaHEbfXGIZCdM1bK4Ni6B+++VDTVopiVK1TK5Ni71cS4vO6OSsSdO1bK4NkEC97IQreQbCoE6c+PhbdSZv2ToJwup82VzbYIEzh2+XgJHrY48Vcvm2oQJ3Mul4ZQu/Rs3KEjVcrg2ocF+vNZiCq+crFQtj2sTTTr+vtgmrucIGQqwJCedTK4tncCFCZH/XXVLmeJiTb3YnQlStdiojKcRjnZfw1IRPglZNT5aZHBtYpe0z1rfRwOFzB1xXCjHtUkYuO/Vb1sqtca+KLYLdRgilHFtstGf31UjHi29UvebwbVJRu2vX1QjJUfBrClQXJnVk5l2VNf+qbIPWZbgy94u5nzFuDbpqMcVGX2KUPLjulxSJk7VinJtstF3v6dhH29ZfPMv75qUiVM1WQJXKlpE33V17MUuI+Rytl1RyiJO1YpzbRmjk0rbAiYF4YPnipOyfIQ5XJswgbuOel/z52BE/XHDbAjvocBoPk8jGQ3nn+Wq+uiI+kfHFgd0eaqmFC0So95+XkkP0ofgsFFnsbgA5dqyR117P6wMI8V4WrvuPhAnZdJUrRzXljfqfR9xFcaKyKXX8FTurDDXljtqv83mms4R3IWpb7333/JVpIdrK+KSgzHSZq0UkfmHabtw5yvNtRUZbdfOayTpPlIKHrZWPwOzaFKmjWvLHw3TpPNxZEHOzj+Uh8lqOnikX4/rJpIy8agy1xY5n8hg76Ou3R4sNhiiyqCS+ajb+/Z9s0zKoo9rKzR6x73fbbAl7zvCCULEGq2D2oluIf6sTAJXnGvLGuWSJ9/3lr3jhuQ1kglbH1vGcLpnf9KAJGW5o+V4mnqJ0ZrLzM3pfI7Xw4sM4GXYPcwGpm+7orhQKCnLHf0frZaTQkTSmpkAAAAASUVORK5CYII=;imageBorder=#dedede;" vertex="1" parent="1">
          <mxGeometry x="390" y="250" width="80" height="80" as="geometry" />
        </mxCell>
        <mxCell id="9tC2t4doHbZ-rZqAeVVs-9" value="" style="shape=image;imageAspect=0;aspect=fixed;verticalLabelPosition=bottom;verticalAlign=top;image=data:image/png,iVBORw0KGgoAAAANSUhEUgAAAOEAAADhCAMAAAAJbSJIAAAAllBMVEUUhsD///8Agr75/P0JhL/Z7PVQncsAi8Pv9/t0r9QAgL19tdcAg78gkcUAfbz7/v7m7/bM4u+lyuL0+fwxlcePutoxlMeGwt41m8vX5/Lh8PeWw9/Q5fG42etlps9Ios9xtdis0uehzORkqtKGvNuk0OZ6uttFmMmTxuFRp9HD3OyVwN231ulCn84mlMegx+FqqNBjr9VrmussAAAP/0lEQVR4nO2d6ZaqOhBGIZSCERDE5jgrztDaw/u/3GUUZUyACN7V34+z7O4jZpuhkkqlwvH/d3FtF4C5/gjfX3+E768/wvfXH2FjGgnPGr3qg1kTCoakaZpjXU5be3ObTL6Ur8nktrF/TxfLmWuSZAiMS8CQUJDmM2d3siecqmKMEcjgivP+kQFhhFWVm9innTObawwxGREK86XzPbiJLpjLxeXJZUUYi7fBwtHnjChZEBrL6+d+Cm6t5bM9cyIM5v7T0iUGpWmcUHAWg76ISOkeMcXzYLFqHLJZwpF+WZscNV0MyZnrg9PsMNskobRz8Yq6HYlkzuxf5g2WqjnC5a/IuSNlLbywLjlx7zRWroYIBUtRUQNwESOo4rGhsbUJQkHbfeEmKu8JEiuXRsxkfUJh9m02zucLKZdZfcbahLPvKWLC5wqQuVi2TDj/3jDjCxini16LhIa1BpkhX8Boj2vNAuoQ6gORNZ8nuZ7tqE4oHUyW7fNBwCmn6nOAyoT69EV8gczViwmNrfpSQA7U34q9sRKhMFPwS/k8YdGpZByrEEqXRqaftAL4p72GcLZvg89H3C/pV1bUhMK1X3N9VEPy2TJYExoL8xU2MBdROdAOOJSE0lZsrQJ9Aben7Ix0hNKmVTwfEc50E1UqwnnLFRgIOCpEGkKda7MLxgKgmeBQEK46UYOegMbFQUwoWEpXAD3EHTEiKaEwftVKgkigfJMaRkJCYdeqGUwLxAshIiGh1TFAioZKRrjqUB+M5CI2R+h0ZhR9FIhWU4TzVhZL5QKZxNVIQKh1sgY9Ec1uygmlTVcBXcRzuYeqlNAYtI1RqH3pYqqMUFiIbUMUCbhDmVksI7x2aiqTFijjErNYQrjsd83SJwVnvQ6h1JbTiULypnjRX0goXNpzOpFLPhV2xUJCve3CEwlQ4YK4iFDqrKlPSC5qp0WEvw3GHjAV2lQjXKltl5xY6rEKoTR5kzbqScmfoOYTHtouNZUGuXY/l9BR2i40lfLXinmE0r7tMtMJ1nmrjDzCcacn3GkBt6Aj7Nldn48mBf2cBX8O4eJdTGEs/JE92GQTLm9vZClCgZm9yMgkNN6wCt1KzF4MZxLOOr7szZGSWYlZhMLi9bEkTQhlLqOyCOcd9HCTCMQZIeGFrArZfA11nopOZIQGibEHrIoKC4kqrmyKATJ8ixmEu/IqBDw5agIbSSu7clA1+kdEWF6FIFaOFCTSclOxsQImIXRKF75Q4t2qL2lYERGnd9zShHbZs+U+a8DqewlwKycsj5lRmjvPkq95tUkHcCmrnyL8V/YQVLpTUEPxowlNVgpxWEZo9Eu+OxAbq0Jp/BHrU/ciWob3wDyj2tQYzskulCRcmWWP2NQ8/xBrweFYaN1zPxzjex1UW96kt76ThKX+JzRobJz5eawmMFcuMoAS/XVbcX2TbKYJQmldNqFAw8ZOeR7khzpU+3N+pWB1G/31X8WO2E+0sQRhaSNtkpBf/Yu18x6rby/3P1YlTDbTBOFnaeNvkrBQFQk5+CgilH5KG3/nCeX1czN9JnTO71+HnPI8aX4mHJdPB7tPCN/5hMahfIQOCec9hjJqESbq4Imwty9ffAbvF+w+O+31enV4W+YS6gS7MSGhgoCVkOnPCytOTFPzyifCK8E0IiKs+PEkMnfL5bJ3quyzxeM8QuNA8LW9gJDDqqvqTmm0lXIINYJu+BJCkD1Vf/ttnkM4I9nXfgVhf+2pdAKZp2e/6SPhkmS9wp4Q+rpguCLw+eUIOzmEV5JHsieU90Ejm1WOBcGPQe4PhAbRdgV7QjQIfBla5Z6ItkYmoUQUIfQCwnBxoMWfQRleJ2+kbEIivwEjQhAjRzfIn2F57ufhZY4ytYGiZRJqRMEJbAjVrbDz7AMAVqfh2sD4J/pGEfB5OetTDTsoh5CoZ7MgBPB8F87EbYzm8dFXudwq7u+8WO4eVSivqmcS6m0RAhfsivX2/VR82vxkBrstvTI356OwlUloETUEFoSHcHCXsnzNkfXula/O40LG7p5HwgvRTJBFKy2J1A71S0F4is/tx4Qjssk8A0I5cTy751jj8fiayMBHc4QVfmOTHxMKZAGzLOoQPXpxVwd3RopVLJ4H3w8+pSVFI3UNYiYhWaAXm7H03m/mAxOp3HT/a3+pKtffRT1zTnVqAKaZhGQJZ4oJg3XPw1d1X7knfpV8X+h4WJ0B3yxN8jQ7iCoX5mwRPuimNUomIVlMcCEhTDe+4s2/ydTXl6hGcxbF/8XzZwEKSmQpmLPilqltAYXtbUG1KQxiJiFZwyskVMKl5zUqz+S+UjOsm18NgamSnm1vuDm9UtD0OfzORZ76L8o3VJ4kZxKSjVVFhPd9qWVkniePhuDkFRKPvYE8MX8KvvJeH9+SzlhLUQ/+ix3V0QjMinAcmiFjGH7jz/GCGzmbEPkQwicy00FNC+D8PjqnGUs5NZOQrKUXEfo8mvf3cfh1BXWo9TQfXceZhIB9sOUZH9MJdow+DPwXg/qEZA29gBANvG5orfjYevnMo8tm4ETNJEHobSGC3zZHY9yPPEjGUr+bwpVq+q8tBXnplusQko3HBYTBhsHWa3Kj4BsHvw6FLcbBuyYpws3h++osvfJIA/U7LNds2D/3o6QJIy44li45jrUYErbVbMLa/TDwVStr799L8LSQEOFBJiGI+j2fd2/KhQ6knu0lxuYO4R/seMpjSAuylsaGEHwPkqT6p497gUk0A0I12JhNtVLgYs/mTAyHJeHbb4v3qOZ/6k/cPcd1COvaw8D7YKnB/t06rkPeOQa9qqdyBYT4Foyk2h4Ffwunckd1HdsQQsJse/hVsw6DxH/u/N1vXjsuJoxkIxLCcAoK4qIyIXAs5qVyUI6zIg48hiB67JFw5B+GK2ilk2ByGsbRQ7SXe1F/4vIS1mH2rG1Tc20RmO3VaqX7j/cfF1t8Y77zDW6CMN7q602iXbHZTfbS7w/D3mfHUURuHyWrw0n2+rBeHSa2z/mj5xQJ6nDmONdF+AUmrMVgfHX0nlceba9GB8/1wUQ5f0RNUww6pLH0nkLmrYFbJiFZEFIeIfQTU0rJIwzHUplD0dIiQehacU6x/UeOsR21WclZ6dH46aimX9GrqQiYMHoY7CxCwm3lXMJUUKDbr+8WPy5YetYGIAezNhOuyWe4vXeD9v6LLcWsDW0zCcn2enIIgfMbae9yuFwOO78uvG3qyOLH/zFr5o2DZnjAqcBCb0wGv3tKNDNv/BDv/UDo1KpDxW9VF99vrvh14TVTk4gQvvyvfNnHdnLq7Zg4iHSzaFZP+MHv+kBItpuVQ4iCcgzcUdBdK/iWzBucg7G0jDDy4FoiTpzKdiZY9KGNHyqf98MG4tO+RY2dGbziBWEUOqbd+Zt3rsBt9i6hIBjPhIb7H1M7CGGTFLHyECoiXTisBAPYkW4BnL1vIRGZ/Lx+GLhjwp/EL++nifvKf/FYOvD9NAmfEODQbh5NjH51STIMQ9KsqcqFxwKEDyonhphDWBqlX0CY8KDFP6U8a0nXmyf5fpxHX4sqNn9Ph+FGVOXzPSi616cAhEdnyOMeMEmwCRN/Kd7Hg7thDc5+uAlS1p96PPA4FIEL6Deb0DW5JO9m4NV/Dus19Ov48/NzvOo9DawWuT8RL7L38X03SqmaJwQuHf0/yjjTS+71xo8zh6d4GpJis9hdi47yZB5VjhqcRLyBCFxePM2cZHXBZJc7QNSG61RtCpdzYL21NfHTYPrY6h8JpWFbkXvIQ+xt3CF287RCkS4mJ/s7xNqaYm/tabfuKTaRZBeYUaTCkV+JyNvZUeE3tI3CceqvJQDZ8/maIlIBPQ40z4QkGSAZRZug232olEPvhTSNqEChSi4K+fGlM4KIGlYRQ/EnZ0QM0T1pkh8jTNIRXxATNQyjvqpebraf5xLy4/bqMJb8EwwUVSP30KeQT1h+KOgl0ZfBYE8UKpnxdvHZU/BM2Cvfh3wBodgfeKLaTnt4eyKNS+Lc0wfhiRKmMcLprX8aRcGbOYTlC82IkGFiCfCP61X8AOCej8wkCcujx1Cwi2Szy+8C58vxeLQqpr5N5cJMniEdlj1Btv1xwGGWMzLK+FTxtiX4EYoJy11age9duCgyYiJx6BsLo+pImsyIlSQsDwgIU/kIq48BCw2tYLlU9bS6mTyInTqPX+5avqfyMSQGir7pqmmO9kmgFKFT6ixAa/ZZI6SqWSM4q5SQoIdDeYrpuoCHqslNzJSfIE1Ikp7mzDY1xnJfNdUQTmcZShOOCLo4cPaKVXaM0epXrGyK1HTrysjAcyJBlLEKIgtxqlr93k9kp3EyCOekF4ZXLQe7p+KM3IlZub6275muzdv6zaDJIlx29D6LUslZA2AWoTF4z0pEdpYVy8yb2M1bV8oEXEYYQA6hNHzHSkTZt+pl5y99szTJvnKqMIfQeMNKxDnJj3Ky7OrvlK48UDImq4SQ/2y7wNQa5kwj8wipjvt1QPlXleTmZKc739C28tN55xO+WVL2/FyO+TcHLN+oEsOoOkrC6gliXi+8zccoIByRBX53QWLBcrzoFpZl5Wy3L5Za5FQpvCuoenaRlwpnZA8mJDRIUvK0rqcsGJSE/OzcfUQwi+95LCYcXbufnl20iq+WKybkDbrzt68XcGXXyZcQ8hLVwcbXKxF4UYGQn3d6Cg7n0stWSwl5vcOXXZAkhy8n5FedvSIQZIJLjwkI+WNH5zZQbOopCPlDJwkBfkkKT0TIn9qmyRDAttgQUhEapSEaLxfAgGyflozQu46hW3IBCffaCQl5rVuI5IDEhNUv1WAh4Mhz3xMT8sapM3aRuA/SEXrb391ABPxLNIrSE/I7uROIMomhr0bIWx1YLoJ4KS9oZUJe77c83oB8pryJiZKQ71UO5mlI69LlUk1CXjso7fluQByWLXjrE/KGNWkLUTZ39BF19IS8MLPb8aPijU5hJWoQetlh1RY6o3qqFBJZidAdU8UXW3/ABdtLLAh54cQqsC2Tj+N+q8a0ViXkeed1phG4fnYkCVtCXlqcXwR4PlDbiEYI3d44VJh3R0DKsFZEci1CXnAGHNvLkQH2q3pR5fUI3SnOdc9wwSHL9rVGA22E0GO0GTHKaFObrwlCd8hZbRh0Rxnfrk2cemiC0JVuq7hB4wEcUm9OhSlahhoidCvypFDf0pAPKG4bu0eyMUJ3tnrcm/UZQebMdYUlRK4aJHS1XPycOVSZEgCBuT7o6Uy0NdQsoVuRzmLgQlZZQcqYO/8snKbPVDVN6ErSrY+9iaguEJcxUuzDuHE8ngmhK6OnXw+2l/hXLmuyILv/S9kcrnqPzUkqNoSejPlMt072F6gYeV0zkd0rQFPRl30a67M5u/N+7Ag9CYYkaUvrsrWnSnCbWigsKlN7e7B0TZOMZuxentgSRvIvvhcMLbwXUjOCX7zks19D2Kb+CN9ff4Tvrz/C99cf4fvrPz6RMJnniw47AAAAAElFTkSuQmCC;imageBorder=#dedede;" vertex="1" parent="1">
          <mxGeometry x="510" y="250" width="80" height="80" as="geometry" />
        </mxCell>
        <mxCell id="9tC2t4doHbZ-rZqAeVVs-10" value="" style="shape=image;verticalLabelPosition=bottom;labelBackgroundColor=default;verticalAlign=top;aspect=fixed;imageAspect=0;image=data:image/jpeg,/9j/4AAQSkZJRgABAQAAAQABAAD/2wCEAAkGBxIQEA8QEBIQFRAVEBIVEBAWFRAVFg8QFxEXFhUWFRMYHSggGholGxUVITEhJSkrLi4uGB8/ODMsNygtLisBCgoKDg0OGhAQGislICUtLS8tLS0vLy0tLS0tLS0tLS0tLS0rLS0tLS0tLS0tLS0tLS0tLS0tLS0tLS0tLS0tLf/AABEIAOEA4QMBIgACEQEDEQH/xAAcAAEAAQUBAQAAAAAAAAAAAAAAAQIEBQYHAwj/xABAEAACAQEDCQQHBgYBBQAAAAAAAQIDBBExBQYSIUFRYXGBEyKRoSMyQlJisdEUFXKSosEHU4LC4fBDM2Nzg7L/xAAaAQACAwEBAAAAAAAAAAAAAAAABAEDBQIG/8QAMBEAAgECAwMMAgMBAAAAAAAAAAECAxEEEjEhUfAFEyJBYXGBkaGxwdEy8UJS4RT/2gAMAwEAAhEDEQA/AO4gAAAAAAAAAApbu1vA1bLmetChfCl6WpwfcT/Ft6eJZTpTqPLBXOZTjFXkzazCZRzostC9SqqUvdh3n44eZzPK+ctptN6nUah/Ljqj4bepiGalLkta1H4L7FJ4v+q8zfrd/EXFUKK4Sm2/0q67xMFas9bZO+6ooLdGMVd1uv8AM14pH4YOhHSK8dvuLyrVHqzI1suWmfrV6z/rl9S0lbajxnN9WeAL8kV1Iru957xtlRYTn4suKWWrTD1a9ZcpyX7mPAOMXql5IE2us2Cz5522nd6XSW6SjK/q1eZyw/xHmtVajF8YNx8nff5GiMhlM8HQnrBexZGtUWjOw5NzvslfV2mhL3and/Vh5mfhNNJppp4NYM+fTJ5Ly7aLK76VSSW2D1xfOL1CNbkpPbTfg/svhjP7I7iDSch5/Uqt0LRHs5++r3BvisV59DcqVRSSlFpxavUk001waMqrRnSdpqw3CcZros9AAVHYAAAAAAAAAAAAAAAAAxuWMr0bJDTqyu92C1ym+C/csM6M5adjjcrpV2u5T3fFLcvmcqyhb6loqOpVk5SfktyWxD2EwTq9KWyPv3C9auobFqZjODOqtam436FHZTi8fxPaYApJN6EIwjlirIz5ScndkkEkHZyCkqKSQIAYAAQSyAAkglkEgUgkgCCDM5Bzjr2OXo5X07+9Slri/o+KMOQczhGccsldEqTi7o7Xm/nFRtsb6b0aiXfpP1o8VvXH5GaPn+zWidKcZ05OM071JO5pnUs0M7o2tKlWujaEuSq8Vulw8NywsZye6XTp7Y+q/wA7TQo4hT6Mtfc24AGaNAAAAAAAAAAA13OzOONjp3Rudea9HDd8UuHzL/L2VoWShKtPXdqhHbObwS/3A4xlG3ztFWdaq75yd73JbEuCH8FhOdeaX4r146xevVyKy1KbTaZ1ZyqVJOU5O+UntZ5lJJvIzysgAkgqIAJIBSVFJIEMAAAZBJAASyCWQSBBAAEAgEgAIhNxacW00701inwJKSSDq+ZGdStUVQrNK0RWp/zoraviW1G3nz7Z60qcozg3GcWnGSxTWB2TNPL8bbQUncq0blVjx2SXB/UwOUMHzb5yH4vXs/x9RpYevm6MtfczwAMwaAAAAReSa9ndlLsqXZRffqXp8IbfHDxLKVN1JqC6zmclGLkzQc/cqStFoWv0EU1RWxv22+L1dLjWkzYrfZe1puPtYwe6Sw+nU1qMtj1Namtz2npaUYwiorRGW5OW1nomSUEplqOT0BQVXgQVElKJJAkpBDZJABfWLJFor66VCrJbJaLUXynK5eZlaWZFuktdOnHhKpD+28qnXpwdpSS8UdqnN6JmtkmyTzGtqwjSfBVF+6Rj7Vm3a6WudGSW9d5LrFNHMcTRek15k81NdTMWQz3+xT+Hx/wT9gqbo+L+hbzsN5zkluLUF19gqbo/mf0H3fU3R/M/oRzsN5GSW4tAXn3bV3R/M/oPuuruh+Z/QnnYb0TkluLQgvfuqruh+Z/QfdFXdD8z+gc7DeiMktxYmTzcyxKx2iFaN7jhUj79N4rntXFHl9z1t0PzP6FX3LW3Q/M/oRKdKScZNWZKjNO6O4WavGpCFSDThKKlF701ej2NJ/h1aKsITstbRuj3qLTv7r9aOG/X1Zux5etS5uo43vu7jVhLNFMAAqOwczy5bu3r1J+zfow/AsPHHqbvnJa+ys1Rr1pLQjzlqfle+hzk1uTaWx1H3fYji56R8SowGXrLoyVWOEtUuEtj6/NcTOlFekpxlCWDVz+vM1BNOxqsJXlaKK1JwlKEsYu7nua5rWTCR2mdtHoSU3gkgrJKbzbszM1ftF1otCfYf8dPDt3vfwfPljxWrRpRzSOoQc3ZGOzfzZr2y6Ue5Rv11pJ3PfoR9p+C47DoOSc1bLZrmoKdRf8ALUulK/4VhHojNRikkkkklcktSSWCSNeyznZSotwpLtai1O59yL4y2vgvExJ4jEYuWWGm5fL4XYOqFOiry8/o2ISkli0ubSOY27OG01r9KrKK92PcXlrfVsxUne73re96y+HJMrdKVu5X+UVSxy6o39Ps7FGaeDT5NMqONpXGQseXLRRu0Ks7vdk9OPhK+7oTPkiVujO/erfL9iI45X2x9f0dDyjkWhXv04LS/mR7svFY9bzUcsZt1KF849+ltkl3oL4o7uK8jKZIzxhNqFoSpy/mK/RfNYx81yNpi00mrmng9jQk+fwzyzX14MZi6dVXicqUStRNpzhzfSvrUFxqU15yivmjX4WfiPU6kaiuiiScXZngolSiXMaCK1A7uc3LaNJnoqR76JKiFwPJQKlE9dElRAgWSs6VSFSOMWnzW1eB0KlUUoxksGk1yavOfaJtmbNo0qOg8YO7+l61+/gJ4yF4qW4voy22MyADPGTTs+7T3qNLcnN9dUflLxNVMtnTW07XV3R0YrpFX+bZiD0eFhloxXZ77TJryzVGySSkkvKjFZdsulFVFjFd7jDf0+TZg0biatb7L2VRx9l64P4d3TAlFkX1FEZFR4plakdraDNhzQyH9sr3Sv7GF0qz3q/uwv3yufRPgddhFJJJJJJJJakksEkYTM7Jf2ayU4tXVJrtKu/SklcnyjcujPHPPKjo0lSg7qlW9N7Y0/afN4eJgV5yxVfJDTRfL46rD0EqNPNLx+EYnOrOR1HKhQldTWqpUXtvak/d+fLHVQDeo0YUYZIfvtfHYthl1Kkqks0gQAWnAAAADO5s5xSs0lTqNug3hi6T3x4b14ccADirSjVi4T0JhOUHmjqdkhJNJppppNNa008Gmapl3J3ZT0or0c3h7s8WuTxXU88xMqtqVmm/VTlSfw+1Hpiub3G0ZQsyq05weLXde6S1p+J5uUZYWs4vhbzZUlWp3XDNK0SdErUd+O1bntK1E0BU89EnRPTRJUQA8tEq0T0URogBRomWzbq6NZx2Si11WteV5jdEuLBPRq05bpq/k3c/I4qK8GuwmLtJM3MAGOPnLcp1NKvWlvqVH+tlqVVXfKT3tvzKT1SVkkYr1bAIJAgFnlSydrT1evHXDjvXX6F4ABOxp6Mlm/Y+3tVnpPCVWOkt8E9KX6UyMs2XQnpr1ZvwntXXHxMv/DinpZQpv3adWS56Gj/cRWllpyl2P2L4LNJLtOtnMc6LZ21qrS2Rlox/DDV89J9Tp05XJvcm/A445N63i9b5szeSYLNKW6y8/wBF2OlZRW+/p+ySADbM0AAAABSSQAAAFxk61ujWpVV7E03xj7S6q9dTrqd+tYbDjJ1rItTSs9nk8XRp389FJmPyvDZCfh8r58zRwEvyj48ehgsp0dGtUWxtSX9S1+d5baJlMvR9LF76fyl/kxxVRd6a7juorSZTok3EgsOCCQAIABBIG3/bEDXu3ZAh/wAyGueNQmrm1xfzILjKMNGtWjuqTXhNotzeWhltWZAJBIEAkAB42qgqkJQe3B7nsZP8OW4ZRjGWqTp1Y3cUtL+1nqUWNqjbbJadiqxhV4Rn6PSfJSu8CutHNTlHemWUpWkjqlSN6a3prxRx5K47IcrzhsnY2qvDZpuUfwy7y+d3QQ5Ims0477Pyv9oYx0XaL7+PQx4ANozgCkEkAAAAIAAAdYyFDRs1nTx7Kn5xT/c5bZLM6tSnSjjOaiuF7uv6YnX4RSSSwSSXJYGPyvNWhHtv8ffkaGAjtkzB5ffpIfgfnL/BjS7ytU0q0+F0fDH5loVUVanFdhZUfSYABYcAAAQCAGSBc9kSZ77vAl/0IY5pmjZzUdC111sclJcdKKb82zGmzZ92e6rSqbJQcXzi7/lLyNZNbDTzUYvs9tnwI1o2qNdoABeVgAAAKZwUk4vWmmmt6ZUAA6JkK2dtZ6c275paM3vnHU311PqYXPnJenCNogu9TV1TjC/U+j8m9xj81sqdjU0Jv0c7k37s9j5bH03G8SV6aetPU1vRhVFLCYjNHTq7utcdhpRar0rPjc/k46UmwZ0ZvuzSdSmm6Der/tN+zLhuf+vXz0NKrGpFTg9hlTg4Syy1AALDgEAAAAMtm/kOdrntjSi/SVP7Y75fL58znGEXKTskdRi5Oy1MzmFku+UrVJd2N8aXGT1SkuS1dXuNztFVQjKT2Lxewmz0I04RhBJQikopbEjDZYtmk9CL7sXre+Sx8PneeZqVHiq1+r2XG3vZsQiqNO3FzGyd7beLd75kAD4sAABAAIAAetlp6VSEd84rpfrPIyOQqWlWT2RTl+y+fkRUlli2dRV2kbQADGNC5g87bL2llm160GprktUv0tvoc9OuTimmmr01c1vRyzKVjdCtUpP2Zd174PXF+DRscmVbxdN9W37M/GQ2qXh9FsADUEwAAAAACAbbmzl5NRoVnrWqnN7VsjJ79zNSBTXoRrRyy/RZTqOm7o6pOCaaaTTVzTV6a2po1DLOZibc7K1HfSk9X9MtnJ+KPHI2cs6V0Kt86eCftRX7o26xW6nWV9OalvW1c44ox3HEYOV1p6Pj9D96WIVn/pyu22CrRd1WnOHFrU+UsH0ZanZmr9Tw3FlUyTZ5O+VGi3v0IX+KQ7Dldfzh5fT+2USwH9ZefHwcmPWy2WdV6NKE5vdFN3c7sDqdPI9njrVClf8Agi/mi9hFJXJJLYkrl4BPlZfxg/H/AAiOAfXLyNIyPmXJtStT0Y/you+T/FJal0v5o3Sz0I04xhCKjBK5RSuSKLXbKdGOlVnGK4vHksX0NNy7nhKScLPfCO2q/Wa+Fezzx5CTeIxktunovv1YwlSoLt9WZrLeWrpqzUH6V/8AUmv+CmvWf49iWxtGPSSuS1JK5LcjH5EsnZ09OX/UqXSlfio+yv3fPgZAahSjTWWPnvfGhVKbltYAB0cAAAAIAJAGwZuULoSn70rl+GP+W/AwMIOTUVi2kubdyNys9FQhGCwikhTFztHLvL6Ebu56gAzxoGqZ8ZO0oRtEVrh3anGDep9G/wBXA2s86tNSjKMknGSakng01c0W0arpTU0cVIKcXE5KC9yxk92atKm73HGnL3oPDqsHxRZHpYyUkpLRmO007MAEHRBIIAASCAAAqhUcWnFtNYNamikABl7NnJaIatPSW6ST88fMv4Z4VPapQfJyX7s1kC8sLRlrFcdxaq1RaSZs888Z7KUFzcn9DGW3Om0y1KSgvhSXm735mLLao9bCOEox0ivf3Jdeo9WTXrSm3KcpSk8W2231Z75Isfa1Na9HC6U+Pux6vyTLSXi9i3vYjasnWTsaah7WNR75vHosOh1VnljZBCN3cuWwAJloAAACACQAB6UKLnKMI+s3cuG9vggbtqStpk83rLpSdV4R1R4ya1vovnwNiPCzUFThGEcErue9vi3rPcyKtTPLMPQjlVgACs6AAADEZwZJVppaKuVSN7pSex7U+D+m45zUg4txkmpJtSi8U1imddNazqyF2y7akvTJd6P82K/uWzfhuu0cDi+bfNzex+jFMTQzdKOvuaKB/vJg2zOAAAACCQAEEgAABBICTLVnvVeo8qdNzlGEfWk7o8974LHoQyUrmRyBZNKbqv1YO6HGpdj0Xm0Z886FFU4Rpx9WKuv3va3xbvZ6CE55ncZSsrAAHBIIAJAABsADNkyLYOzjpyXpJLD3I+7z3/4LTIuTcK1RcacX/wDTW/cv9WwCGJrX6EfEao07dJgACZeAAAAAAAAAAaxnLm32t9Wgkq3tRwVX6S47du9aPOLTcWmpJ3Si1c4vc1sZ18wuXcg07StL1aqXdqLbwkvaXmtho4THOn0Km1b9wpXw2bpR19znQLrKOT6tnlo1Y3XvuzWuE/wy/bEtDajJSV07ozmmnZkggHQAAAQACJMAPKqzLZAstydZ4yvjT4R9qXV6uS4mNstndapGC1J65P3YLF/tzaNqSSSSVySSS3JYIWrz2ZUX049YAIFS0kgAkAAV0qcpy0YRcpblsW9vYgbsTa5Q2ZrJWSMKlZcY03s3OXHh/qucm5IjSunO6VTY/Zh+Fb+PyMsIVsTfow8xmnRttkAAJl4AAAAAAAAAAAAAAAAHjaKEKkXCpGMovGLSafQ1LKuZ2MrNL/1zb/TP9n4m5guo16lJ3g/Dq8uGVzpRmukjkdps86UtCrCUJbFJXX8ng+h5nWrRQhUi41IxlF4xkk0+jNft2ZtCd7pSnSe5d+H5Za/Bo1KXKcHsmrd21fYlPByX4u5ogM/a80bTD1OzqL4ZaMvyy1eZirRk+tT9ejVjx0JNfmV68x6FanP8ZLzF5Upx1TLVnnORMqq3o98l2dVaivu0I3Snx92PV+SZZJ5VdnEVd2RlsjWTs6ek1353N/DD2Y/v14F8Q58UUurHevFGe227sbSsrFYKqdKcvVhUlxUZXeN1xeUcj15YxjBfFJX+EbziU4x1Z0ot6IsRBNvRinKXupNvwRnrPm/Ba6k5S4LuR8tfmZWhZ4U1dCMYrcklfzFp4uK/HaWxoN6mCsWQ5yudV6K9xXOT5ywXS/mZyzWaFOOjCKiuG1729rPcCdSrKerGIwUdAACs6AAAAAAAAAAAAAAAAAAAAAAAAAAAAACUYfOH1DUbNhU/8n9oBoYb8BetqXFmxRtWRyAc4nQKWplQAIjDAAAgAAAAAAAAAAAAAAAAD//Z;imageBorder=#dedede;" vertex="1" parent="1">
          <mxGeometry x="270" y="250" width="80" height="80" as="geometry" />
        </mxCell>
        <mxCell id="9tC2t4doHbZ-rZqAeVVs-11" value="&lt;font style=&quot;font-size: 18px;&quot;&gt;Electron&lt;/font&gt;" style="text;align=center;html=1;verticalAlign=middle;whiteSpace=wrap;rounded=0;shadow=0;fontFamily=Verdana;" vertex="1" parent="1">
          <mxGeometry x="160" y="340" width="60" height="30" as="geometry" />
        </mxCell>
        <mxCell id="9tC2t4doHbZ-rZqAeVVs-12" value="&lt;span style=&quot;font-size: 18px;&quot;&gt;Chromium&lt;/span&gt;" style="text;align=center;html=1;verticalAlign=middle;whiteSpace=wrap;rounded=0;shadow=0;fontFamily=Verdana;" vertex="1" parent="1">
          <mxGeometry x="280" y="340" width="60" height="30" as="geometry" />
        </mxCell>
        <mxCell id="9tC2t4doHbZ-rZqAeVVs-13" value="&lt;span style=&quot;font-size: 18px;&quot;&gt;Node.js&lt;/span&gt;" style="text;align=center;html=1;verticalAlign=middle;whiteSpace=wrap;rounded=0;shadow=0;fontFamily=Verdana;" vertex="1" parent="1">
          <mxGeometry x="400" y="340" width="60" height="30" as="geometry" />
        </mxCell>
        <mxCell id="9tC2t4doHbZ-rZqAeVVs-14" value="&lt;span style=&quot;font-size: 18px;&quot;&gt;Native API&lt;/span&gt;" style="text;align=center;html=1;verticalAlign=middle;whiteSpace=wrap;rounded=0;shadow=0;fontFamily=Verdana;" vertex="1" parent="1">
          <mxGeometry x="500" y="340" width="100" height="30" as="geometry" />
        </mxCell>
        <mxCell id="9tC2t4doHbZ-rZqAeVVs-15" value="" style="rounded=0;whiteSpace=wrap;html=1;fillColor=#f5f5f5;strokeColor=#666666;shadow=1;sketch=1;curveFitting=1;jiggle=2;fontColor=#333333;opacity=10;" vertex="1" parent="1">
          <mxGeometry x="110" y="210" width="520" height="200" as="geometry" />
        </mxCell>
        <mxCell id="9tC2t4doHbZ-rZqAeVVs-16" value="" style="shape=image;imageAspect=0;aspect=fixed;verticalLabelPosition=bottom;verticalAlign=top;image=data:image/png,iVBORw0KGgoAAAANSUhEUgAAAOEAAADhCAMAAAAJbSJIAAAAxlBMVEUrLjr///+f6vmk8v+i7/6h7fwpKzclIi8hGignJjMfFSQiHCooKDQjHywlIzCl9P8dECAaHi0hJTIRFieKydcAAB2c5fRWdoIACiBzpLEeEyJdgo54rbrp6eqP0d+Y3+03Qk719fZcgIyBushkjZkyOkaGw9G0tbgMEiVfYWhHSVM/QkwVGirBwsQ7SVVtm6hBU1+FhotRbnqQkZZKY29tb3V5e4Dd3d+am58aBRrLy859tMJRU1vS0tRFW2alpqq6u74TAAofZzeDAAAZ3UlEQVR4nMVd6WKqOhBGA2FHxH0puGFta9Vau9ra3vd/qQsJKmoggeDp/DqnKvCRyewzEUpXp+HN9+/P+9Pr3df9gy8Igv9w/3X3+vT+8/t9M7z+7YVrXvzm++fpy5+3a/Nq1XFgQEJI4T8cp1qd19pz/+vp5/vmmg9xLYQ3j89f8/Zs7hgYVRJBw5nP2vOv58drwbwGwpvbV39Wqxqp0E7JqNZm/uvvNVAWjXD4+XzfmDvpC5ewnM688fD0WfADFYtw+Pgyn1XzoDuirM1fHodFPlSBCB9fajWHA92eEMjiHqsohN9P80LgRSBnznNRe7IYhLcP7eLgIYLV9tdtIc9WAMLh+3zOs/eSyKjN34f8j8eN8O21Vr0CPEzV2uvbHyN8e2kUzJ5n5DReODFyIXx7mV0XH8I448PIgfDm2ut3wNh44RCsuREOn4sWn2kYZ8/Df43w1rmefCFR1cmrO/IhfHuoXUM/pBGsPeTbjrkQPrX/NT6Esf30jxB+wn/LoEeqwhyeR3aEr3+ygJhg+/XqCL/9v1pATFU/627MiPD9DxcQE2y/XxHh8Gv+x/hCmn8Nr4Xw0/l3Oj6NHCeLwMmA8L3BzaGqbOqmxX0Z2MjAqewI72q8z6Vbm2Wnvxz5WpYwHJFmd4UjHD7wylAZdppAFCURSPVVlxdi9WFYLMI37i3YHYliOSKpMlZ4WdVxGNUGG8LPGe8D2Z1KOUaiC3mvCGds8oYJ4W2D82kEZYIASiAgtJRiXeO9ptBgcjdYEP5wAzR2IIQFxq3FYNMphxhBR+eH+FMMwvc296PYdSlYwObOViE0FKEeQhR9fvOozQCRjrAAgMYGLeHCwv+FH24AWOzzL6LAYMJRERYAUDA7waKByQGRsQj+L3mawa/86RBpCH8KACho4ZqVleMf7HHwBzBY9QbcWoPKqBSEt0UAFJRmsGTTmPCUe+EidgK5uvWV5N8xUZsiUdMRFgNQMINtKG1jUNRWuDHDhRXBUuG04Rq/+RF+c6sJTHoIZxpDaPUO9k0ZeCtOkdP4zovwjduSiUjxguXy7Ngf+qEw7UkIpyRO7OTfMhCspRlwKQiH3IbVnvRtAKWytg6PJKDV0wZ9UULLuOUTOBAOcyG8L8zfRdtO8uQ9jI9xgFgMrG9tUMfGTp1Pbzj3eRDeFRhy0kM2lVzVDHBAS+uEsMAukDCGPZGQwHEpVSkUqib7i4kI32dFwQvIaoWGt+RNBNsWWm4IUJxiH1FfeBiiyQVxlqj5kxB+FiRGI+puETeKwPMAkBDa/S5XLWym1vkUYyPJl0pAOOSqGSGQghbuQJK0UvcfQRNBBNsPnhvA6jATwuKkzP4B7D5au0gHur4V/2yKIC65VjFJ2pARPl8hLqrt6kCUJEkUQbOnn9gxUA+9qzLYWEk/ZqH5MzvC72KMtTNS7cVkW3fHnY0mn30ETSRuynwuY5to2xARClcK3UNZ1zTFVC8/MQY4esNl3EAyGMLfXv8g+SKvkY6ccJmoVVJmioDw8So8SqMuMgPEBZej0SbUwxEQ5iqd5CcF2z18KsNhQfj0RwlCY4VUxsTkuUj1MhF+gfDtT3g0JGUZ8mmTz0BtXzhSFwgf/i4FivhU7HPpffhAQ3jLm2HiIAvJU844au08bHOO8I/EDCZ7GgqbLVe8/0LYnCF8/tM6BGOBNQafq/ichvDmz8QMpu6WfxGF2U0Kwpd/n6iHamzF4EDi34nOSzLCPJoCQlWVZRORbKlGlvAVtJSPRWsQs8O1cBHFjh58ZGW82JEab4kIMy6hIStd019sRpPlstNZLpeT3nq3EJSubqrUR4Oqrg1G28DlB+ujKQ4HyFFWVb/XG603Kx92FYaLnZJzl4TwLUNoJnj99mqydb0w6SkeKPhP2XO3y9bAJngQx1/LttDqe2IU0Ijtu+4YJXGEMhBRNrXpjpctwdYzoZy9JSC8Y15CteuPxuXQoS0TKHRyK81WkjsLzcBRdCtg/2PJi9UtoFyq5C7Fk4t5/ZaQIfh/sogxhG+MwSdoKq26BEQSuBhMQPQyodldLF1RPLwaSaz04u+iG+appOnpq5MkUB5vbOYQQHwnxhC+si2hbC2bIPaAiDUPJB7WtbK5eOnQshcdr3KAJ4mgOZ0MTmxtaxQu4jRYY8T2R6Qi8Ho6I8a4OD0ivGGy14zuqLmPmoXrGGyTSWu3Wvi+P1isAqHTGbvhB5LYPHdmDUUd1Q/PHKArjycrWZPPllpHnyqbUW+y7I/r6GL7+3kjm41XYzrxiPCdxZzRV/uoYPBK+72VFog6WTUMiMgwLNlUura/6W3Hp75sIFt2/TI4wKu4nY2uyITnRVkb0FPU4Fq6otn+elnf/1AC7oIpChAzbI4IWZbQnuBbSaDZWSm6lfBCoWrpJ7kWqMOJe4QnupOBoif8GMua+kH6QNXUrHU/2hlhoopFrM4uEd7SA4jwYwyiN9nSkx6Q9Mya3zmsgggCePY5a8bJRk7U4OQbqmKNolcEmOqp5rcXCO/pOtqc4kSRt05Vdmek2qvtvuArYO3loJsGLyAzVBXi5DziaNktD6cGXIZEFbw/R8hgsOEVlMCSVaKFZNib6XH5xmuFnoCBC6QSLwOLlrIUcRZHp0M8OPt7hE9UVdHtI4DNXQbLX7U39cpeSHhLQWNae1S6USGZ3/rAxVkcelzVeTpDSBWkJi4u8Hx2BjXsXT1aPxHUWzpr/iyBTdEldeYUR/UU4SNNkkIf8wdJvif8Qlsd8InjVYata6zAWXVK7KpRFmdHfY7a4wlCqlfRRQGGpsAKEOr+eI9P6g+yVQXbXvg7susEsVnnURdxb9dghEPaEqqouBCsWBdCVjviAZ+QtQ5BR0p/Tb4Z9JFAJzLxCdWGMYRUJkXFhWKHUcgYWq8p7vH52essUGWD2EmIDZsjFFel2jYRmwpMTIp2RrnJ5nLD7t60k8A2V+Ea9EWyvsD0Eb5uMKLprIhNBSZJqofFheKSKeBuwf7etKuvtHwRF6QvQNILVTendl0SVY8IP2nOfTfc+iJLWhHa64hBQ9MnbyIJvdGkjRj5kPR4FS4ERwifKUwKV5XgpY0ZdqHsj3HFutjsfWQw7c5IXadtREGehC+gR2NT7GAghLRchcV2xWABW+WIQfsCTw4JCogPk14pHIRvnFpjjHMYIcIbWvhCRzE+aihaFqZ4AYG76vJlB5B/0Uxkcs0LJRGVpxo3EUKq46ShUgnKK4Pd/QKWe13eth9U6wdWSZfRQvujSVX6yIUKEVIDNLaXJrwxGSYueyqDqc+V5ESEdpqYuC+QJKpQlZfzGiGkCiW5eVYBS7jnysPFouUWkw9OIWOXutOQbQ4GtBtBHyO8oQaC1RDhOAUhtCfYSKtMBao1xUKoAjVZ1GBhmsjEBwoDUgKDyUZFaBhYxEjSqIgFDKmLSojSEbL5FwJLzlBP51JzgTkUuAP+HRiRgopsk8Q3Qlih5xlDjRgg/KJ+MTRpklmm24pqmZcfxSWQ8U5Lsmrwp/QkHPxCCOn5GGQmNsmyFNodHB8qb3g7J+KE3YskFwm7Vww7fhYiZMj7IpYpE81SQ44CcHWBq7DwnHA4KkmYIgVNd4IFoX0TIPykh4Jx3xJpY6s+Cg2VK52iRMyetDS7jdGmCUTNZ4Dwhx7NT2QZc4XMGEkc8XVMEAhZGR55DaHPZJcGVP0JEDKknJClK24vuELf4EL7JmPXC7R0TdHYQm6IESWyPkD5KQZPAFk1AkOwO7hdM3Txz7lCa0UxaIHNT5LhaOt6bmfAIpKUrZRotuDP6Aofhb4FpnJZhWQIaxPAnkcIv98rAyksgwZ9hl9ghXCZg0SPEzrkHkvHOwzwUcNsISG2OPNIbQyQWcZEWgULXrplgJq/yMEYnJ263DQkqg0FulUqRPHgk4oCwV4iQw30GGWMPIq1q4tj6q9QZy1ZIaYGG89odiMwKAshCgiDzfGiEUBxzajmISzHif58KLwnEhu+7fAKTTYLv/Yp/DI1HmA2PUZqMECpvGM1ROXJaUcJtR0flUeJJHPfQn1ijEWa81+BQR2iy6I3v5dK9hL3gK6YXSUcJogRVcDB89baPaFIG4Njgaj6I9DibBEpffHINNqkkhFglIqIsSn1CVHzMMFuiSpuGLe/8yzQE4f4uqgwEmdLlFG0ghksUbt8hpCsB+K/OG883f8diQQWdR+S8yQwVtHgC4vLYBHNNc7mZ1jB6HljRHfusENzsduiBANrFZjzKtwxfhVfWRKgusKjO3aZwhVIwsfIo4ooBdVFXax0F79pVgkH7wS6/xsRkhViv+s3URfWOps7r25Op7fQ535gl+3cy42uw1zIB78EFrMUEV5E0UfsBlpZ23e605NCOPojIuNTOjdMsSBlb8qA9wJ79wEqjJSQP1iZZC5UhkIz1oPP0IeH+Po8UmMiteqxbxD4IPjsX/YDsxn5g6Cfo3fH8A8FY+KGgQOw231q7eM2d3rqMEbs+AJSV2M0wmPfpJyRDHPZDMsXy9sByxpg5+JUbdqYjbh6o1JJDe2MwALP23Ztaqt1a6cz1PsIRIRyC1cTcA9DSyQbLWF5kP8Ohqqy/hhHfeOGAeZR5mqCPWXgU9x6BdaFxO2pdIkQt9SwhNhi5AsPzN/F46xA1leYlzDCmJelT/Aohkyp5UCWMutDbHgxxfAKoXOE6irPCw70ITNCBUUhJL421gwUIdzfDkL8gjOK8cCmYbZLF7jFs4ABXWwU7cP9Gn4gm0jKKuUCu5TZt0DlZPXrqaJzkk+CbbgRGoyyJrcC34LRP5R7yCqlpl2LoxN9iAdLgX5mUyPwDxl9/DDRXQbLf8ajZ8kSXPuddRMKyMdni9PoSzRDrvDsRAqd2KU6rv3MzkHVH4GhRv9g8bKFKAuiE9/C7FTESjZNiGn+yxYvRdUdEkN1dYGEPGBp7wHrvX62oEJEtU+mmDc0Qnu0ckWLl0A4inHgS8vMdffZDVPeApeWn1TuyUphRQkJhCNRvBZUbciUe9K9c6dFn0w7/IMrUykpmpiJwtwTQ/4Qj1uL70JrUpEA5wAyGuGIMOfQaJQ/pDf/dsMoWyUuSJXQhGLqzslPRlJUPws5Lyx5fFzseeKWmchTZOrOyUsooUfMzGQhlMenqgtcJ3gag5WjGWt8Y+TSKMquccozVItBradBTApOw3rQxA1ILvcM2STChdD0rop0QvU0tJoocmsAlHHYzc3aLM9K2HlqcVpRM5a6NlxMc5EogIabtRMqE5HCpZkpqmuj1CbirPllug9aiFEzdbNlIGS0kTve2SmqTXxMt72R60sqKocqhtgcFFrRFhE2aTivPH9kqRFWxKS0eyRupPLuCm6jnZACzkRRjXC63YabAck1ZFFnsCS1Cg/AQaHCrw7RED5qrT4WNAlJZWjjAn2wLNqxwuU0zIlQMh1q9VOdYOs8MHtKUaUTGBdcfVmIsjj0W6TqfFIKKE5R8ReoM5bvMRL28DmVRXvfM5PacIERptxKWaMSTKm5K7IKGhdf8lk0qN0CI0yLKNLWMCyjbeIy2kmBleyoiYVYNAMtXdEUlpE8uGEd9x+mGN9noWcSqRBnd8HUKIpTcZn39lKCQ8Uf9afuNBzJk6H/MK2HFFdBpkfZoNbHtbTeqiBOxXV0lxJc9rciKlKVgNSn1c7HekjTvODIxlfMVNawe3jkE5hwtuVFhE3Fi92vtY5HKlH7H5xXtl5uuAhV72jTGdfHKayh76K+mXoBnWt7U/GccZTTAsdwik3KNU56uYcpGlHbBhDRaVsBa4h9P0G+qeo06iwZFSBwTJKpaEXlZgBIlWiSyzqFUefMMxU+RrGCLTHRQjv0rxXQgIgtmjMHPzpRAdRbguq38JEDCYMXQjqdqZDGpvLmhDMCCy0p/qUcehB7ubu4o3uSLBq9j8IKrY9AGkDrY4T+l1w9djYXo5Q4Zd4YYIUOpGYZTzADoyRFrCr9qI+0vuASqqgL9rxzS0cJttb+wloPj+dLuMRhyudhPk2SwsDn/ASs4VvCJpr/n2wDdaNufEnsKBy+nVG+1Pc4ajs9/hGPVkiqUz3MwqLNGEKKqQwmiDVUG3EsoXvm+H15i4WA2Gzl7ncmbkMc1oiZHliPJbkfFzOGkqI1Nq4F3L85c0c7UAx2N140VCH30AiTNFIB56JiviwOkSW87TBCc4aQ7EJdzGzSOtThA6oSTW6RwNbPFTPGtVdnjjnORcU4Fwopra2EWV8lIkLkHcajlggyzfdWFtF0IVFaqtk1B16cc22IWvQl9fxrCR1stdIlQuLMPcwv8WiwntoxG5Fht6LZg2JzomUVOdgoPd9g0T487u1oHxIFO3HmHnFuItJBJzE9JeAghgiRZS6l/YyTlpLNzyOHSpH4uZSlZM+VODeRGK659H9RXzfLAZS6v93PqfF6tCl0J6S2KoEOvvANUUPDUR92eyCxB5M8+5I4v9TqIc/iyDA4YZKsLuJjjw/DvgKMEzWDzFGWnnup53AFtIjHX6r2BNVo9YjskTC/lDSDFg7E06Y1e5s2wUg1/fjqGvbaiwZ+geYSsk+RNTXScDALdwlMN9qHssZxTHKOOGkGLXGOMNaHnf2FdGTeSwn6UN1IlfrJS1U/et5haNt21eWKAeDTEwKOqJSxbyElFPO2k+YIkzyMg01jMdg0WvCSwZkpIpsj7zA4sb7u8mQczfXJ4GJJ2hB5NHkWNHEnRnap2xqo/nqcbpda4Vcv9r5l7wdzog3psw1PJENceAcfWAJuQsIkZZ43aRGNQTnyLcrRdGTQShL+yOwgxHQsbV2PJitLojRtyUpekKo+8dDR1+FU4YR9nTaTnZikCfzDk5YlkNxNgnSwROpVUO3deD89WgLl7VrJA9LoCl3dXi37285ylTgZOnWuPjGXKA+84+xnsZzWF4srGIlMbGiDzmGGtASa27WqZavlCGx6V3QH0DB1XU/Oy6afjUA+38Iwe14Fs0a5kxrCS51cB3V5VK/sY2XhhO6RYDOPlDe6g3DUpJg+6oh+vkXCGSVyd7EcT8edDWWELB6L30w0tq3uIjxC/gASuJ210KWjhLK2wlxONRipZ5QkzW6Dsq4o9OI53OCZ0pcULOR6LB64Ppzq7XZa/odmWgklVlA1bWHiRu+lQqnOoJ8zw3lWEJY16U26qqKPpuX4WHdQadY7o53Q1fToBIlwNjgeDm4uWh13P8ZdbNK64xnOCuI870lxWaYBWJqATx4ox2CCslffdiaj9W61WCxWOzzgvSkeviaKHYMWyGc474nzMB1U8c5QcActRdt0XBGcWimHKf0VPKQ/dsJAIOWoo1AhvIRT+LlrNlIYTPXSqq75o60nxteSTOGc8x6keyeM567xnZ2HhicwF1FAS7f9daferKDTH0ngQmE0nSxsBuXJenYe5/mH6LDGBL+NjFI1NdPfTPpjr3x+4onUdLeTzeUBCuQLMZ9/yHeGJe49aWZx6gPqLpte7z/TX61bo8my0wnPremtV77SJR6gQKQMZ1jynUOKuz/6mUpswsG5UmVhBEoiPPUBU6g3MlwjyzmkfGfJquuwZZ51NAcm9FbSc+k0ynaWLN95wFGvZ4YiIhRnvsyIZiHoDDMh5DrTGU+oB0tmPo3moSfmtFgo65nOfOdy46gYM9NBGe1crs6/7Ody852tjka4S6wDSFCXPd9hwHnOVueSNviEOKbA8X6eT/bmyRglSRkKwiGHgYpPwwBbBmmDx92ILF9NokQpQ0FYepvlh2hv8Ukb1OeWd2i5XY4iXDi7cJkYEXIJVN3FndEURrVW2Pz0OUobEsUoHWHpNj9EKOAY/CR1Fc0FHpay40j6N87jFlkQln7yW6jqAk+HTps6qOEgdvZ5PjFq/6RDoCDkgShvoorFpNAo3FffZp/ncyQaQCrC0nt+iGY03tTbESsWZBgN6E1nZArARE3PjJALYjSiFvStiyikZY9w6Q2YcPQY0gEyIORhVGuAK0/E5sSI8yo0tRauupUk1tmSRIA0FmVDyCNRDTU6EEIsbzdqNwwWWqaiLfaHRIregsPcpkhRdoSl30Zu1R9WLEZZp0rT7S8no95y6+0TUZU+R18YbPyyPDwTwtJ3jcOA86eHhIwkxo7elIC74agohjVi0CInwtKbw2GGdzfuISFzjKEBb8SRKxUcJ81Uy46wNHzgcKYMezcux2K/kgikeov9aFgCVR+GjE/OijDwF5nG8SZhVIRW390fOOuNe37mSqkTqiX7g/kRlt7zyxsBnVJty6t1a71eqbbO1+cOG3Q1mAdh6bPKe/S6oaqqwd1V61RTnQkOhKXhPU8ctSia39/QHzUnwlLpuf3vxiiRCbbJgd+iEJa+Ba70IjdVBTYtmB9hqfT6h8sI26TsUtEIS59/toxVIYuIyY/wr3Zj5h3IgbD0ds9hqObEV7tnNNMKQRh4VM6/ZdWqw+IpFYmwNHye8ep/dnJmz8O8D5obYal089L4NxidxksmHV8YwmA73rWvj9GZ3eXbgEUgDAyAuyuvo9Pgw8eNMFjHl9n1ZE519sKJrwCEwX58ns2voTuM+eyZY/8ViDCg26+iNySstr/y6odTKgZhwKyv81pxIJ2a88zNnhEVhTCg37tZISCd2vyFUJ+WlwpEGFgBvy/zGU+digCdWvXlcVjkQxWKMKDh5/NDY54rPw6deePhKYf3kE5FIwzp5vbVn9WqWeIxRrU2819/CxCdF3QNhCHdPD5/1dq1qkM5lhhCpxp87+758RroQroWQkQ3nz+v90IAYF6tOk5YvR2hCnA51eo8+ES4f/35vBY4RFdFiGl48/378/70evd1/xCexOA/3H/dvT69//x+3wyvf/v/AY5ICgT9jfj3AAAAAElFTkSuQmCC;base64,iVBORw0KGgoAAAANSUhEUgAAAOEAAADhCAMAAAAJbSJIAAAAnFBMVEV9vkL////l5uXk5eT4+Pju7+77+/v19fXx8fHq6+p5vDp2uzR0ui97vT7b686o0YduuCTG3rfr6e33+fXn5uhuuCL9+/7t9Ofv7fGby3V+vUWu05Px9u262aTS5sSOxGPF37Lh7dmKw1eizoCWyG6OxWK22J3Q38W82qWr0o7I4bbf7dXK3ry71aiEwU7d5dfX4dDl6+Hc4dmvz5kgzPpwAAASQUlEQVR4nNVd6WKyOhAFtWqzKAIi7vtWrV97+/7vdgMuLElYJsHa+eO9+SxymJnM5JDMGKZpNmq1WoN91mu1N/bxVqvVY6M1hVHX9UzT+Tp/fh676/nqYlxltFqt193jZ285MFu27bLvNtmftqIrtK9XiI2+Q0eNihAGd+19nX+GK2JhjBFClFLjLuy/2QjChP3jfD09OabnulUirNfqAoSA0fv92fa/2XjObp8BM3KEYSV9Y/hzrnn8/bHrCu661KjRaDRab29vLfbJPtrso80+FUY9b/CxNhi4XGxJnNha7TpN329ruIf4qMGghsqop1QEHZ11S6OLUBKyOQxM170pox4qo55SUclRQ+xQEJd07dpsSAgM3QMlti7HvS0wWKhL6tNh6xzAU0EXqdLYDfTpUIu1N/zlEREl5aVAWttFy9Pjh1rm0t5Fi/YSIDHpLj1Xw1yqHA9tZ0c0qi8mTJE939UTD+tXvdRvblavFx1t2/+tLVwFvFAoGf2Ez7N+c7P6VS/1q7YKjRoAWI/Rmr1c93WbZwojJj/vbmlYsVGVaGH/21jV4gsF4x/FaAGdXiZrqxL3E2BEPdODJnAGcCL2mlPt06dcKLns/TYscCSjRfEw3yPVzS9ijJsJLPjDosVgS56KLxBkTduu8uqpkA7dxu5ZDpgUPDrbAB2WtmtvP3qugUZCrXWrXdoPS86lbfP4Owq8CkJnu+xcWi4e2v8uv6XAm1jr93I0R7mcxp/+pgKvgkb/yuU0JVI119w8fwrlhfanfpm8tHi0sL/o82J8ppBhiRVH8fWh/fn7FnoXNPounMAVXuO31q9goXeh+OTp5drc7+0vz6FpsaZ2seBfLFq4/41exAUjId2C0aKIDr09fhkXjIQMtXFt/r4aHkZV8Haih2uzz9ZvY5EIGmnh2uzDqwJkU6rhaODapq8UJdJCkZOb0+TMNPZLAwwg/peAlTTYAlzbK5voVSid5EaLjFTN7706QAbx4sC5Nm//+gDZjHoJE7g3IYq3TK7N3b+2D94Fzd2MBC4jWrj/XjGTEQkeFl49JXT4PfojAFkCN4Vwba3tyyXbcrF6fmmuzV6/2HIpW6wvXzaXSuKh/fk3Zpm7UPQti4fiVM39+gtxIi50ZWZxbfxMo7Zn5DcEd+0S0cLf/KFZ5i7kLGLg6sL1of3zt5zwJuS/olxb+19lThjsSazM/unqkarlcW2Xim4CkdG8u17hqkgR/GMXWj15x2oiISLHgRlKZ14RRuvLLcC1uadKbJRam4n5kFk17yDpin+FKvDDStJRclmaCTlUstEB/3j5XNuugqeL8YeZFqfbr+BRWpP321wqjYcD/TaKrDGHL5DlVr870rmfx7Vtdf9o0gGTMqPaDYZ8uplcm9fTHevJqCPDF8hU+744nP1mpqkZIMKHLHyBOw41v5bEuwChlGubarUaZB2bKUCT+ZRzx4vex9qfZHBtE52/RclmkEYz7lNMObOdYZ0PFg09KddmrzU6BblwSBYoQELJnEO+07mN0/oyJdGipjHjRniRRnFa3S2EWkcnbb1DfZGDzk0J12ZvdP0IJTkQEMp4AMpiLcVcW3upSYUCM/SO6SRNasQ6bmDrC7k2XV6IDe7ePwT3zjIBfiLSlKySvSuKFv/1dVwcWVwEXErsj2VzvC1riY4sdxNwbVpUSPvdMjeN+Iz8pCU6kr2Aa3M0eCHZlo0D5HLi3FGDqbKYyEeLnfJ1MZql73aWux2cuWNa6+ZRfV1FvnmuTdU4kLUr6oCpP+xzi6vBRtUd0dFOcW0NxUUFtYacA66LqkKwQO6ouiNuX0/VPbg2X2ldSMlqmb7HUusijuRQdkcyS3FtS5VHhg3eAUuubam1Tq+THaUd5UHqluDajvAHhgjvgAC6EFncumqgwjpagzjX1m6DAYocsAt7+JhyptCB0xxo7Lcirs09Q42UrLgU7YChj4uSLeeOcNaR1swoHtpDmDVgxE2CalyvyB2hR+TI2YytnkAqpNYuTVIMlAlCkTvC1lVobd64NjaXziCXwNv0424CHTB1Xd4dZ5DnRg07WlsMAbYebmJJiI6EMrw1Pr0dQK5Mzu4DIUCF4XvzuHQMfXQStdJLFMjqPMjcblwbxEj7SRMdbPXSnoik3HFc/vnRUfvGtXnd8jaAugkHrOBAGx4l3RGgBRb0r9HCM8rfHol7ii4HTEqK7gGoAS9u0QLyuolEP61nVS6SBOs4A5jp5sq1tRegv72J9vcOCYnRrhA94CvXZgNiBXqEiqpPC/XvWWETYmn7MFrYADeMJhpgNSEcVMFiQgjBiGZcBPcUEKKdbxp1F8LlKyCkDNt2fJidlgMmy1PnsNsEhZckX38ghDBldO4HXBvAhYsgDIqYMUlRUci6HJYmJ5PZWlICRkmHBvGCaDEGTPX5CMk9IzjEINL+UADvPlleRBgVES6DaAFhaAro8P6FThRLBHRqEqPBP2wlKzXwh2s0PEg0y0dIeYQ83cgJf1BVTYfo6Bvu17MQWj0OEC/cISQ1hCxuG+4ZEtAACEkRgKa5S0FUs1KWexnuDySnLI8wmapnSCr/UNOhYTmGB1n9AhCSJOHhLGfnxeHwMZudUivB1IYXVR3uDXMFyUpKI8TxWWY5vrBk5houWWpDN4s4/EPCbRQR4k8D9kamNEIrWjBP5lZqnzDFiWk2cUeKVorGBuzRlEVItxFA4QtFEn0hyb8r6hCtDVCwKI0QRS/QJFusY8RWJ35LijqkQwMULEojjF6fSSkl60FaNOMbChQRGhfj8ykIyeP2pcvtGHkXV7OilTL5BFEspRE+3tYfpE/UeiSt8QCmqkPDgL1Wg+uwI/X7yJLHWhHC9pjA/dCUvoSIuJ+NVitdg2iI0nNpjN+dymoNI7oKZSSMFmAdzp+CMBYPg6EgpxEVjKZXiQ+p6xCUtJXPaUgq+3ROi+MWWTk0lKED4Qj0V2p56UMmnY/xZkXECr2KupU+CSGnxCTQw5rZrXDOU9chTADrwy0HLAVz1hXRbeo6hAlgjc+/UeWls+G2Uf0hhAZeSc/ORDKY62UxwALi2mg/n2wz03sK/pIOmQR11nMhLnWugMECRBiw+vQ4y7HWxBHPPxMPY/+AsIXnx0VnII0fejPvFeivFBBe//XaY2a12S06vEaduGH/laxN8qUAqUXnu06Sa4wp8a+sLUQ5dey7iJBhfOdFbD7VsD58CkK8DSVjgxoil+jFVExf6joEbOIwSiN8vEzMNNnguNJNdOoQ8n60PML7/0yybjPa/hDjotQRPoWJinbfZDF79PL42opHCLbS3jPYxIjTz3oPFEOoU4ewTfpldfjwsKxNghEVFVO1OiMMqzBQEmHsQGkGaRGd+9Y3l9KhYYLO5JVEGNPOUvp7NKIB9MVD1DW857D6UQ56kpylQbHtjvpyGvxp2CA6sXTEjx37dbocYUopTtSWEGXeQIQzwwbR+qWzNhRPPJu9bkCwPaQ/2iziO20+YnalaKVkYLjT5yDkNio4y05nz6RzGqTONDQ1viG1TMM8PWc/DeGOGEhlo5PV9w3TgUymkP00y4IAxxpZDDS0DdgOUcj6sF9sy1BX524TNHWNpgc58wTb11Zg09AkvedYcW/i/s2ogTZFwdb4COepccex3moIrW+TIYRUC4ayGARP5UTbYCc4+a22R9jww1NBleyClvE02Nru0hu9Ag2dDivhRhu1fd5rhrDV8gBklAoTRRGxLpvxYdbpLJl0ZovdemURSVlmoqJDvGi0g628gFoD4dm+UFaSP85hE0M6kdw368urRWI6UUBoDa6ngrLIE4lEi4WJ5DRyITYx92dihaYGgLsc3U4FOYB7wJELzYRlZXQgtObxUovlF0HMl65nSH1AbaFEhrITFE9QR0hGiaIgkJNdn+71hKUPOPiEErUsJlwdi4hzASJEJFVnCXIo6L/bGdI26PBacsY/pY5wR8wgCCHlKr0BKsnR1e0M6XvbAxT0RPPkHZiHRDgjj01QkFN1fKEpwDzDklL//a0ZnlZ3Iatgkq654sROcrNZDP7w06dHAzeANDEItgLeKg7A2jwQrnTO8t6eG9NIB2U3zolKLc4gAMPtnPeKA++AA3riqnNrZBELxStclbsyf4qbWegQRrOFjZLrRptJywOWUBIUXTMn3wkfKkUhiAoOOmNgxUEyCLHd6tNAK8+Kiq4lpYyRChwQXqaOzpP12sAlhhBfQDCh0eIqFFR6Uyk1iD+S9drkm5Pz7ywdm+NSuEA/c0Bu5ahULhLH67UFBb5VTpyL3PEqhfthCSrTmFAHDAWt7bA+Te2OEFJXIRJRMdZAiraLwph3QFGtxRJC9m6qXpti4UtqrXmM3WIaRH2uJI1y6V16edRrazabrff395anWuYaWZukInqokFmIiu6plzHA57f390az2Xh/VLt2YS+DE/dK0HE28NjVvMFsjArNElRQqY2txtQrHIZFdZO9EXwdxR8QtkIhBathYcTzizrqJuOf4EGneiO4eitdPwQRaXVIxGXvRWst5sm9XUmgwxaTILlptRpVlChBLMw54mmRWkM+AkILe6V+9ei1r6Ba7Xil5B/dSqT4HsYF5XPJiqtcak41Fb3uO5Jq13oRUrI6PJSUTk8wXwxaXx8BdJT0RnC1KpGmWiLEU0xBBWGdvSD6TrI3wr1SMktydPbxie2/uMnHTUfMAfk1kpZSb1dBY/vaOeCd7xygtfcD4ksEh+4oymK19mQhjYw+pFr7IAkmy8mwL2jIorevDj6Yid4ILGNrs8ytzT6bTU9zX05BEcQOT1Lo7Y1ER14jSEMZKJa43bi2qLMchP7OFEERxOocMBTSc7M66bQzN4BCRES9xER7qTc6t3P6kOpvhkQlrYICkx1pz6PIPzfVHfCW3TySnHYFDa1E7Z7MsHyE/p/68R5paCvOtUV9SOEFd7NEUA27ilqLbOGbbA0s7EOqtRVL9NPp8rkLcLXhLCH7EGFOH1IHRIDnCiIxsvCk3wEDwUdb3If0nnlf1dk+V3RKDF+my4kzWS66FdWSDN8HvT+6kiW5tkTL+Ers1LiW2wt3JlRz+bC/TLE+pG41dlq1kIi6iCO8c23s85HAvf3T0pDlyYLm/iNVu6ahSa4t3oe0BFf9QoJjC/vsPqRh6ydQBbBfFesk6Vot1mH9z7liWDs6rcMU19ZKJHCQrQG/KHjoiVCkuLZ6wmA7f6n3OF0lU7XcvtxhO8s/NNtQ5CSdL6sPaZTA2QVfHb2ABHvQEqmalGtLJXDDius86xKr46dSNSnXljZY2ebR1xKy4BIZOdeWnnSq6kGuU4I1C4dQxrXxCdzrh0UyNhOpWjNI1eRcGxf8nera2esRsvMEqVqhaHEbfXGIZCdM1bK4Ni6B+++VDTVopiVK1TK5Ni71cS4vO6OSsSdO1bK4NkEC97IQreQbCoE6c+PhbdSZv2ToJwup82VzbYIEzh2+XgJHrY48Vcvm2oQJ3Mul4ZQu/Rs3KEjVcrg2ocF+vNZiCq+crFQtj2sTTTr+vtgmrucIGQqwJCedTK4tncCFCZH/XXVLmeJiTb3YnQlStdiojKcRjnZfw1IRPglZNT5aZHBtYpe0z1rfRwOFzB1xXCjHtUkYuO/Vb1sqtca+KLYLdRgilHFtstGf31UjHi29UvebwbVJRu2vX1QjJUfBrClQXJnVk5l2VNf+qbIPWZbgy94u5nzFuDbpqMcVGX2KUPLjulxSJk7VinJtstF3v6dhH29ZfPMv75qUiVM1WQJXKlpE33V17MUuI+Rytl1RyiJO1YpzbRmjk0rbAiYF4YPnipOyfIQ5XJswgbuOel/z52BE/XHDbAjvocBoPk8jGQ3nn+Wq+uiI+kfHFgd0eaqmFC0So95+XkkP0ofgsFFnsbgA5dqyR117P6wMI8V4WrvuPhAnZdJUrRzXljfqfR9xFcaKyKXX8FTurDDXljtqv83mms4R3IWpb7333/JVpIdrK+KSgzHSZq0UkfmHabtw5yvNtRUZbdfOayTpPlIKHrZWPwOzaFKmjWvLHw3TpPNxZEHOzj+Uh8lqOnikX4/rJpIy8agy1xY5n8hg76Ou3R4sNhiiyqCS+ajb+/Z9s0zKoo9rKzR6x73fbbAl7zvCCULEGq2D2oluIf6sTAJXnGvLGuWSJ9/3lr3jhuQ1kglbH1vGcLpnf9KAJGW5o+V4mnqJ0ZrLzM3pfI7Xw4sM4GXYPcwGpm+7orhQKCnLHf0frZaTQkTSmpkAAAAASUVORK5CYII=;base64,/9j/4AAQSkZJRgABAQAAAQABAAD/2wCEAAkGBxIQEA8QEBIQFRAVEBIVEBAWFRAVFg8QFxEXFhUWFRMYHSggGholGxUVITEhJSkrLi4uGB8/ODMsNygtLisBCgoKDg0OGhAQGislICUtLS8tLS0vLy0tLS0tLS0tLS0tLS0rLS0tLS0tLS0tLS0tLS0tLS0tLS0tLS0tLS0tLf/AABEIAOEA4QMBIgACEQEDEQH/xAAcAAEAAQUBAQAAAAAAAAAAAAAAAQIEBQYHAwj/xABAEAACAQEDCQQHBgYBBQAAAAAAAQIDBBExBQYSIUFRYXGBEyKRoSMyQlJisdEUFXKSosEHU4LC4fBDM2Nzg7L/xAAaAQACAwEBAAAAAAAAAAAAAAAABAEDBQIG/8QAMBEAAgECAwMMAgMBAAAAAAAAAAECAxEEEjEhUfAFEyJBYXGBkaGxwdEy8UJS4RT/2gAMAwEAAhEDEQA/AO4gAAAAAAAAAApbu1vA1bLmetChfCl6WpwfcT/Ft6eJZTpTqPLBXOZTjFXkzazCZRzostC9SqqUvdh3n44eZzPK+ctptN6nUah/Ljqj4bepiGalLkta1H4L7FJ4v+q8zfrd/EXFUKK4Sm2/0q67xMFas9bZO+6ooLdGMVd1uv8AM14pH4YOhHSK8dvuLyrVHqzI1suWmfrV6z/rl9S0lbajxnN9WeAL8kV1Iru957xtlRYTn4suKWWrTD1a9ZcpyX7mPAOMXql5IE2us2Cz5522nd6XSW6SjK/q1eZyw/xHmtVajF8YNx8nff5GiMhlM8HQnrBexZGtUWjOw5NzvslfV2mhL3and/Vh5mfhNNJppp4NYM+fTJ5Ly7aLK76VSSW2D1xfOL1CNbkpPbTfg/svhjP7I7iDSch5/Uqt0LRHs5++r3BvisV59DcqVRSSlFpxavUk001waMqrRnSdpqw3CcZros9AAVHYAAAAAAAAAAAAAAAAAxuWMr0bJDTqyu92C1ym+C/csM6M5adjjcrpV2u5T3fFLcvmcqyhb6loqOpVk5SfktyWxD2EwTq9KWyPv3C9auobFqZjODOqtam436FHZTi8fxPaYApJN6EIwjlirIz5ScndkkEkHZyCkqKSQIAYAAQSyAAkglkEgUgkgCCDM5Bzjr2OXo5X07+9Slri/o+KMOQczhGccsldEqTi7o7Xm/nFRtsb6b0aiXfpP1o8VvXH5GaPn+zWidKcZ05OM071JO5pnUs0M7o2tKlWujaEuSq8Vulw8NywsZye6XTp7Y+q/wA7TQo4hT6Mtfc24AGaNAAAAAAAAAAA13OzOONjp3Rudea9HDd8UuHzL/L2VoWShKtPXdqhHbObwS/3A4xlG3ztFWdaq75yd73JbEuCH8FhOdeaX4r146xevVyKy1KbTaZ1ZyqVJOU5O+UntZ5lJJvIzysgAkgqIAJIBSVFJIEMAAAZBJAASyCWQSBBAAEAgEgAIhNxacW00701inwJKSSDq+ZGdStUVQrNK0RWp/zoraviW1G3nz7Z60qcozg3GcWnGSxTWB2TNPL8bbQUncq0blVjx2SXB/UwOUMHzb5yH4vXs/x9RpYevm6MtfczwAMwaAAAAReSa9ndlLsqXZRffqXp8IbfHDxLKVN1JqC6zmclGLkzQc/cqStFoWv0EU1RWxv22+L1dLjWkzYrfZe1puPtYwe6Sw+nU1qMtj1Namtz2npaUYwiorRGW5OW1nomSUEplqOT0BQVXgQVElKJJAkpBDZJABfWLJFor66VCrJbJaLUXynK5eZlaWZFuktdOnHhKpD+28qnXpwdpSS8UdqnN6JmtkmyTzGtqwjSfBVF+6Rj7Vm3a6WudGSW9d5LrFNHMcTRek15k81NdTMWQz3+xT+Hx/wT9gqbo+L+hbzsN5zkluLUF19gqbo/mf0H3fU3R/M/oRzsN5GSW4tAXn3bV3R/M/oPuuruh+Z/QnnYb0TkluLQgvfuqruh+Z/QfdFXdD8z+gc7DeiMktxYmTzcyxKx2iFaN7jhUj79N4rntXFHl9z1t0PzP6FX3LW3Q/M/oRKdKScZNWZKjNO6O4WavGpCFSDThKKlF701ej2NJ/h1aKsITstbRuj3qLTv7r9aOG/X1Zux5etS5uo43vu7jVhLNFMAAqOwczy5bu3r1J+zfow/AsPHHqbvnJa+ys1Rr1pLQjzlqfle+hzk1uTaWx1H3fYji56R8SowGXrLoyVWOEtUuEtj6/NcTOlFekpxlCWDVz+vM1BNOxqsJXlaKK1JwlKEsYu7nua5rWTCR2mdtHoSU3gkgrJKbzbszM1ftF1otCfYf8dPDt3vfwfPljxWrRpRzSOoQc3ZGOzfzZr2y6Ue5Rv11pJ3PfoR9p+C47DoOSc1bLZrmoKdRf8ALUulK/4VhHojNRikkkkklcktSSWCSNeyznZSotwpLtai1O59yL4y2vgvExJ4jEYuWWGm5fL4XYOqFOiry8/o2ISkli0ubSOY27OG01r9KrKK92PcXlrfVsxUne73re96y+HJMrdKVu5X+UVSxy6o39Ps7FGaeDT5NMqONpXGQseXLRRu0Ks7vdk9OPhK+7oTPkiVujO/erfL9iI45X2x9f0dDyjkWhXv04LS/mR7svFY9bzUcsZt1KF849+ltkl3oL4o7uK8jKZIzxhNqFoSpy/mK/RfNYx81yNpi00mrmng9jQk+fwzyzX14MZi6dVXicqUStRNpzhzfSvrUFxqU15yivmjX4WfiPU6kaiuiiScXZngolSiXMaCK1A7uc3LaNJnoqR76JKiFwPJQKlE9dElRAgWSs6VSFSOMWnzW1eB0KlUUoxksGk1yavOfaJtmbNo0qOg8YO7+l61+/gJ4yF4qW4voy22MyADPGTTs+7T3qNLcnN9dUflLxNVMtnTW07XV3R0YrpFX+bZiD0eFhloxXZ77TJryzVGySSkkvKjFZdsulFVFjFd7jDf0+TZg0biatb7L2VRx9l64P4d3TAlFkX1FEZFR4plakdraDNhzQyH9sr3Sv7GF0qz3q/uwv3yufRPgddhFJJJJJJJJakksEkYTM7Jf2ayU4tXVJrtKu/SklcnyjcujPHPPKjo0lSg7qlW9N7Y0/afN4eJgV5yxVfJDTRfL46rD0EqNPNLx+EYnOrOR1HKhQldTWqpUXtvak/d+fLHVQDeo0YUYZIfvtfHYthl1Kkqks0gQAWnAAAADO5s5xSs0lTqNug3hi6T3x4b14ccADirSjVi4T0JhOUHmjqdkhJNJppppNNa008Gmapl3J3ZT0or0c3h7s8WuTxXU88xMqtqVmm/VTlSfw+1Hpiub3G0ZQsyq05weLXde6S1p+J5uUZYWs4vhbzZUlWp3XDNK0SdErUd+O1bntK1E0BU89EnRPTRJUQA8tEq0T0URogBRomWzbq6NZx2Si11WteV5jdEuLBPRq05bpq/k3c/I4qK8GuwmLtJM3MAGOPnLcp1NKvWlvqVH+tlqVVXfKT3tvzKT1SVkkYr1bAIJAgFnlSydrT1evHXDjvXX6F4ABOxp6Mlm/Y+3tVnpPCVWOkt8E9KX6UyMs2XQnpr1ZvwntXXHxMv/DinpZQpv3adWS56Gj/cRWllpyl2P2L4LNJLtOtnMc6LZ21qrS2Rlox/DDV89J9Tp05XJvcm/A445N63i9b5szeSYLNKW6y8/wBF2OlZRW+/p+ySADbM0AAAABSSQAAAFxk61ujWpVV7E03xj7S6q9dTrqd+tYbDjJ1rItTSs9nk8XRp389FJmPyvDZCfh8r58zRwEvyj48ehgsp0dGtUWxtSX9S1+d5baJlMvR9LF76fyl/kxxVRd6a7juorSZTok3EgsOCCQAIABBIG3/bEDXu3ZAh/wAyGueNQmrm1xfzILjKMNGtWjuqTXhNotzeWhltWZAJBIEAkAB42qgqkJQe3B7nsZP8OW4ZRjGWqTp1Y3cUtL+1nqUWNqjbbJadiqxhV4Rn6PSfJSu8CutHNTlHemWUpWkjqlSN6a3prxRx5K47IcrzhsnY2qvDZpuUfwy7y+d3QQ5Ims0477Pyv9oYx0XaL7+PQx4ANozgCkEkAAAAIAAAdYyFDRs1nTx7Kn5xT/c5bZLM6tSnSjjOaiuF7uv6YnX4RSSSwSSXJYGPyvNWhHtv8ffkaGAjtkzB5ffpIfgfnL/BjS7ytU0q0+F0fDH5loVUVanFdhZUfSYABYcAAAQCAGSBc9kSZ77vAl/0IY5pmjZzUdC111sclJcdKKb82zGmzZ92e6rSqbJQcXzi7/lLyNZNbDTzUYvs9tnwI1o2qNdoABeVgAAAKZwUk4vWmmmt6ZUAA6JkK2dtZ6c275paM3vnHU311PqYXPnJenCNogu9TV1TjC/U+j8m9xj81sqdjU0Jv0c7k37s9j5bH03G8SV6aetPU1vRhVFLCYjNHTq7utcdhpRar0rPjc/k46UmwZ0ZvuzSdSmm6Der/tN+zLhuf+vXz0NKrGpFTg9hlTg4Syy1AALDgEAAAAMtm/kOdrntjSi/SVP7Y75fL58znGEXKTskdRi5Oy1MzmFku+UrVJd2N8aXGT1SkuS1dXuNztFVQjKT2Lxewmz0I04RhBJQikopbEjDZYtmk9CL7sXre+Sx8PneeZqVHiq1+r2XG3vZsQiqNO3FzGyd7beLd75kAD4sAABAAIAAetlp6VSEd84rpfrPIyOQqWlWT2RTl+y+fkRUlli2dRV2kbQADGNC5g87bL2llm160GprktUv0tvoc9OuTimmmr01c1vRyzKVjdCtUpP2Zd174PXF+DRscmVbxdN9W37M/GQ2qXh9FsADUEwAAAAACAbbmzl5NRoVnrWqnN7VsjJ79zNSBTXoRrRyy/RZTqOm7o6pOCaaaTTVzTV6a2po1DLOZibc7K1HfSk9X9MtnJ+KPHI2cs6V0Kt86eCftRX7o26xW6nWV9OalvW1c44ox3HEYOV1p6Pj9D96WIVn/pyu22CrRd1WnOHFrU+UsH0ZanZmr9Tw3FlUyTZ5O+VGi3v0IX+KQ7Dldfzh5fT+2USwH9ZefHwcmPWy2WdV6NKE5vdFN3c7sDqdPI9njrVClf8Agi/mi9hFJXJJLYkrl4BPlZfxg/H/AAiOAfXLyNIyPmXJtStT0Y/you+T/FJal0v5o3Sz0I04xhCKjBK5RSuSKLXbKdGOlVnGK4vHksX0NNy7nhKScLPfCO2q/Wa+Fezzx5CTeIxktunovv1YwlSoLt9WZrLeWrpqzUH6V/8AUmv+CmvWf49iWxtGPSSuS1JK5LcjH5EsnZ09OX/UqXSlfio+yv3fPgZAahSjTWWPnvfGhVKbltYAB0cAAAAIAJAGwZuULoSn70rl+GP+W/AwMIOTUVi2kubdyNys9FQhGCwikhTFztHLvL6Ebu56gAzxoGqZ8ZO0oRtEVrh3anGDep9G/wBXA2s86tNSjKMknGSakng01c0W0arpTU0cVIKcXE5KC9yxk92atKm73HGnL3oPDqsHxRZHpYyUkpLRmO007MAEHRBIIAASCAAAqhUcWnFtNYNamikABl7NnJaIatPSW6ST88fMv4Z4VPapQfJyX7s1kC8sLRlrFcdxaq1RaSZs888Z7KUFzcn9DGW3Om0y1KSgvhSXm735mLLao9bCOEox0ivf3Jdeo9WTXrSm3KcpSk8W2231Z75Isfa1Na9HC6U+Pux6vyTLSXi9i3vYjasnWTsaah7WNR75vHosOh1VnljZBCN3cuWwAJloAAACACQAB6UKLnKMI+s3cuG9vggbtqStpk83rLpSdV4R1R4ya1vovnwNiPCzUFThGEcErue9vi3rPcyKtTPLMPQjlVgACs6AAADEZwZJVppaKuVSN7pSex7U+D+m45zUg4txkmpJtSi8U1imddNazqyF2y7akvTJd6P82K/uWzfhuu0cDi+bfNzex+jFMTQzdKOvuaKB/vJg2zOAAAACCQAEEgAABBICTLVnvVeo8qdNzlGEfWk7o8974LHoQyUrmRyBZNKbqv1YO6HGpdj0Xm0Z886FFU4Rpx9WKuv3va3xbvZ6CE55ncZSsrAAHBIIAJAABsADNkyLYOzjpyXpJLD3I+7z3/4LTIuTcK1RcacX/wDTW/cv9WwCGJrX6EfEao07dJgACZeAAAAAAAAAAaxnLm32t9Wgkq3tRwVX6S47du9aPOLTcWmpJ3Si1c4vc1sZ18wuXcg07StL1aqXdqLbwkvaXmtho4THOn0Km1b9wpXw2bpR19znQLrKOT6tnlo1Y3XvuzWuE/wy/bEtDajJSV07ozmmnZkggHQAAAQACJMAPKqzLZAstydZ4yvjT4R9qXV6uS4mNstndapGC1J65P3YLF/tzaNqSSSSVySSS3JYIWrz2ZUX049YAIFS0kgAkAAV0qcpy0YRcpblsW9vYgbsTa5Q2ZrJWSMKlZcY03s3OXHh/qucm5IjSunO6VTY/Zh+Fb+PyMsIVsTfow8xmnRttkAAJl4AAAAAAAAAAAAAAAAHjaKEKkXCpGMovGLSafQ1LKuZ2MrNL/1zb/TP9n4m5guo16lJ3g/Dq8uGVzpRmukjkdps86UtCrCUJbFJXX8ng+h5nWrRQhUi41IxlF4xkk0+jNft2ZtCd7pSnSe5d+H5Za/Bo1KXKcHsmrd21fYlPByX4u5ogM/a80bTD1OzqL4ZaMvyy1eZirRk+tT9ejVjx0JNfmV68x6FanP8ZLzF5Upx1TLVnnORMqq3o98l2dVaivu0I3Snx92PV+SZZJ5VdnEVd2RlsjWTs6ek1353N/DD2Y/v14F8Q58UUurHevFGe227sbSsrFYKqdKcvVhUlxUZXeN1xeUcj15YxjBfFJX+EbziU4x1Z0ot6IsRBNvRinKXupNvwRnrPm/Ba6k5S4LuR8tfmZWhZ4U1dCMYrcklfzFp4uK/HaWxoN6mCsWQ5yudV6K9xXOT5ywXS/mZyzWaFOOjCKiuG1729rPcCdSrKerGIwUdAACs6AAAAAAAAAAAAAAAAAAAAAAAAAAAAACUYfOH1DUbNhU/8n9oBoYb8BetqXFmxRtWRyAc4nQKWplQAIjDAAAgAAAAAAAAAAAAAAAAD//Z;base64,iVBORw0KGgoAAAANSUhEUgAAAOEAAADhCAMAAAAJbSJIAAAAllBMVEUUhsD///8Agr75/P0JhL/Z7PVQncsAi8Pv9/t0r9QAgL19tdcAg78gkcUAfbz7/v7m7/bM4u+lyuL0+fwxlcePutoxlMeGwt41m8vX5/Lh8PeWw9/Q5fG42etlps9Ios9xtdis0uehzORkqtKGvNuk0OZ6uttFmMmTxuFRp9HD3OyVwN231ulCn84mlMegx+FqqNBjr9VrmussAAAP/0lEQVR4nO2d6ZaqOhBGIZSCERDE5jgrztDaw/u/3GUUZUyACN7V34+z7O4jZpuhkkqlwvH/d3FtF4C5/gjfX3+E768/wvfXH2FjGgnPGr3qg1kTCoakaZpjXU5be3ObTL6Ur8nktrF/TxfLmWuSZAiMS8CQUJDmM2d3siecqmKMEcjgivP+kQFhhFWVm9innTObawwxGREK86XzPbiJLpjLxeXJZUUYi7fBwtHnjChZEBrL6+d+Cm6t5bM9cyIM5v7T0iUGpWmcUHAWg76ISOkeMcXzYLFqHLJZwpF+WZscNV0MyZnrg9PsMNskobRz8Yq6HYlkzuxf5g2WqjnC5a/IuSNlLbywLjlx7zRWroYIBUtRUQNwESOo4rGhsbUJQkHbfeEmKu8JEiuXRsxkfUJh9m02zucLKZdZfcbahLPvKWLC5wqQuVi2TDj/3jDjCxini16LhIa1BpkhX8Boj2vNAuoQ6gORNZ8nuZ7tqE4oHUyW7fNBwCmn6nOAyoT69EV8gczViwmNrfpSQA7U34q9sRKhMFPwS/k8YdGpZByrEEqXRqaftAL4p72GcLZvg89H3C/pV1bUhMK1X3N9VEPy2TJYExoL8xU2MBdROdAOOJSE0lZsrQJ9Aben7Ix0hNKmVTwfEc50E1UqwnnLFRgIOCpEGkKda7MLxgKgmeBQEK46UYOegMbFQUwoWEpXAD3EHTEiKaEwftVKgkigfJMaRkJCYdeqGUwLxAshIiGh1TFAioZKRrjqUB+M5CI2R+h0ZhR9FIhWU4TzVhZL5QKZxNVIQKh1sgY9Ec1uygmlTVcBXcRzuYeqlNAYtI1RqH3pYqqMUFiIbUMUCbhDmVksI7x2aiqTFijjErNYQrjsd83SJwVnvQ6h1JbTiULypnjRX0goXNpzOpFLPhV2xUJCve3CEwlQ4YK4iFDqrKlPSC5qp0WEvw3GHjAV2lQjXKltl5xY6rEKoTR5kzbqScmfoOYTHtouNZUGuXY/l9BR2i40lfLXinmE0r7tMtMJ1nmrjDzCcacn3GkBt6Aj7Nldn48mBf2cBX8O4eJdTGEs/JE92GQTLm9vZClCgZm9yMgkNN6wCt1KzF4MZxLOOr7szZGSWYlZhMLi9bEkTQhlLqOyCOcd9HCTCMQZIeGFrArZfA11nopOZIQGibEHrIoKC4kqrmyKATJ8ixmEu/IqBDw5agIbSSu7clA1+kdEWF6FIFaOFCTSclOxsQImIXRKF75Q4t2qL2lYERGnd9zShHbZs+U+a8DqewlwKycsj5lRmjvPkq95tUkHcCmrnyL8V/YQVLpTUEPxowlNVgpxWEZo9Eu+OxAbq0Jp/BHrU/ciWob3wDyj2tQYzskulCRcmWWP2NQ8/xBrweFYaN1zPxzjex1UW96kt76ThKX+JzRobJz5eawmMFcuMoAS/XVbcX2TbKYJQmldNqFAw8ZOeR7khzpU+3N+pWB1G/31X8WO2E+0sQRhaSNtkpBf/Yu18x6rby/3P1YlTDbTBOFnaeNvkrBQFQk5+CgilH5KG3/nCeX1czN9JnTO71+HnPI8aX4mHJdPB7tPCN/5hMahfIQOCec9hjJqESbq4Imwty9ffAbvF+w+O+31enV4W+YS6gS7MSGhgoCVkOnPCytOTFPzyifCK8E0IiKs+PEkMnfL5bJ3quyzxeM8QuNA8LW9gJDDqqvqTmm0lXIINYJu+BJCkD1Vf/ttnkM4I9nXfgVhf+2pdAKZp2e/6SPhkmS9wp4Q+rpguCLw+eUIOzmEV5JHsieU90Ejm1WOBcGPQe4PhAbRdgV7QjQIfBla5Z6ItkYmoUQUIfQCwnBxoMWfQRleJ2+kbEIivwEjQhAjRzfIn2F57ufhZY4ytYGiZRJqRMEJbAjVrbDz7AMAVqfh2sD4J/pGEfB5OetTDTsoh5CoZ7MgBPB8F87EbYzm8dFXudwq7u+8WO4eVSivqmcS6m0RAhfsivX2/VR82vxkBrstvTI356OwlUloETUEFoSHcHCXsnzNkfXula/O40LG7p5HwgvRTJBFKy2J1A71S0F4is/tx4Qjssk8A0I5cTy751jj8fiayMBHc4QVfmOTHxMKZAGzLOoQPXpxVwd3RopVLJ4H3w8+pSVFI3UNYiYhWaAXm7H03m/mAxOp3HT/a3+pKtffRT1zTnVqAKaZhGQJZ4oJg3XPw1d1X7knfpV8X+h4WJ0B3yxN8jQ7iCoX5mwRPuimNUomIVlMcCEhTDe+4s2/ydTXl6hGcxbF/8XzZwEKSmQpmLPilqltAYXtbUG1KQxiJiFZwyskVMKl5zUqz+S+UjOsm18NgamSnm1vuDm9UtD0OfzORZ76L8o3VJ4kZxKSjVVFhPd9qWVkniePhuDkFRKPvYE8MX8KvvJeH9+SzlhLUQ/+ix3V0QjMinAcmiFjGH7jz/GCGzmbEPkQwicy00FNC+D8PjqnGUs5NZOQrKUXEfo8mvf3cfh1BXWo9TQfXceZhIB9sOUZH9MJdow+DPwXg/qEZA29gBANvG5orfjYevnMo8tm4ETNJEHobSGC3zZHY9yPPEjGUr+bwpVq+q8tBXnplusQko3HBYTBhsHWa3Kj4BsHvw6FLcbBuyYpws3h++osvfJIA/U7LNds2D/3o6QJIy44li45jrUYErbVbMLa/TDwVStr799L8LSQEOFBJiGI+j2fd2/KhQ6knu0lxuYO4R/seMpjSAuylsaGEHwPkqT6p497gUk0A0I12JhNtVLgYs/mTAyHJeHbb4v3qOZ/6k/cPcd1COvaw8D7YKnB/t06rkPeOQa9qqdyBYT4Foyk2h4Ffwunckd1HdsQQsJse/hVsw6DxH/u/N1vXjsuJoxkIxLCcAoK4qIyIXAs5qVyUI6zIg48hiB67JFw5B+GK2ilk2ByGsbRQ7SXe1F/4vIS1mH2rG1Tc20RmO3VaqX7j/cfF1t8Y77zDW6CMN7q602iXbHZTfbS7w/D3mfHUURuHyWrw0n2+rBeHSa2z/mj5xQJ6nDmONdF+AUmrMVgfHX0nlceba9GB8/1wUQ5f0RNUww6pLH0nkLmrYFbJiFZEFIeIfQTU0rJIwzHUplD0dIiQehacU6x/UeOsR21WclZ6dH46aimX9GrqQiYMHoY7CxCwm3lXMJUUKDbr+8WPy5YetYGIAezNhOuyWe4vXeD9v6LLcWsDW0zCcn2enIIgfMbae9yuFwOO78uvG3qyOLH/zFr5o2DZnjAqcBCb0wGv3tKNDNv/BDv/UDo1KpDxW9VF99vrvh14TVTk4gQvvyvfNnHdnLq7Zg4iHSzaFZP+MHv+kBItpuVQ4iCcgzcUdBdK/iWzBucg7G0jDDy4FoiTpzKdiZY9KGNHyqf98MG4tO+RY2dGbziBWEUOqbd+Zt3rsBt9i6hIBjPhIb7H1M7CGGTFLHyECoiXTisBAPYkW4BnL1vIRGZ/Lx+GLhjwp/EL++nifvKf/FYOvD9NAmfEODQbh5NjH51STIMQ9KsqcqFxwKEDyonhphDWBqlX0CY8KDFP6U8a0nXmyf5fpxHX4sqNn9Ph+FGVOXzPSi616cAhEdnyOMeMEmwCRN/Kd7Hg7thDc5+uAlS1p96PPA4FIEL6Deb0DW5JO9m4NV/Dus19Ov48/NzvOo9DawWuT8RL7L38X03SqmaJwQuHf0/yjjTS+71xo8zh6d4GpJis9hdi47yZB5VjhqcRLyBCFxePM2cZHXBZJc7QNSG61RtCpdzYL21NfHTYPrY6h8JpWFbkXvIQ+xt3CF287RCkS4mJ/s7xNqaYm/tabfuKTaRZBeYUaTCkV+JyNvZUeE3tI3CceqvJQDZ8/maIlIBPQ40z4QkGSAZRZug232olEPvhTSNqEChSi4K+fGlM4KIGlYRQ/EnZ0QM0T1pkh8jTNIRXxATNQyjvqpebraf5xLy4/bqMJb8EwwUVSP30KeQT1h+KOgl0ZfBYE8UKpnxdvHZU/BM2Cvfh3wBodgfeKLaTnt4eyKNS+Lc0wfhiRKmMcLprX8aRcGbOYTlC82IkGFiCfCP61X8AOCej8wkCcujx1Cwi2Szy+8C58vxeLQqpr5N5cJMniEdlj1Btv1xwGGWMzLK+FTxtiX4EYoJy11age9duCgyYiJx6BsLo+pImsyIlSQsDwgIU/kIq48BCw2tYLlU9bS6mTyInTqPX+5avqfyMSQGir7pqmmO9kmgFKFT6ixAa/ZZI6SqWSM4q5SQoIdDeYrpuoCHqslNzJSfIE1Ikp7mzDY1xnJfNdUQTmcZShOOCLo4cPaKVXaM0epXrGyK1HTrysjAcyJBlLEKIgtxqlr93k9kp3EyCOekF4ZXLQe7p+KM3IlZub6275muzdv6zaDJIlx29D6LUslZA2AWoTF4z0pEdpYVy8yb2M1bV8oEXEYYQA6hNHzHSkTZt+pl5y99szTJvnKqMIfQeMNKxDnJj3Ky7OrvlK48UDImq4SQ/2y7wNQa5kwj8wipjvt1QPlXleTmZKc739C28tN55xO+WVL2/FyO+TcHLN+oEsOoOkrC6gliXi+8zccoIByRBX53QWLBcrzoFpZl5Wy3L5Za5FQpvCuoenaRlwpnZA8mJDRIUvK0rqcsGJSE/OzcfUQwi+95LCYcXbufnl20iq+WKybkDbrzt68XcGXXyZcQ8hLVwcbXKxF4UYGQn3d6Cg7n0stWSwl5vcOXXZAkhy8n5FedvSIQZIJLjwkI+WNH5zZQbOopCPlDJwkBfkkKT0TIn9qmyRDAttgQUhEapSEaLxfAgGyflozQu46hW3IBCffaCQl5rVuI5IDEhNUv1WAh4Mhz3xMT8sapM3aRuA/SEXrb391ABPxLNIrSE/I7uROIMomhr0bIWx1YLoJ4KS9oZUJe77c83oB8pryJiZKQ71UO5mlI69LlUk1CXjso7fluQByWLXjrE/KGNWkLUTZ39BF19IS8MLPb8aPijU5hJWoQetlh1RY6o3qqFBJZidAdU8UXW3/ABdtLLAh54cQqsC2Tj+N+q8a0ViXkeed1phG4fnYkCVtCXlqcXwR4PlDbiEYI3d44VJh3R0DKsFZEci1CXnAGHNvLkQH2q3pR5fUI3SnOdc9wwSHL9rVGA22E0GO0GTHKaFObrwlCd8hZbRh0Rxnfrk2cemiC0JVuq7hB4wEcUm9OhSlahhoidCvypFDf0pAPKG4bu0eyMUJ3tnrcm/UZQebMdYUlRK4aJHS1XPycOVSZEgCBuT7o6Uy0NdQsoVuRzmLgQlZZQcqYO/8snKbPVDVN6ErSrY+9iaguEJcxUuzDuHE8ngmhK6OnXw+2l/hXLmuyILv/S9kcrnqPzUkqNoSejPlMt072F6gYeV0zkd0rQFPRl30a67M5u/N+7Ag9CYYkaUvrsrWnSnCbWigsKlN7e7B0TZOMZuxentgSRvIvvhcMLbwXUjOCX7zks19D2Kb+CN9ff4Tvrz/C99cf4fvrPz6RMJnniw47AAAAAElFTkSuQmCC;imageBorder=#dedede;" vertex="1" parent="1">
          <mxGeometry x="150" y="250" width="80" height="80" as="geometry" />
        </mxCell>
        <mxCell id="9tC2t4doHbZ-rZqAeVVs-17" value="" style="shape=image;imageAspect=0;aspect=fixed;verticalLabelPosition=bottom;verticalAlign=top;image=data:image/png,iVBORw0KGgoAAAANSUhEUgAAAOEAAADhCAMAAAAJbSJIAAAAnFBMVEV9vkL////l5uXk5eT4+Pju7+77+/v19fXx8fHq6+p5vDp2uzR0ui97vT7b686o0YduuCTG3rfr6e33+fXn5uhuuCL9+/7t9Ofv7fGby3V+vUWu05Px9u262aTS5sSOxGPF37Lh7dmKw1eizoCWyG6OxWK22J3Q38W82qWr0o7I4bbf7dXK3ry71aiEwU7d5dfX4dDl6+Hc4dmvz5kgzPpwAAASQUlEQVR4nNVd6WKyOhAFtWqzKAIi7vtWrV97+/7vdgMuLElYJsHa+eO9+SxymJnM5JDMGKZpNmq1WoN91mu1N/bxVqvVY6M1hVHX9UzT+Tp/fh676/nqYlxltFqt193jZ285MFu27bLvNtmftqIrtK9XiI2+Q0eNihAGd+19nX+GK2JhjBFClFLjLuy/2QjChP3jfD09OabnulUirNfqAoSA0fv92fa/2XjObp8BM3KEYSV9Y/hzrnn8/bHrCu661KjRaDRab29vLfbJPtrso80+FUY9b/CxNhi4XGxJnNha7TpN329ruIf4qMGghsqop1QEHZ11S6OLUBKyOQxM170pox4qo55SUclRQ+xQEJd07dpsSAgM3QMlti7HvS0wWKhL6tNh6xzAU0EXqdLYDfTpUIu1N/zlEREl5aVAWttFy9Pjh1rm0t5Fi/YSIDHpLj1Xw1yqHA9tZ0c0qi8mTJE939UTD+tXvdRvblavFx1t2/+tLVwFvFAoGf2Ez7N+c7P6VS/1q7YKjRoAWI/Rmr1c93WbZwojJj/vbmlYsVGVaGH/21jV4gsF4x/FaAGdXiZrqxL3E2BEPdODJnAGcCL2mlPt06dcKLns/TYscCSjRfEw3yPVzS9ijJsJLPjDosVgS56KLxBkTduu8uqpkA7dxu5ZDpgUPDrbAB2WtmtvP3qugUZCrXWrXdoPS86lbfP4Owq8CkJnu+xcWi4e2v8uv6XAm1jr93I0R7mcxp/+pgKvgkb/yuU0JVI119w8fwrlhfanfpm8tHi0sL/o82J8ppBhiRVH8fWh/fn7FnoXNPounMAVXuO31q9goXeh+OTp5drc7+0vz6FpsaZ2seBfLFq4/41exAUjId2C0aKIDr09fhkXjIQMtXFt/r4aHkZV8Haih2uzz9ZvY5EIGmnh2uzDqwJkU6rhaODapq8UJdJCkZOb0+TMNPZLAwwg/peAlTTYAlzbK5voVSid5EaLjFTN7706QAbx4sC5Nm//+gDZjHoJE7g3IYq3TK7N3b+2D94Fzd2MBC4jWrj/XjGTEQkeFl49JXT4PfojAFkCN4Vwba3tyyXbcrF6fmmuzV6/2HIpW6wvXzaXSuKh/fk3Zpm7UPQti4fiVM39+gtxIi50ZWZxbfxMo7Zn5DcEd+0S0cLf/KFZ5i7kLGLg6sL1of3zt5zwJuS/olxb+19lThjsSazM/unqkarlcW2Xim4CkdG8u17hqkgR/GMXWj15x2oiISLHgRlKZ14RRuvLLcC1uadKbJRam4n5kFk17yDpin+FKvDDStJRclmaCTlUstEB/3j5XNuugqeL8YeZFqfbr+BRWpP321wqjYcD/TaKrDGHL5DlVr870rmfx7Vtdf9o0gGTMqPaDYZ8uplcm9fTHevJqCPDF8hU+744nP1mpqkZIMKHLHyBOw41v5bEuwChlGubarUaZB2bKUCT+ZRzx4vex9qfZHBtE52/RclmkEYz7lNMObOdYZ0PFg09KddmrzU6BblwSBYoQELJnEO+07mN0/oyJdGipjHjRniRRnFa3S2EWkcnbb1DfZGDzk0J12ZvdP0IJTkQEMp4AMpiLcVcW3upSYUCM/SO6SRNasQ6bmDrC7k2XV6IDe7ePwT3zjIBfiLSlKySvSuKFv/1dVwcWVwEXErsj2VzvC1riY4sdxNwbVpUSPvdMjeN+Iz8pCU6kr2Aa3M0eCHZlo0D5HLi3FGDqbKYyEeLnfJ1MZql73aWux2cuWNa6+ZRfV1FvnmuTdU4kLUr6oCpP+xzi6vBRtUd0dFOcW0NxUUFtYacA66LqkKwQO6ouiNuX0/VPbg2X2ldSMlqmb7HUusijuRQdkcyS3FtS5VHhg3eAUuubam1Tq+THaUd5UHqluDajvAHhgjvgAC6EFncumqgwjpagzjX1m6DAYocsAt7+JhyptCB0xxo7Lcirs09Q42UrLgU7YChj4uSLeeOcNaR1swoHtpDmDVgxE2CalyvyB2hR+TI2YytnkAqpNYuTVIMlAlCkTvC1lVobd64NjaXziCXwNv0424CHTB1Xd4dZ5DnRg07WlsMAbYebmJJiI6EMrw1Pr0dQK5Mzu4DIUCF4XvzuHQMfXQStdJLFMjqPMjcblwbxEj7SRMdbPXSnoik3HFc/vnRUfvGtXnd8jaAugkHrOBAGx4l3RGgBRb0r9HCM8rfHol7ii4HTEqK7gGoAS9u0QLyuolEP61nVS6SBOs4A5jp5sq1tRegv72J9vcOCYnRrhA94CvXZgNiBXqEiqpPC/XvWWETYmn7MFrYADeMJhpgNSEcVMFiQgjBiGZcBPcUEKKdbxp1F8LlKyCkDNt2fJidlgMmy1PnsNsEhZckX38ghDBldO4HXBvAhYsgDIqYMUlRUci6HJYmJ5PZWlICRkmHBvGCaDEGTPX5CMk9IzjEINL+UADvPlleRBgVES6DaAFhaAro8P6FThRLBHRqEqPBP2wlKzXwh2s0PEg0y0dIeYQ83cgJf1BVTYfo6Bvu17MQWj0OEC/cISQ1hCxuG+4ZEtAACEkRgKa5S0FUs1KWexnuDySnLI8wmapnSCr/UNOhYTmGB1n9AhCSJOHhLGfnxeHwMZudUivB1IYXVR3uDXMFyUpKI8TxWWY5vrBk5houWWpDN4s4/EPCbRQR4k8D9kamNEIrWjBP5lZqnzDFiWk2cUeKVorGBuzRlEVItxFA4QtFEn0hyb8r6hCtDVCwKI0QRS/QJFusY8RWJ35LijqkQwMULEojjF6fSSkl60FaNOMbChQRGhfj8ykIyeP2pcvtGHkXV7OilTL5BFEspRE+3tYfpE/UeiSt8QCmqkPDgL1Wg+uwI/X7yJLHWhHC9pjA/dCUvoSIuJ+NVitdg2iI0nNpjN+dymoNI7oKZSSMFmAdzp+CMBYPg6EgpxEVjKZXiQ+p6xCUtJXPaUgq+3ROi+MWWTk0lKED4Qj0V2p56UMmnY/xZkXECr2KupU+CSGnxCTQw5rZrXDOU9chTADrwy0HLAVz1hXRbeo6hAlgjc+/UeWls+G2Uf0hhAZeSc/ORDKY62UxwALi2mg/n2wz03sK/pIOmQR11nMhLnWugMECRBiw+vQ4y7HWxBHPPxMPY/+AsIXnx0VnII0fejPvFeivFBBe//XaY2a12S06vEaduGH/laxN8qUAqUXnu06Sa4wp8a+sLUQ5dey7iJBhfOdFbD7VsD58CkK8DSVjgxoil+jFVExf6joEbOIwSiN8vEzMNNnguNJNdOoQ8n60PML7/0yybjPa/hDjotQRPoWJinbfZDF79PL42opHCLbS3jPYxIjTz3oPFEOoU4ewTfpldfjwsKxNghEVFVO1OiMMqzBQEmHsQGkGaRGd+9Y3l9KhYYLO5JVEGNPOUvp7NKIB9MVD1DW857D6UQ56kpylQbHtjvpyGvxp2CA6sXTEjx37dbocYUopTtSWEGXeQIQzwwbR+qWzNhRPPJu9bkCwPaQ/2iziO20+YnalaKVkYLjT5yDkNio4y05nz6RzGqTONDQ1viG1TMM8PWc/DeGOGEhlo5PV9w3TgUymkP00y4IAxxpZDDS0DdgOUcj6sF9sy1BX524TNHWNpgc58wTb11Zg09AkvedYcW/i/s2ogTZFwdb4COepccex3moIrW+TIYRUC4ayGARP5UTbYCc4+a22R9jww1NBleyClvE02Nru0hu9Ag2dDivhRhu1fd5rhrDV8gBklAoTRRGxLpvxYdbpLJl0ZovdemURSVlmoqJDvGi0g628gFoD4dm+UFaSP85hE0M6kdw368urRWI6UUBoDa6ngrLIE4lEi4WJ5DRyITYx92dihaYGgLsc3U4FOYB7wJELzYRlZXQgtObxUovlF0HMl65nSH1AbaFEhrITFE9QR0hGiaIgkJNdn+71hKUPOPiEErUsJlwdi4hzASJEJFVnCXIo6L/bGdI26PBacsY/pY5wR8wgCCHlKr0BKsnR1e0M6XvbAxT0RPPkHZiHRDgjj01QkFN1fKEpwDzDklL//a0ZnlZ3Iatgkq654sROcrNZDP7w06dHAzeANDEItgLeKg7A2jwQrnTO8t6eG9NIB2U3zolKLc4gAMPtnPeKA++AA3riqnNrZBELxStclbsyf4qbWegQRrOFjZLrRptJywOWUBIUXTMn3wkfKkUhiAoOOmNgxUEyCLHd6tNAK8+Kiq4lpYyRChwQXqaOzpP12sAlhhBfQDCh0eIqFFR6Uyk1iD+S9drkm5Pz7ywdm+NSuEA/c0Bu5ahULhLH67UFBb5VTpyL3PEqhfthCSrTmFAHDAWt7bA+Te2OEFJXIRJRMdZAiraLwph3QFGtxRJC9m6qXpti4UtqrXmM3WIaRH2uJI1y6V16edRrazabrff395anWuYaWZukInqokFmIiu6plzHA57f390az2Xh/VLt2YS+DE/dK0HE28NjVvMFsjArNElRQqY2txtQrHIZFdZO9EXwdxR8QtkIhBathYcTzizrqJuOf4EGneiO4eitdPwQRaXVIxGXvRWst5sm9XUmgwxaTILlptRpVlChBLMw54mmRWkM+AkILe6V+9ei1r6Ba7Xil5B/dSqT4HsYF5XPJiqtcak41Fb3uO5Jq13oRUrI6PJSUTk8wXwxaXx8BdJT0RnC1KpGmWiLEU0xBBWGdvSD6TrI3wr1SMktydPbxie2/uMnHTUfMAfk1kpZSb1dBY/vaOeCd7xygtfcD4ksEh+4oymK19mQhjYw+pFr7IAkmy8mwL2jIorevDj6Yid4ILGNrs8ytzT6bTU9zX05BEcQOT1Lo7Y1ER14jSEMZKJa43bi2qLMchP7OFEERxOocMBTSc7M66bQzN4BCRES9xER7qTc6t3P6kOpvhkQlrYICkx1pz6PIPzfVHfCW3TySnHYFDa1E7Z7MsHyE/p/68R5paCvOtUV9SOEFd7NEUA27ilqLbOGbbA0s7EOqtRVL9NPp8rkLcLXhLCH7EGFOH1IHRIDnCiIxsvCk3wEDwUdb3If0nnlf1dk+V3RKDF+my4kzWS66FdWSDN8HvT+6kiW5tkTL+Ers1LiW2wt3JlRz+bC/TLE+pG41dlq1kIi6iCO8c23s85HAvf3T0pDlyYLm/iNVu6ahSa4t3oe0BFf9QoJjC/vsPqRh6ydQBbBfFesk6Vot1mH9z7liWDs6rcMU19ZKJHCQrQG/KHjoiVCkuLZ6wmA7f6n3OF0lU7XcvtxhO8s/NNtQ5CSdL6sPaZTA2QVfHb2ABHvQEqmalGtLJXDDius86xKr46dSNSnXljZY2ebR1xKy4BIZOdeWnnSq6kGuU4I1C4dQxrXxCdzrh0UyNhOpWjNI1eRcGxf8nera2esRsvMEqVqhaHEbfXGIZCdM1bK4Ni6B+++VDTVopiVK1TK5Ni71cS4vO6OSsSdO1bK4NkEC97IQreQbCoE6c+PhbdSZv2ToJwup82VzbYIEzh2+XgJHrY48Vcvm2oQJ3Mul4ZQu/Rs3KEjVcrg2ocF+vNZiCq+crFQtj2sTTTr+vtgmrucIGQqwJCedTK4tncCFCZH/XXVLmeJiTb3YnQlStdiojKcRjnZfw1IRPglZNT5aZHBtYpe0z1rfRwOFzB1xXCjHtUkYuO/Vb1sqtca+KLYLdRgilHFtstGf31UjHi29UvebwbVJRu2vX1QjJUfBrClQXJnVk5l2VNf+qbIPWZbgy94u5nzFuDbpqMcVGX2KUPLjulxSJk7VinJtstF3v6dhH29ZfPMv75qUiVM1WQJXKlpE33V17MUuI+Rytl1RyiJO1YpzbRmjk0rbAiYF4YPnipOyfIQ5XJswgbuOel/z52BE/XHDbAjvocBoPk8jGQ3nn+Wq+uiI+kfHFgd0eaqmFC0So95+XkkP0ofgsFFnsbgA5dqyR117P6wMI8V4WrvuPhAnZdJUrRzXljfqfR9xFcaKyKXX8FTurDDXljtqv83mms4R3IWpb7333/JVpIdrK+KSgzHSZq0UkfmHabtw5yvNtRUZbdfOayTpPlIKHrZWPwOzaFKmjWvLHw3TpPNxZEHOzj+Uh8lqOnikX4/rJpIy8agy1xY5n8hg76Ou3R4sNhiiyqCS+ajb+/Z9s0zKoo9rKzR6x73fbbAl7zvCCULEGq2D2oluIf6sTAJXnGvLGuWSJ9/3lr3jhuQ1kglbH1vGcLpnf9KAJGW5o+V4mnqJ0ZrLzM3pfI7Xw4sM4GXYPcwGpm+7orhQKCnLHf0frZaTQkTSmpkAAAAASUVORK5CYII=;imageBorder=#dedede;" vertex="1" parent="1">
          <mxGeometry x="390" y="250" width="80" height="80" as="geometry" />
        </mxCell>
        <mxCell id="9tC2t4doHbZ-rZqAeVVs-18" value="" style="shape=image;imageAspect=0;aspect=fixed;verticalLabelPosition=bottom;verticalAlign=top;image=data:image/png,iVBORw0KGgoAAAANSUhEUgAAAOEAAADhCAMAAAAJbSJIAAAAllBMVEUUhsD///8Agr75/P0JhL/Z7PVQncsAi8Pv9/t0r9QAgL19tdcAg78gkcUAfbz7/v7m7/bM4u+lyuL0+fwxlcePutoxlMeGwt41m8vX5/Lh8PeWw9/Q5fG42etlps9Ios9xtdis0uehzORkqtKGvNuk0OZ6uttFmMmTxuFRp9HD3OyVwN231ulCn84mlMegx+FqqNBjr9VrmussAAAP/0lEQVR4nO2d6ZaqOhBGIZSCERDE5jgrztDaw/u/3GUUZUyACN7V34+z7O4jZpuhkkqlwvH/d3FtF4C5/gjfX3+E768/wvfXH2FjGgnPGr3qg1kTCoakaZpjXU5be3ObTL6Ur8nktrF/TxfLmWuSZAiMS8CQUJDmM2d3siecqmKMEcjgivP+kQFhhFWVm9innTObawwxGREK86XzPbiJLpjLxeXJZUUYi7fBwtHnjChZEBrL6+d+Cm6t5bM9cyIM5v7T0iUGpWmcUHAWg76ISOkeMcXzYLFqHLJZwpF+WZscNV0MyZnrg9PsMNskobRz8Yq6HYlkzuxf5g2WqjnC5a/IuSNlLbywLjlx7zRWroYIBUtRUQNwESOo4rGhsbUJQkHbfeEmKu8JEiuXRsxkfUJh9m02zucLKZdZfcbahLPvKWLC5wqQuVi2TDj/3jDjCxini16LhIa1BpkhX8Boj2vNAuoQ6gORNZ8nuZ7tqE4oHUyW7fNBwCmn6nOAyoT69EV8gczViwmNrfpSQA7U34q9sRKhMFPwS/k8YdGpZByrEEqXRqaftAL4p72GcLZvg89H3C/pV1bUhMK1X3N9VEPy2TJYExoL8xU2MBdROdAOOJSE0lZsrQJ9Aben7Ix0hNKmVTwfEc50E1UqwnnLFRgIOCpEGkKda7MLxgKgmeBQEK46UYOegMbFQUwoWEpXAD3EHTEiKaEwftVKgkigfJMaRkJCYdeqGUwLxAshIiGh1TFAioZKRrjqUB+M5CI2R+h0ZhR9FIhWU4TzVhZL5QKZxNVIQKh1sgY9Ec1uygmlTVcBXcRzuYeqlNAYtI1RqH3pYqqMUFiIbUMUCbhDmVksI7x2aiqTFijjErNYQrjsd83SJwVnvQ6h1JbTiULypnjRX0goXNpzOpFLPhV2xUJCve3CEwlQ4YK4iFDqrKlPSC5qp0WEvw3GHjAV2lQjXKltl5xY6rEKoTR5kzbqScmfoOYTHtouNZUGuXY/l9BR2i40lfLXinmE0r7tMtMJ1nmrjDzCcacn3GkBt6Aj7Nldn48mBf2cBX8O4eJdTGEs/JE92GQTLm9vZClCgZm9yMgkNN6wCt1KzF4MZxLOOr7szZGSWYlZhMLi9bEkTQhlLqOyCOcd9HCTCMQZIeGFrArZfA11nopOZIQGibEHrIoKC4kqrmyKATJ8ixmEu/IqBDw5agIbSSu7clA1+kdEWF6FIFaOFCTSclOxsQImIXRKF75Q4t2qL2lYERGnd9zShHbZs+U+a8DqewlwKycsj5lRmjvPkq95tUkHcCmrnyL8V/YQVLpTUEPxowlNVgpxWEZo9Eu+OxAbq0Jp/BHrU/ciWob3wDyj2tQYzskulCRcmWWP2NQ8/xBrweFYaN1zPxzjex1UW96kt76ThKX+JzRobJz5eawmMFcuMoAS/XVbcX2TbKYJQmldNqFAw8ZOeR7khzpU+3N+pWB1G/31X8WO2E+0sQRhaSNtkpBf/Yu18x6rby/3P1YlTDbTBOFnaeNvkrBQFQk5+CgilH5KG3/nCeX1czN9JnTO71+HnPI8aX4mHJdPB7tPCN/5hMahfIQOCec9hjJqESbq4Imwty9ffAbvF+w+O+31enV4W+YS6gS7MSGhgoCVkOnPCytOTFPzyifCK8E0IiKs+PEkMnfL5bJ3quyzxeM8QuNA8LW9gJDDqqvqTmm0lXIINYJu+BJCkD1Vf/ttnkM4I9nXfgVhf+2pdAKZp2e/6SPhkmS9wp4Q+rpguCLw+eUIOzmEV5JHsieU90Ejm1WOBcGPQe4PhAbRdgV7QjQIfBla5Z6ItkYmoUQUIfQCwnBxoMWfQRleJ2+kbEIivwEjQhAjRzfIn2F57ufhZY4ytYGiZRJqRMEJbAjVrbDz7AMAVqfh2sD4J/pGEfB5OetTDTsoh5CoZ7MgBPB8F87EbYzm8dFXudwq7u+8WO4eVSivqmcS6m0RAhfsivX2/VR82vxkBrstvTI356OwlUloETUEFoSHcHCXsnzNkfXula/O40LG7p5HwgvRTJBFKy2J1A71S0F4is/tx4Qjssk8A0I5cTy751jj8fiayMBHc4QVfmOTHxMKZAGzLOoQPXpxVwd3RopVLJ4H3w8+pSVFI3UNYiYhWaAXm7H03m/mAxOp3HT/a3+pKtffRT1zTnVqAKaZhGQJZ4oJg3XPw1d1X7knfpV8X+h4WJ0B3yxN8jQ7iCoX5mwRPuimNUomIVlMcCEhTDe+4s2/ydTXl6hGcxbF/8XzZwEKSmQpmLPilqltAYXtbUG1KQxiJiFZwyskVMKl5zUqz+S+UjOsm18NgamSnm1vuDm9UtD0OfzORZ76L8o3VJ4kZxKSjVVFhPd9qWVkniePhuDkFRKPvYE8MX8KvvJeH9+SzlhLUQ/+ix3V0QjMinAcmiFjGH7jz/GCGzmbEPkQwicy00FNC+D8PjqnGUs5NZOQrKUXEfo8mvf3cfh1BXWo9TQfXceZhIB9sOUZH9MJdow+DPwXg/qEZA29gBANvG5orfjYevnMo8tm4ETNJEHobSGC3zZHY9yPPEjGUr+bwpVq+q8tBXnplusQko3HBYTBhsHWa3Kj4BsHvw6FLcbBuyYpws3h++osvfJIA/U7LNds2D/3o6QJIy44li45jrUYErbVbMLa/TDwVStr799L8LSQEOFBJiGI+j2fd2/KhQ6knu0lxuYO4R/seMpjSAuylsaGEHwPkqT6p497gUk0A0I12JhNtVLgYs/mTAyHJeHbb4v3qOZ/6k/cPcd1COvaw8D7YKnB/t06rkPeOQa9qqdyBYT4Foyk2h4Ffwunckd1HdsQQsJse/hVsw6DxH/u/N1vXjsuJoxkIxLCcAoK4qIyIXAs5qVyUI6zIg48hiB67JFw5B+GK2ilk2ByGsbRQ7SXe1F/4vIS1mH2rG1Tc20RmO3VaqX7j/cfF1t8Y77zDW6CMN7q602iXbHZTfbS7w/D3mfHUURuHyWrw0n2+rBeHSa2z/mj5xQJ6nDmONdF+AUmrMVgfHX0nlceba9GB8/1wUQ5f0RNUww6pLH0nkLmrYFbJiFZEFIeIfQTU0rJIwzHUplD0dIiQehacU6x/UeOsR21WclZ6dH46aimX9GrqQiYMHoY7CxCwm3lXMJUUKDbr+8WPy5YetYGIAezNhOuyWe4vXeD9v6LLcWsDW0zCcn2enIIgfMbae9yuFwOO78uvG3qyOLH/zFr5o2DZnjAqcBCb0wGv3tKNDNv/BDv/UDo1KpDxW9VF99vrvh14TVTk4gQvvyvfNnHdnLq7Zg4iHSzaFZP+MHv+kBItpuVQ4iCcgzcUdBdK/iWzBucg7G0jDDy4FoiTpzKdiZY9KGNHyqf98MG4tO+RY2dGbziBWEUOqbd+Zt3rsBt9i6hIBjPhIb7H1M7CGGTFLHyECoiXTisBAPYkW4BnL1vIRGZ/Lx+GLhjwp/EL++nifvKf/FYOvD9NAmfEODQbh5NjH51STIMQ9KsqcqFxwKEDyonhphDWBqlX0CY8KDFP6U8a0nXmyf5fpxHX4sqNn9Ph+FGVOXzPSi616cAhEdnyOMeMEmwCRN/Kd7Hg7thDc5+uAlS1p96PPA4FIEL6Deb0DW5JO9m4NV/Dus19Ov48/NzvOo9DawWuT8RL7L38X03SqmaJwQuHf0/yjjTS+71xo8zh6d4GpJis9hdi47yZB5VjhqcRLyBCFxePM2cZHXBZJc7QNSG61RtCpdzYL21NfHTYPrY6h8JpWFbkXvIQ+xt3CF287RCkS4mJ/s7xNqaYm/tabfuKTaRZBeYUaTCkV+JyNvZUeE3tI3CceqvJQDZ8/maIlIBPQ40z4QkGSAZRZug232olEPvhTSNqEChSi4K+fGlM4KIGlYRQ/EnZ0QM0T1pkh8jTNIRXxATNQyjvqpebraf5xLy4/bqMJb8EwwUVSP30KeQT1h+KOgl0ZfBYE8UKpnxdvHZU/BM2Cvfh3wBodgfeKLaTnt4eyKNS+Lc0wfhiRKmMcLprX8aRcGbOYTlC82IkGFiCfCP61X8AOCej8wkCcujx1Cwi2Szy+8C58vxeLQqpr5N5cJMniEdlj1Btv1xwGGWMzLK+FTxtiX4EYoJy11age9duCgyYiJx6BsLo+pImsyIlSQsDwgIU/kIq48BCw2tYLlU9bS6mTyInTqPX+5avqfyMSQGir7pqmmO9kmgFKFT6ixAa/ZZI6SqWSM4q5SQoIdDeYrpuoCHqslNzJSfIE1Ikp7mzDY1xnJfNdUQTmcZShOOCLo4cPaKVXaM0epXrGyK1HTrysjAcyJBlLEKIgtxqlr93k9kp3EyCOekF4ZXLQe7p+KM3IlZub6275muzdv6zaDJIlx29D6LUslZA2AWoTF4z0pEdpYVy8yb2M1bV8oEXEYYQA6hNHzHSkTZt+pl5y99szTJvnKqMIfQeMNKxDnJj3Ky7OrvlK48UDImq4SQ/2y7wNQa5kwj8wipjvt1QPlXleTmZKc739C28tN55xO+WVL2/FyO+TcHLN+oEsOoOkrC6gliXi+8zccoIByRBX53QWLBcrzoFpZl5Wy3L5Za5FQpvCuoenaRlwpnZA8mJDRIUvK0rqcsGJSE/OzcfUQwi+95LCYcXbufnl20iq+WKybkDbrzt68XcGXXyZcQ8hLVwcbXKxF4UYGQn3d6Cg7n0stWSwl5vcOXXZAkhy8n5FedvSIQZIJLjwkI+WNH5zZQbOopCPlDJwkBfkkKT0TIn9qmyRDAttgQUhEapSEaLxfAgGyflozQu46hW3IBCffaCQl5rVuI5IDEhNUv1WAh4Mhz3xMT8sapM3aRuA/SEXrb391ABPxLNIrSE/I7uROIMomhr0bIWx1YLoJ4KS9oZUJe77c83oB8pryJiZKQ71UO5mlI69LlUk1CXjso7fluQByWLXjrE/KGNWkLUTZ39BF19IS8MLPb8aPijU5hJWoQetlh1RY6o3qqFBJZidAdU8UXW3/ABdtLLAh54cQqsC2Tj+N+q8a0ViXkeed1phG4fnYkCVtCXlqcXwR4PlDbiEYI3d44VJh3R0DKsFZEci1CXnAGHNvLkQH2q3pR5fUI3SnOdc9wwSHL9rVGA22E0GO0GTHKaFObrwlCd8hZbRh0Rxnfrk2cemiC0JVuq7hB4wEcUm9OhSlahhoidCvypFDf0pAPKG4bu0eyMUJ3tnrcm/UZQebMdYUlRK4aJHS1XPycOVSZEgCBuT7o6Uy0NdQsoVuRzmLgQlZZQcqYO/8snKbPVDVN6ErSrY+9iaguEJcxUuzDuHE8ngmhK6OnXw+2l/hXLmuyILv/S9kcrnqPzUkqNoSejPlMt072F6gYeV0zkd0rQFPRl30a67M5u/N+7Ag9CYYkaUvrsrWnSnCbWigsKlN7e7B0TZOMZuxentgSRvIvvhcMLbwXUjOCX7zks19D2Kb+CN9ff4Tvrz/C99cf4fvrPz6RMJnniw47AAAAAElFTkSuQmCC;imageBorder=#dedede;" vertex="1" parent="1">
          <mxGeometry x="510" y="250" width="80" height="80" as="geometry" />
        </mxCell>
        <mxCell id="9tC2t4doHbZ-rZqAeVVs-19" value="" style="shape=image;verticalLabelPosition=bottom;labelBackgroundColor=default;verticalAlign=top;aspect=fixed;imageAspect=0;image=data:image/jpeg,/9j/4AAQSkZJRgABAQAAAQABAAD/2wCEAAkGBxIQEA8QEBIQFRAVEBIVEBAWFRAVFg8QFxEXFhUWFRMYHSggGholGxUVITEhJSkrLi4uGB8/ODMsNygtLisBCgoKDg0OGhAQGislICUtLS8tLS0vLy0tLS0tLS0tLS0tLS0rLS0tLS0tLS0tLS0tLS0tLS0tLS0tLS0tLS0tLf/AABEIAOEA4QMBIgACEQEDEQH/xAAcAAEAAQUBAQAAAAAAAAAAAAAAAQIEBQYHAwj/xABAEAACAQEDCQQHBgYBBQAAAAAAAQIDBBExBQYSIUFRYXGBEyKRoSMyQlJisdEUFXKSosEHU4LC4fBDM2Nzg7L/xAAaAQACAwEBAAAAAAAAAAAAAAAABAEDBQIG/8QAMBEAAgECAwMMAgMBAAAAAAAAAAECAxEEEjEhUfAFEyJBYXGBkaGxwdEy8UJS4RT/2gAMAwEAAhEDEQA/AO4gAAAAAAAAAApbu1vA1bLmetChfCl6WpwfcT/Ft6eJZTpTqPLBXOZTjFXkzazCZRzostC9SqqUvdh3n44eZzPK+ctptN6nUah/Ljqj4bepiGalLkta1H4L7FJ4v+q8zfrd/EXFUKK4Sm2/0q67xMFas9bZO+6ooLdGMVd1uv8AM14pH4YOhHSK8dvuLyrVHqzI1suWmfrV6z/rl9S0lbajxnN9WeAL8kV1Iru957xtlRYTn4suKWWrTD1a9ZcpyX7mPAOMXql5IE2us2Cz5522nd6XSW6SjK/q1eZyw/xHmtVajF8YNx8nff5GiMhlM8HQnrBexZGtUWjOw5NzvslfV2mhL3and/Vh5mfhNNJppp4NYM+fTJ5Ly7aLK76VSSW2D1xfOL1CNbkpPbTfg/svhjP7I7iDSch5/Uqt0LRHs5++r3BvisV59DcqVRSSlFpxavUk001waMqrRnSdpqw3CcZros9AAVHYAAAAAAAAAAAAAAAAAxuWMr0bJDTqyu92C1ym+C/csM6M5adjjcrpV2u5T3fFLcvmcqyhb6loqOpVk5SfktyWxD2EwTq9KWyPv3C9auobFqZjODOqtam436FHZTi8fxPaYApJN6EIwjlirIz5ScndkkEkHZyCkqKSQIAYAAQSyAAkglkEgUgkgCCDM5Bzjr2OXo5X07+9Slri/o+KMOQczhGccsldEqTi7o7Xm/nFRtsb6b0aiXfpP1o8VvXH5GaPn+zWidKcZ05OM071JO5pnUs0M7o2tKlWujaEuSq8Vulw8NywsZye6XTp7Y+q/wA7TQo4hT6Mtfc24AGaNAAAAAAAAAAA13OzOONjp3Rudea9HDd8UuHzL/L2VoWShKtPXdqhHbObwS/3A4xlG3ztFWdaq75yd73JbEuCH8FhOdeaX4r146xevVyKy1KbTaZ1ZyqVJOU5O+UntZ5lJJvIzysgAkgqIAJIBSVFJIEMAAAZBJAASyCWQSBBAAEAgEgAIhNxacW00701inwJKSSDq+ZGdStUVQrNK0RWp/zoraviW1G3nz7Z60qcozg3GcWnGSxTWB2TNPL8bbQUncq0blVjx2SXB/UwOUMHzb5yH4vXs/x9RpYevm6MtfczwAMwaAAAAReSa9ndlLsqXZRffqXp8IbfHDxLKVN1JqC6zmclGLkzQc/cqStFoWv0EU1RWxv22+L1dLjWkzYrfZe1puPtYwe6Sw+nU1qMtj1Namtz2npaUYwiorRGW5OW1nomSUEplqOT0BQVXgQVElKJJAkpBDZJABfWLJFor66VCrJbJaLUXynK5eZlaWZFuktdOnHhKpD+28qnXpwdpSS8UdqnN6JmtkmyTzGtqwjSfBVF+6Rj7Vm3a6WudGSW9d5LrFNHMcTRek15k81NdTMWQz3+xT+Hx/wT9gqbo+L+hbzsN5zkluLUF19gqbo/mf0H3fU3R/M/oRzsN5GSW4tAXn3bV3R/M/oPuuruh+Z/QnnYb0TkluLQgvfuqruh+Z/QfdFXdD8z+gc7DeiMktxYmTzcyxKx2iFaN7jhUj79N4rntXFHl9z1t0PzP6FX3LW3Q/M/oRKdKScZNWZKjNO6O4WavGpCFSDThKKlF701ej2NJ/h1aKsITstbRuj3qLTv7r9aOG/X1Zux5etS5uo43vu7jVhLNFMAAqOwczy5bu3r1J+zfow/AsPHHqbvnJa+ys1Rr1pLQjzlqfle+hzk1uTaWx1H3fYji56R8SowGXrLoyVWOEtUuEtj6/NcTOlFekpxlCWDVz+vM1BNOxqsJXlaKK1JwlKEsYu7nua5rWTCR2mdtHoSU3gkgrJKbzbszM1ftF1otCfYf8dPDt3vfwfPljxWrRpRzSOoQc3ZGOzfzZr2y6Ue5Rv11pJ3PfoR9p+C47DoOSc1bLZrmoKdRf8ALUulK/4VhHojNRikkkkklcktSSWCSNeyznZSotwpLtai1O59yL4y2vgvExJ4jEYuWWGm5fL4XYOqFOiry8/o2ISkli0ubSOY27OG01r9KrKK92PcXlrfVsxUne73re96y+HJMrdKVu5X+UVSxy6o39Ps7FGaeDT5NMqONpXGQseXLRRu0Ks7vdk9OPhK+7oTPkiVujO/erfL9iI45X2x9f0dDyjkWhXv04LS/mR7svFY9bzUcsZt1KF849+ltkl3oL4o7uK8jKZIzxhNqFoSpy/mK/RfNYx81yNpi00mrmng9jQk+fwzyzX14MZi6dVXicqUStRNpzhzfSvrUFxqU15yivmjX4WfiPU6kaiuiiScXZngolSiXMaCK1A7uc3LaNJnoqR76JKiFwPJQKlE9dElRAgWSs6VSFSOMWnzW1eB0KlUUoxksGk1yavOfaJtmbNo0qOg8YO7+l61+/gJ4yF4qW4voy22MyADPGTTs+7T3qNLcnN9dUflLxNVMtnTW07XV3R0YrpFX+bZiD0eFhloxXZ77TJryzVGySSkkvKjFZdsulFVFjFd7jDf0+TZg0biatb7L2VRx9l64P4d3TAlFkX1FEZFR4plakdraDNhzQyH9sr3Sv7GF0qz3q/uwv3yufRPgddhFJJJJJJJJakksEkYTM7Jf2ayU4tXVJrtKu/SklcnyjcujPHPPKjo0lSg7qlW9N7Y0/afN4eJgV5yxVfJDTRfL46rD0EqNPNLx+EYnOrOR1HKhQldTWqpUXtvak/d+fLHVQDeo0YUYZIfvtfHYthl1Kkqks0gQAWnAAAADO5s5xSs0lTqNug3hi6T3x4b14ccADirSjVi4T0JhOUHmjqdkhJNJppppNNa008Gmapl3J3ZT0or0c3h7s8WuTxXU88xMqtqVmm/VTlSfw+1Hpiub3G0ZQsyq05weLXde6S1p+J5uUZYWs4vhbzZUlWp3XDNK0SdErUd+O1bntK1E0BU89EnRPTRJUQA8tEq0T0URogBRomWzbq6NZx2Si11WteV5jdEuLBPRq05bpq/k3c/I4qK8GuwmLtJM3MAGOPnLcp1NKvWlvqVH+tlqVVXfKT3tvzKT1SVkkYr1bAIJAgFnlSydrT1evHXDjvXX6F4ABOxp6Mlm/Y+3tVnpPCVWOkt8E9KX6UyMs2XQnpr1ZvwntXXHxMv/DinpZQpv3adWS56Gj/cRWllpyl2P2L4LNJLtOtnMc6LZ21qrS2Rlox/DDV89J9Tp05XJvcm/A445N63i9b5szeSYLNKW6y8/wBF2OlZRW+/p+ySADbM0AAAABSSQAAAFxk61ujWpVV7E03xj7S6q9dTrqd+tYbDjJ1rItTSs9nk8XRp389FJmPyvDZCfh8r58zRwEvyj48ehgsp0dGtUWxtSX9S1+d5baJlMvR9LF76fyl/kxxVRd6a7juorSZTok3EgsOCCQAIABBIG3/bEDXu3ZAh/wAyGueNQmrm1xfzILjKMNGtWjuqTXhNotzeWhltWZAJBIEAkAB42qgqkJQe3B7nsZP8OW4ZRjGWqTp1Y3cUtL+1nqUWNqjbbJadiqxhV4Rn6PSfJSu8CutHNTlHemWUpWkjqlSN6a3prxRx5K47IcrzhsnY2qvDZpuUfwy7y+d3QQ5Ims0477Pyv9oYx0XaL7+PQx4ANozgCkEkAAAAIAAAdYyFDRs1nTx7Kn5xT/c5bZLM6tSnSjjOaiuF7uv6YnX4RSSSwSSXJYGPyvNWhHtv8ffkaGAjtkzB5ffpIfgfnL/BjS7ytU0q0+F0fDH5loVUVanFdhZUfSYABYcAAAQCAGSBc9kSZ77vAl/0IY5pmjZzUdC111sclJcdKKb82zGmzZ92e6rSqbJQcXzi7/lLyNZNbDTzUYvs9tnwI1o2qNdoABeVgAAAKZwUk4vWmmmt6ZUAA6JkK2dtZ6c275paM3vnHU311PqYXPnJenCNogu9TV1TjC/U+j8m9xj81sqdjU0Jv0c7k37s9j5bH03G8SV6aetPU1vRhVFLCYjNHTq7utcdhpRar0rPjc/k46UmwZ0ZvuzSdSmm6Der/tN+zLhuf+vXz0NKrGpFTg9hlTg4Syy1AALDgEAAAAMtm/kOdrntjSi/SVP7Y75fL58znGEXKTskdRi5Oy1MzmFku+UrVJd2N8aXGT1SkuS1dXuNztFVQjKT2Lxewmz0I04RhBJQikopbEjDZYtmk9CL7sXre+Sx8PneeZqVHiq1+r2XG3vZsQiqNO3FzGyd7beLd75kAD4sAABAAIAAetlp6VSEd84rpfrPIyOQqWlWT2RTl+y+fkRUlli2dRV2kbQADGNC5g87bL2llm160GprktUv0tvoc9OuTimmmr01c1vRyzKVjdCtUpP2Zd174PXF+DRscmVbxdN9W37M/GQ2qXh9FsADUEwAAAAACAbbmzl5NRoVnrWqnN7VsjJ79zNSBTXoRrRyy/RZTqOm7o6pOCaaaTTVzTV6a2po1DLOZibc7K1HfSk9X9MtnJ+KPHI2cs6V0Kt86eCftRX7o26xW6nWV9OalvW1c44ox3HEYOV1p6Pj9D96WIVn/pyu22CrRd1WnOHFrU+UsH0ZanZmr9Tw3FlUyTZ5O+VGi3v0IX+KQ7Dldfzh5fT+2USwH9ZefHwcmPWy2WdV6NKE5vdFN3c7sDqdPI9njrVClf8Agi/mi9hFJXJJLYkrl4BPlZfxg/H/AAiOAfXLyNIyPmXJtStT0Y/you+T/FJal0v5o3Sz0I04xhCKjBK5RSuSKLXbKdGOlVnGK4vHksX0NNy7nhKScLPfCO2q/Wa+Fezzx5CTeIxktunovv1YwlSoLt9WZrLeWrpqzUH6V/8AUmv+CmvWf49iWxtGPSSuS1JK5LcjH5EsnZ09OX/UqXSlfio+yv3fPgZAahSjTWWPnvfGhVKbltYAB0cAAAAIAJAGwZuULoSn70rl+GP+W/AwMIOTUVi2kubdyNys9FQhGCwikhTFztHLvL6Ebu56gAzxoGqZ8ZO0oRtEVrh3anGDep9G/wBXA2s86tNSjKMknGSakng01c0W0arpTU0cVIKcXE5KC9yxk92atKm73HGnL3oPDqsHxRZHpYyUkpLRmO007MAEHRBIIAASCAAAqhUcWnFtNYNamikABl7NnJaIatPSW6ST88fMv4Z4VPapQfJyX7s1kC8sLRlrFcdxaq1RaSZs888Z7KUFzcn9DGW3Om0y1KSgvhSXm735mLLao9bCOEox0ivf3Jdeo9WTXrSm3KcpSk8W2231Z75Isfa1Na9HC6U+Pux6vyTLSXi9i3vYjasnWTsaah7WNR75vHosOh1VnljZBCN3cuWwAJloAAACACQAB6UKLnKMI+s3cuG9vggbtqStpk83rLpSdV4R1R4ya1vovnwNiPCzUFThGEcErue9vi3rPcyKtTPLMPQjlVgACs6AAADEZwZJVppaKuVSN7pSex7U+D+m45zUg4txkmpJtSi8U1imddNazqyF2y7akvTJd6P82K/uWzfhuu0cDi+bfNzex+jFMTQzdKOvuaKB/vJg2zOAAAACCQAEEgAABBICTLVnvVeo8qdNzlGEfWk7o8974LHoQyUrmRyBZNKbqv1YO6HGpdj0Xm0Z886FFU4Rpx9WKuv3va3xbvZ6CE55ncZSsrAAHBIIAJAABsADNkyLYOzjpyXpJLD3I+7z3/4LTIuTcK1RcacX/wDTW/cv9WwCGJrX6EfEao07dJgACZeAAAAAAAAAAaxnLm32t9Wgkq3tRwVX6S47du9aPOLTcWmpJ3Si1c4vc1sZ18wuXcg07StL1aqXdqLbwkvaXmtho4THOn0Km1b9wpXw2bpR19znQLrKOT6tnlo1Y3XvuzWuE/wy/bEtDajJSV07ozmmnZkggHQAAAQACJMAPKqzLZAstydZ4yvjT4R9qXV6uS4mNstndapGC1J65P3YLF/tzaNqSSSSVySSS3JYIWrz2ZUX049YAIFS0kgAkAAV0qcpy0YRcpblsW9vYgbsTa5Q2ZrJWSMKlZcY03s3OXHh/qucm5IjSunO6VTY/Zh+Fb+PyMsIVsTfow8xmnRttkAAJl4AAAAAAAAAAAAAAAAHjaKEKkXCpGMovGLSafQ1LKuZ2MrNL/1zb/TP9n4m5guo16lJ3g/Dq8uGVzpRmukjkdps86UtCrCUJbFJXX8ng+h5nWrRQhUi41IxlF4xkk0+jNft2ZtCd7pSnSe5d+H5Za/Bo1KXKcHsmrd21fYlPByX4u5ogM/a80bTD1OzqL4ZaMvyy1eZirRk+tT9ejVjx0JNfmV68x6FanP8ZLzF5Upx1TLVnnORMqq3o98l2dVaivu0I3Snx92PV+SZZJ5VdnEVd2RlsjWTs6ek1353N/DD2Y/v14F8Q58UUurHevFGe227sbSsrFYKqdKcvVhUlxUZXeN1xeUcj15YxjBfFJX+EbziU4x1Z0ot6IsRBNvRinKXupNvwRnrPm/Ba6k5S4LuR8tfmZWhZ4U1dCMYrcklfzFp4uK/HaWxoN6mCsWQ5yudV6K9xXOT5ywXS/mZyzWaFOOjCKiuG1729rPcCdSrKerGIwUdAACs6AAAAAAAAAAAAAAAAAAAAAAAAAAAAACUYfOH1DUbNhU/8n9oBoYb8BetqXFmxRtWRyAc4nQKWplQAIjDAAAgAAAAAAAAAAAAAAAAD//Z;imageBorder=#dedede;" vertex="1" parent="1">
          <mxGeometry x="270" y="250" width="80" height="80" as="geometry" />
        </mxCell>
        <mxCell id="9tC2t4doHbZ-rZqAeVVs-20" value="&lt;font style=&quot;font-size: 18px;&quot;&gt;Electron&lt;/font&gt;" style="text;align=center;html=1;verticalAlign=middle;whiteSpace=wrap;rounded=0;shadow=0;fontFamily=Verdana;" vertex="1" parent="1">
          <mxGeometry x="160" y="340" width="60" height="30" as="geometry" />
        </mxCell>
        <mxCell id="9tC2t4doHbZ-rZqAeVVs-21" value="&lt;span style=&quot;font-size: 18px;&quot;&gt;Chromium&lt;/span&gt;" style="text;align=center;html=1;verticalAlign=middle;whiteSpace=wrap;rounded=0;shadow=0;fontFamily=Verdana;" vertex="1" parent="1">
          <mxGeometry x="280" y="340" width="60" height="30" as="geometry" />
        </mxCell>
        <mxCell id="9tC2t4doHbZ-rZqAeVVs-22" value="&lt;span style=&quot;font-size: 18px;&quot;&gt;Node.js&lt;/span&gt;" style="text;align=center;html=1;verticalAlign=middle;whiteSpace=wrap;rounded=0;shadow=0;fontFamily=Verdana;" vertex="1" parent="1">
          <mxGeometry x="400" y="340" width="60" height="30" as="geometry" />
        </mxCell>
        <mxCell id="9tC2t4doHbZ-rZqAeVVs-23" value="&lt;span style=&quot;font-size: 18px;&quot;&gt;Native API&lt;/span&gt;" style="text;align=center;html=1;verticalAlign=middle;whiteSpace=wrap;rounded=0;shadow=0;fontFamily=Verdana;" vertex="1" parent="1">
          <mxGeometry x="500" y="340" width="100" height="30" as="geometry" />
        </mxCell>
        <mxCell id="9tC2t4doHbZ-rZqAeVVs-24" value="Chromium 多进程模式" style="text;whiteSpace=wrap;html=1;fontFamily=Verdana;fontSize=14;" vertex="1" parent="1">
          <mxGeometry x="160" y="475" width="310" height="40" as="geometry" />
        </mxCell>
        <mxCell id="9tC2t4doHbZ-rZqAeVVs-25" value="浏览器端&lt;br&gt;(Browser)" style="text;whiteSpace=wrap;html=1;align=center;" vertex="1" parent="1">
          <mxGeometry x="170" y="585.5" width="60" height="40" as="geometry" />
        </mxCell>
        <mxCell id="9tC2t4doHbZ-rZqAeVVs-26" value="" style="shape=image;verticalLabelPosition=bottom;labelBackgroundColor=default;verticalAlign=top;aspect=fixed;imageAspect=0;image=data:image/png,iVBORw0KGgoAAAANSUhEUgAAAOEAAADhCAMAAAAJbSJIAAAAh1BMVEX///8AAAD19fXu7u41NTUsLCx2dnbm5ub4+Pj8/PyXl5fPz8/q6urJycnz8/Obm5vg4ODa2to7OzscHBxnZ2ddXV2BgYEkJCRPT09VVVXOzs4SEhJaWlrDw8PV1dWnp6dvb2+8vLyKiooYGBhISEh9fX1BQUGjo6NycnKZmZmxsbEhISEwMDBS6Or6AAAJF0lEQVR4nO2de0PyIBTG56Zz8563Mi85M+vVvv/nezPdeLjMKUJA8fsvhsYj4+xwYIcg8Hg8Ho/H4/G4TPj8stk+1ixnPlzErW7vdnmD/sR0229iFy+TW/RlM9MtluBx+nCtvpe56cbKMny+qv9eTbfzHmaDKn3R2HQb7yW+bHW6ptungNGl4dgy3To19EsFfphumirGqVig80OQ8PTbBX5JFPTiRlBvNOtnq2YUWktv0F6+z0Su5ZZzcV74Sh8y7p4JktUb76SMmUoDrsYmMtJaScL9iBXwTlVIP5nLa0e6D+AedSu8ygzCeddUM+8hYqZDc7gLmXv0yakbFGC68Y1cocUvzDXxXhivs3DD21TxxGQT7+WBvhnz4gVVWuLxOMIzJXF5KqRG4dzVMZiToZrhqewNy5y0ohRTlPP9xEgaUBKbbp8C6qDn27Oh7E9ounkKoEZdJ6B7tWW6dUrAWdL+6+8h/O26mTmBnbgOgh78+VH2mfZmPN6smMLudDJuMbGtNHubrPsd5Y2+jTVoSoJltSFNz93+gY/K6Bw13mDNwe5U+B4YBTUNcGI4KgmMb/MK4M+FhQUG89uxZECTdhwHIkwrZuL64M+SvoGo1bIo3OFPZ5ItaUgreBK1H0kOpMZnfp+G8CsVPww6haVD+kf4RxqyCGDuuxTWbkK7C2ObQdlrXoiRkMcfUVIGNG8XQA+Jg8WUL5tX2WNh81yI8+iRUQcevJhGADEcsZEX9iFaK2EfNn5ESRkwXuYBtEpsShMI1tWvHodmHVx8yKPCkup9UuOlKIxJIRm+YMLM2lJKVbVCYm5h+h8WFkr4PCxfHPkZblSYrgV3XnSODNjo09ysMAhWm/F6w5ra7nS8Zv3SYPk2/uibd+BvVugcXqH7eIXu4xW6j1foPl6h+/xZhdHvoUTh78QrdB+v0H28QvfxCt3nbyms/x5KFJp2lxXiFbqPV+g+XqH7eIXu4xW6j1foPl6h+3iF7uMVuo9X6D5eoft4he7jFbqPV+g+XqH7eIXu4xXeTZq9T/t7g5mYNCtM8zQNY2Ma9SpMSJaGebO6uhb0KsSEPo835b5Vh1aF1EvQ9OuJP4dOhQmTGs7MfapTId2FVEqxH0Snwjqj0ExSH40KH1iB8P73D6JR4Rsr0EzuAX0KE0Eu8KsTiStEn0LWzhwxkV5Bn0KSCwbyKxjw3bQpJDmo5ivyvQZsjTaFJH/LBBJqbu//4lvRpTAl37UMMvIHmyVM/OGoOeiEitLa6FKY4XeB3ApbEy1bE5LasDHZZHenndClkNiZo68GCV4u+TVdUSLxiTij09VoUgjZiNoBlfi13NZ0MeUfsrsrrZ0mhcTOnHKCkaf/oeQTeV4YIfd0ox6FKUm3dJoVQqI38eEhUVkHnrjKQInRoxCyY50cNbhr16IPpJDBToh8W/QoJBZjdy6BbHeiUcV76QzyuZi0KIRkhXkSpRe+CKAyqT69dNuDzqD9Ar/KHWnttCiETH55h4HoIf8B6MIJxDoyaFFbtjFaFJL4DPHSIBU6b2tINIDOlAk9/0+2MToUQiK/fVEIxoc9jSGIiocJE8qBYwyks6frUAieCfiW8O3sHCrKO33HXIDMxjtZN1WDQshisIZiGGucYcxnkFy8kUyjX2UdVA0K38nXoC8Cs0TOrzkHrXiPDrJtyrpuGhQSs3GgAvmQDp3zwgZP89pcEBSHx4g9CsHLnlIXwHMTmI3egJt1RM8bCIDIRszVK4SZEv0Mw+ynlR2StPtPdLDOGoWQzvSTuQRHKV5MEN3ZT9nDbmxSCA9p1mRm5NJBbPvTqNsqO07LGoVgTyYxDbZdMOMLl/GlKZQtCvnFCjFcwvCkVXFepi0KY7ZhZTC2ZimstICc0pYoxLzEl6Effu98hdmm28NbwhKFosUKMZStYY96G7dWJycNfBpLFOKktYKMfIoavNv9gIiHaYodCq+1M0fA1sCDckgvwGXkih1eG3U4TxVFZmXwyVl3DsanFQohel87NETgCYyFrQGHld1zA7bUCoVoZ6qOAIF/AiuNbHW4f60YhxD0LFuBwR8hD3GQsA7rruIJI7Ir5CoVYkywLDSGD8y8x0gJO0PEM/5kI/sqFW6u+QJ0Ts+2hnijzGyEOk9D9rwahQphseJCc7DV51rCg2oC9tkjG2xTqBDPNLtgFuDA9vMZGRBAnkNyfiiWblOgVCF0hfgg5RM4tk5LStTRJ2fz0+xze8YkTY06hSlM7vYX6qF9PC9hUJPe+Wwab0UnF0vu41CnEMKko4tb9EDP+ZkCTg0LRFm5UPl1aFE4vVgRxmv+1Cw7q/7LS4UJp0SjAk13acXJMsSvKW488frhJqW24Uo0KlBqaQp3pWr3WnFTNohrJ5hYTk4/VPHMkDz7S6HCoiMqN6/ldx6uzneYY5jHhek8BzjqkkszKhUG32d+D6/YVfA97ibMbOGhiHA/xtRGoYfj/T+V3WCsVGGQRqvr3jlIBg+iiknSbDeThOutzkD+VQa1Cm3EK3Qfr9B9vEL38Qrdxyt0nz+r0OgRvkrBtRSIrtfMH66pCgwf4TYKwyfcKgSWGhq4sHLnWxwWAVsgdhjWMvI+qxZgi0CMC67SO3KtA8I/70FG/ijZleUeKRwYn1HrB9Jb4y0D9oLWmpReM9kB1AOh5uN9CatHcyPZAZQTwma5Y0QZA8+mj0RXAxx3/70gFuH2QEPJVpSSgJ75t5+GC3mXF5DcAHcwnRbncKH6nnf+LIFal+yeynCT7sFg+iol9ODZULxPlqFq1x0bajWr2ApJLaBLritbArU7gLy/SG3ScVoivecf3gikX6leuDoWewtKxxoudagrtZGbDmqbScJFLcZm9LXam3v+W8hufMjo69xG35Zbt2qP27vCOS8ztkYt7rrSkWGXf+ODe3slCLktZV/jcdbPVs0otJeoucr6sxHf9Lqgd8IDX89ZDsLbT9SLjiLqwSMJPxbdZFY+CdxUf9oBLubbFL9N5hYVge3o6jftLCWuXn1pu2xw6tf5m8uqzDi2srt+5aW9fq3+Pst4Xd82X+hlseDlcWv5jDMJPzrtZP14KPCIrGI0jPtZ57esuHg8Ho/H4/H8Wf4DpWWFOt6JCzoAAAAASUVORK5CYII=;imageBorder=#E6E6E6;" vertex="1" parent="1">
          <mxGeometry x="170" y="515" width="60" height="60" as="geometry" />
        </mxCell>
        <mxCell id="9tC2t4doHbZ-rZqAeVVs-27" value="" style="shape=image;verticalLabelPosition=bottom;labelBackgroundColor=default;verticalAlign=top;aspect=fixed;imageAspect=0;image=data:image/png,iVBORw0KGgoAAAANSUhEUgAAAOEAAADhCAMAAAAJbSJIAAAAjVBMVEX///8EBwcAAADe3t7w8PDQ0NAAAwPz8/PBwcH39/fm5ub8/PylpaXT09PY2Nisra06OzuXl5ednZ1GR0eys7NRUlLHx8d/gIA0NTUmJydfYGBBQkJwcXHLy8u4uLiKi4tYWVkfICARExMtLi4YGhpqa2tMTEx2dnZfX19/f38pKioPERE2NzeQkZFUVFT3qTKHAAAKdklEQVR4nO2daXvyKhCGI+4ajVu1WtdWba2v/f8/74VoosJMAoRsXjwfznVOjgt3J4RheEDHsbKysrKysrKysrKysrKysrKysrKysrKysrKysrJKUbVm3i1IV26DkHevm3czUpNHCKlU6D+++3k3JRWt94yPiQbyy23n3R7Tau0CPl80kMte3m0yqdXgie8WyLn7Ko+d3ljgCwJ5qOfdOAOq/sF8t0DuR7W8W5hMnQXOFwRyMc27lfrqLGP4boGsDMsZyNq3BF8QyG0r7+Yqq71B+QhpANcql1IFsnvhMRohMDkdCEBPr72VJ5AjgG80vlERz2m6cziQZNPJu+0ycvkQUb5N2wkJJ+xFvSUSyPE67/bHaVLhW07IiWUvH0+EtKe6X2UM5Hou8i2vjxCekKr/jQTyY4J9Qc6afol8iyAgACF9JHnvCOSsmgdBtOpCgk3HuXs7QUKq/glipH13MCnWZLl/FPnGj3PdkFB4lHQn/5BAFmiyXN2KfIPV00vmASE06lVnSCB/vUJMljsHke+XT6gjCanWYySQ+U+Wa0KCTchOHNXiCOkfaoMEcp5r1aM540c1Qj6hh308IdX6iAQyt8lydyPyERd8qRRhRCB3oxyqHt0hlIAiL94HhLHRaL0hgVys4t5qWC7Ad0HHsKDRROLB0bkIud/t/s9ysuzxjbgm2KhUCKmmWySQ24yqHuszkmCjUiSkz+jhJ9wjSQaT5RaQgC5jZgTKhFSrBRbIdCfLq38RCTYqHUI6GI32mc+xxArvU4KNKmgnUc0162jVI5XJsljhpQm2VFS0CWkg3V1WgWz+xCbYqBIQUtXRqodRxqbI9yXd5ZMRRlQ9TCIu+QHwU6EnJCV0kKoH+dD+PLyRN8CzUk8P66VJyhNdbyAEkpgbHZv8PfqnghgSJryrqrM9l+ubq+jU+DtEqWBkitDxziQzwlvlT65gZIjQE7piuoRXyJPMw8MI4WQPPGrSJvQZ3+MLRgYIWwBfJoQVmcpfMzHhVEiHUySEZzWRNpnwzZoP9/oHtiCZBiHxsDrDEi1RJCPsv4npVKqEzajKHzwPTkLYAdLh96mRFCKykWjB6ADl4vqEUL15vjaUJMU0snNBAgnYZHQJRcMDIWdWj+1mQehEFIx4m0w1fLPKilJ7JvIRz/9fWRGygpFQlLoGkjxV/u6E8l/YFgwP5F6PzY6QaipRMNIghOrNw/AOyJSQ/q/RJ1JnuNwGeGVCxPAQKmNCJ6Lyd7XJKBICCTZXj82eMKbyp0S43ol8S+5L8yB0Iip/xyEJ7rXY72kBho6DkM3mRMgKRr+IcU2SUHQUw/XY3AgdzO8kR9gH6s1jcNaSJyH9drjyF0tYBRLsDySZz5fQwfxO7M3onhLRUUxnZOhaWu6EqN+pgkyWJQ0P94/Pn9CJ8DsJk+XmSeQDDQ+hikHI/E4DCZuM6CgOE2z8kwtC6ET4nXa3QIqGB4IbHkIViNC5+p0ExsAmAzmKh/FTrGIR0ufkN/RgZcY1frE+xvAQqmiEzgottvL/HW14CFU4whZebH3i4xNsVMUljMjoZAwPoQpLSOYjqOpRwRJsVAUmhKseWIKNqtCErOrxPFkmZKBqrywc4fqJkGr1UOgl7+oep8IRTgLCu7GgGTgfyFijNWUgdNzg2p9Ga8pFuNVoTSkIL8G1pUZrLKGOLGGkwj53vF+bBde+NVpTCsLNyxOGMTxptKYUhKfg2kyjNZZQR8YJw6ztotGa4hJu79cWwbWhRmsKRzgKaBb3a4fXJPy5X3sLrsG73aJVOEIXiOExuBZT3gZVNMLW4PbmBvkOZ/OFI2zrEnbdh+JTg5Dz8FpS+1cwwuqPHmFNMPmxjSDMOx3Eld+iLyXjhP2H/egqhH3Qu+CvWfSLRNh7Wn6WJ2yhvlffFxZ8ns4WLaOEde68BCK5edwFfdlAQHMmnIr2j73EBnmx++GEOvsljRG2xAPz/F50iv5c1v14MwZ9F2zQIEuNvVCGCNfvSBxoLxrjf3mo+zEX3/QHjishc+Wj6YwQiufpcE0G9453XWCHMmXwB722C67rX7eEKp3WYoAQ2p8iNOvA7x+Fuh8L+N0XU93Adyvbs6GweJGYUNhuD4oZRx4HM2j0Y74LrhErdJD8HMquICYkFOyruB5242LdD7iXux58JKaf7kgNRokIR/J8t1b9TeHRj5A9mnN2LvCXYPsZjBEyd4sK361VO7D7HSOPeIhKdzZx7dYlFO3xsozA6Md3P/67oh/UAy/SlKFLuFKPH9bCS5xr5E6IPXcWEcmOLmHdCGAw+kkSkiloDPPvVnQbbo6Esd0v0FPNoAVa/Vkgv1ww3cmNML77heqEbfSHh7aL+VHJH3C35kSodHgMR+jc0h34Y0988pQLIR0zVCou4GavKZru7J6z4DwIJbtfqH7YxqfLXe8Dgzw+7IzPgZAo7EqLInRYunPGkvNlkO6UgbCOElKt4E0brBZ53SxWJkJkC0Z3Ah7A55/jwLb/l5+QqjPco7VI3Z3OWRIGtuHIN/bgnSn307NLQXiOft36L3K2UwbCStwrayNgclYCwtCQ+S7x4j6cnL8QoYMn569DyA5uA5LzAhNq2Uurmx2/xlACwjelt/EFLMX12qLHkNXJuK9VPK8tS8LQnrFV4eMBVc8sSkDYUF2OVyYU67h0+q96KFOS+SHbVadyXnOwRf/RgIKrC/Ed1ZflklUx2OKK/N80JDxIvFhcZ6B8Oqe1J61E0Ti+yS4gKRBCfB96p9EbqCZyy1G4pC3CEN9Y92xvIxVhto1XYrVT0l7qAcdOK++SMkx4Lf/FdkgpEzR0jMsgyZHehgj9DvkT84eWMNBOhAXzhHwGCf3G/Is0ysTaS8V1dpVjfVMgbEALwCN8QTeGEDr2XWMXn0HCxhn20MywDhk4AcHTBaDfVYo6JiMLQpqX1oCJOFsGhDOPLU4IHaM0N3NAedLMuz0CPBx0dIbuLpQQOrbfSPyYehqL+I+EVGuhfb5jQfRyIzZviC/6mBM11cCzEGX4xuFcu74FO+SGm6qChFPBZ0b/2/SPlK3FM7Pj+fZP92EHOJiGjpCHp4JDSHifdQE+SHLW8UjHqR91lpWoBvDrOW3AtPLs/nLeA8Kgi9WBn5XQ8oDLqDmUcn3dmnECB70J3CHDJnOEK8FRRbDfHTIk5uGSuFnpdAktdq3ewA5586F8BYTsBq8Dx5ily8dUxc7remzGLjJNrAL3e2BmqASEdacH/C5d/DFDJtQeRVswJf7MTeDhzObJK+czHA+BnwXJhs9XC16nvLZjJmUj9EBP3+CzEf67wCdxjJJBQY9+vx1b6ZrM9Ah0SKSTs4JWmjigui6QB/8q1RGqsIsE4sN/9ytVrZ6WKRsa45TM9gTGl98vAT4cUk4zMK2PcIUpA88ndcxXeup6/tmkhPxo//BJxCDL+HL4AUBevQWdaCf62cw+vM7ZkH0wp69O4olaB5wnz0r12+px6j7XeGn8Ti/F52t9nycR8v16fEw9v0OSl+Vj8jukwmJVKVWA4cHKysrKysrKysrKysrKysrKysrKysrKysrKysqq/PoPbmyUo9MRtmEAAAAASUVORK5CYII=;imageBorder=#E6E6E6;" vertex="1" parent="1">
          <mxGeometry x="490" y="525.5" width="60" height="60" as="geometry" />
        </mxCell>
        <mxCell id="9tC2t4doHbZ-rZqAeVVs-28" value="渲染器端-多个&lt;br&gt;(Render)" style="text;whiteSpace=wrap;html=1;align=center;" vertex="1" parent="1">
          <mxGeometry x="490" y="585.5" width="90" height="40" as="geometry" />
        </mxCell>
        <mxCell id="9tC2t4doHbZ-rZqAeVVs-29" value="" style="shape=image;verticalLabelPosition=bottom;labelBackgroundColor=default;verticalAlign=top;aspect=fixed;imageAspect=0;image=data:image/png,iVBORw0KGgoAAAANSUhEUgAAAOEAAADhCAMAAAAJbSJIAAAAz1BMVEX///8qPU/n5PMgNkkRLEI3SFru6vnc2unBxMh1fY0oO07r5/YVL0Ntd4aytcQpPlH09fXrZ157vZEdM0cMKkDT1tnZ3N/u7/EAJj0XO04AIjuBipO3vMHn6evHy8+XnqZYZXJLWmglNUxzsIrzaV/T0uE7S1uMlJxyfIeorrR6hI5QXmxtdoaLkaGrsbdhbHhSfW7AwM+jp7YFOk7GX1vkZl6gVVdbi3ZuqYdon4FeanuIUFVURVLQYFyGjJxsSlOuWFlPRFLHx9Z7TVQ/QVDcOLfsAAALDUlEQVR4nO2dCXfaOBeGcWQTIpSaVo5xwuosQCBAm2nafplMp9OZ//+bxjToXnkBDBmQxKf39Jy2Zjl6fKW7SUClsrM63dlw1B94juN7cX/Um3Wbu7+Zbmpc9OZ+5DJOKHUWopRw5kbeeS9sqB7c29Wojb0gYXPyooQFg1FN9QjfprBF3UI6pHSdVqh6mDur1r/i6/CWkPyq31U91J3UngRkI96rSDAxb7Je9N2yfK+Mc7PmamMcFfPRhYoZo5ZBjrVGeA4tCRCBS3zP83wSBEnoyDFy35jl2AoyZqIsovPhrNvpNJuNZrOzCP9zErHs09yh6qGXUidOjZwmeJP7okUW3sdZSBYbMFO76RVIWHy/Oj/r3Mdph0T4xQHHupNmrmwV4o42jbg7YjIj5e2DjHNn9WRAEo3KhIBwdCW9iAb3ex/lG9QLZL8Rlw1xF6mlqzOiDEjoNgO9J8QExJmLo3T7na1eG8ZMQtR0LV5IgNH2ka0VSWtRyxSug/6CsgIjhLNh3+NREPHBfNguQJDcMCUadgAaMawkmgtqzdqIRq4ohBcZXOSP29no3sVai/QPNOwt1IJ1RGkGMBw7+To4qX39bO3bxWcx7RK4GrjRrAXDOVtRB1POMjXTBUQNGmmW3DTw7rupoTVHV+vqRHI1Ts3VLrgbSg9LsEljKJeilJNpO7k6KiPupcr7e5gLes3TCxhXugAauyX6NG5LfgmuZ65TyOiLmZjygQ05isPkyzFT1pdnKvhkMj8wxRq1XRi/lMl0vPQKJNx1naTGp66bqfD5QAp/IU54fWp+uO3uDC+mASlj814t7CQ1fies9fpuqvYlMmJP3C99giJEChLjxYYMSKLBLJ2lNGee3OsgA+mxgXhAm4gxESyR5BswxUnsNymabzW5ZuJ9fAD8li4rMbwSoxzjxTE6GUJmK14p10xycDiHWb9dgbIvtYRrYGjCNtYZbLJ6mGEMboUGaGeoUrgWMbHhLOcaGcG1JsYEd7TmtZXKXEpnpatLI9KBDr23mitWG/qFEZhmYwsUpzPHyN8VRgx0CBgjcb/RkcLKdNh6Cy50DndDmuUezVErU0MMhmF3ZQ5pyaTEG4DX5Xg7elxM032MeTuBa7+CJRMWpjgJS3s0YIwNMrVvB+oSNGJH1BiR+uRU3G3JXFBoMDlMNIfuax2c1L6sJ8f/+wLXOcnPDFUSMxKH0gTnKs/Rti+n4SxVM4kkhvpgXLhxmxfyvuXT7HSCWChnzsPMfhQNevhgW8x0dJ1i8lNyGIzVEguG+nCpwLlWhpGTVSQhCiMSyIqa4s5dqe66iWgopZDCNUqrsB3kABOD4US9ZzmLiZJTeUQUY0MnEQpzcbj7YJD0RMVV1xG+KQLnOxbrW3X/WySlaLAZy1l1iE6GOgjLcJ4K1+mCXfO3TpFgMkHKNlwycxh/AzuN145HrzFnhbdp5V4kEjflzlT4CAbTSzC7sICwyeF8vbm5+QppOVqsneMR9YXyQl+sMMxeIIuD8AHO1fn2YaFvNJd1XghXAyE0LPDISiQKCw/cinAaPjALO19//fCqj9dL+wBPB8oluEKzVxRJBGYP/CLLMYMJb5aE36438zQdzQgHOUK8IgKktwT8cCMOmsJz8jwi96PeAWmKFIhxgMX+KxvqMktX8pRah33xFI3XYd6XCh4XfOk440v/Z5QvBZ5S8ZB+vPlw8xHjYe4pUjwUqVH/YCzFmpfJaaC1SK+vF3/Efxm8TT6nqemS0+Tz0vbavFRKS0vmpVKRpURragu2qbbwjKgtiupDkbZhfViLChClFkBvTX2oencGa3wwyDjn+ROEfI0vn+0a5JyrCIdSC0+V1vRp5PK8l+3TRBJgQZ+mK5Il7I6o0nm+1wYxUg5lNbnXRpknNydEOaJnrw2WEOLAZpQrNzsbPThWQ0mvUfAWcj0f69MvDaHnDa4zZECS6ljD2kp3CHHjnoMnxZ63+h3ExiB/t3HfIpVyNWD6pq7ivgXusOq0b4Gus2jviZ9LzywmnOPeE9pLPFN5H2oh2OuT9g/xiJR8HKiQcAQOSNrnroE7Vh0NF4JxS26vgUmM1PctIsResRwX+gUhVaHQdaJfqcFxryJuiRBOU8nRE44oKk9KXwWrTo5dLTj2gxtQRYQxVFISDHgqTc5ioB2upFXTFyEbE9Z1NuTS0Rk4gqnLeRrIsFJJTGPwOnbp3H0R4XJ3NBVW9DsThYei5CSm4yWriQZSuCj0pf1kxVImnyqBFEd5eY8C555KYhotwn3ZVRTHw57PyVAChIxIj1Cx1KrDF+nKp5gw8yxMcTRIulEh1EZszQGYVYQpjfU8I4wx0QlWHdMrRwjnMjQ7542J5Lpt6RKENchoNSh90+pix3Dlx0A3E+K7aOVmXoUdQ0pWZCIbCUPpUxt65Gsp4aHgVanIRkJMUjUKhagmfvZnRX9sE2EDF6GnvMNWpAuoJ6LiUz6bCKF1QZlWgQIFtZ5b/PjGWQrHxbT9HpDlh5aCFV5iI+HwFyLV9UOyC90HnJBgVba1OVrMA0K4uzpn0EBhaz5eOcVKRPz2aD7UdA2WUam81GhZQvNlCc2XJTRfltB8WULzZQnNlyU0X5bQfFlC82UJzZclNF+W0HxZQvNlCc2XJTRfltB8WULzZQnNlyU0X5bQfFlC82UJzZclNF+W0HxZQvNlCc2XJTRfltB8WULzZQnNlyU0X5bQfFlC82UJzZclNF9AqNuX66R1UdtZbWcpuvt77FGvX/kTDtzdhV+z+4Y32aPisFLpsHU/0Gy6COtIX+l1lOKtiqd6DHvWoKJ6BHuXJTRfSEiOSwWED2c76vx555fuTw85QuqdVo9Jp+KL/WXCk2OSJTRfltB8WcK06tXq4q9qtX6wAb5Z2xBWTz5NnydxPHmefjqpHnSYb1B5wurJ1GOc0ESEM29qCmNZwnr9keD30C6+Mpk/1o2YqyUJ66cPTOL7JfZwagJiOcL6SVzQ4uCxCYglbRgXNqlIfPgBb61ShPWzFU0q/qC/EcsQ1t+xYsBkLb7THrEUoYdO5vLyt98uL+G/1DsGwvojmNB3fv/89PT59+QfwoiPuiOWIKzCT/5cvjzdvk90+/QizEjjfOCvqyzpdyCs3wkT+i9P74VehBX5XdaI1bvp2cO5Ej2cPeYCWAlC8DP+H7cC8PYPQZjzNdXHJLdTJkY+ZcazmbD6fRkq/D8BMEH8c4nIv6cnRv1nkE1+DirKMousBOHDMtpf/pAJfyxXInmoFj9dlfg0PaAShM+C8PN7SZ8F4XPGhrFSE+YHtBXhbQnC6kQ14cPWhGeC8Is8S78IwrMM4XfF25DZCF2CcCo8zYs8S/8SniYz7ZN3VLoQeby1L61/EtFCcjXgaPLRon4XR0yZoudsQCyTl4JNfLESbz9DakrzlUj17p0y3eWSmjJZm/jdY4de/nh/m+jpy6UI+Nl1/cqoTvnBlMm8f8LPiTqX//z95cvf/2BxEf08gsw7FcT9y0RQWeRihYYqVR/e0RUxjpJc3q2dSnUxqo8rinz2qL0JS3aiqtOgCDDIxkIdVbLXVp3m2qVJFm8CYOmed/Wdn87GKPffmQBYft+ienrGsK1PuXt2agTgFjszSaoy9RnjiRjzp3em7LBts7tWryb52ON0+pjkRqbwbb0HXP/VRzNj02kpu8ttviyh+fo/JTTJVW5SvYjw7vSYdJcjdBzvuARcSEiPSwWExypLaL4qqjeN9iwaV2aFvZijUTBb/Kz08VqRBvPFRyxnseqB7E1xYsF/AcCWaDuWZFfYAAAAAElFTkSuQmCC;imageBorder=#E6E6E6;" vertex="1" parent="1">
          <mxGeometry x="345" y="515" width="60.5" height="60.5" as="geometry" />
        </mxCell>
        <mxCell id="9tC2t4doHbZ-rZqAeVVs-30" value="&amp;nbsp;通信方式&lt;br&gt;(IPC)" style="text;whiteSpace=wrap;html=1;align=center;" vertex="1" parent="1">
          <mxGeometry x="320" y="585.5" width="100" height="40" as="geometry" />
        </mxCell>
        <mxCell id="9tC2t4doHbZ-rZqAeVVs-31" value="" style="rounded=0;whiteSpace=wrap;html=1;fillColor=#f5f5f5;strokeColor=#666666;shadow=1;sketch=1;curveFitting=1;jiggle=2;fontColor=#444;opacity=10;" vertex="1" parent="1">
          <mxGeometry x="110" y="710" width="520" height="320" as="geometry" />
        </mxCell>
        <mxCell id="9tC2t4doHbZ-rZqAeVVs-40" value="" style="rounded=0;whiteSpace=wrap;html=1;fillColor=#f5f5f5;strokeColor=#666666;shadow=1;sketch=1;curveFitting=1;jiggle=2;fontColor=#333333;opacity=10;" vertex="1" parent="1">
          <mxGeometry x="110" y="1120" width="520" height="280" as="geometry" />
        </mxCell>
        <mxCell id="9tC2t4doHbZ-rZqAeVVs-41" value="Electron 支持的原生能力" style="text;whiteSpace=wrap;html=1;fontFamily=Verdana;fontSize=14;" vertex="1" parent="1">
          <mxGeometry x="160" y="1135" width="310" height="40" as="geometry" />
        </mxCell>
        <mxCell id="9tC2t4doHbZ-rZqAeVVs-33" value="&lt;font style=&quot;font-size: 22px;&quot;&gt;V8&lt;/font&gt;" style="rounded=0;whiteSpace=wrap;html=1;shadow=0;sketch=1;curveFitting=1;jiggle=2;fontSize=22;fillColor=#ffcccc;strokeColor=#36393d;" vertex="1" parent="1">
          <mxGeometry x="150" y="826" width="94.49664429530202" height="110" as="geometry" />
        </mxCell>
        <mxCell id="9tC2t4doHbZ-rZqAeVVs-34" value="Your Code" style="rounded=0;whiteSpace=wrap;html=1;shadow=0;sketch=1;curveFitting=1;jiggle=2;fontSize=14;fillColor=#eeeeee;strokeColor=#36393d;" vertex="1" parent="1">
          <mxGeometry x="150" y="776" width="440" height="30" as="geometry" />
        </mxCell>
        <mxCell id="9tC2t4doHbZ-rZqAeVVs-35" value="&lt;font style=&quot;font-size: 14px;&quot;&gt;Core Modules&lt;/font&gt;" style="rounded=0;whiteSpace=wrap;html=1;shadow=0;sketch=1;curveFitting=1;jiggle=2;fontSize=14;fillColor=#cdeb8b;strokeColor=#36393d;" vertex="1" parent="1">
          <mxGeometry x="268.12080536912754" y="826" width="318.9261744966443" height="30" as="geometry" />
        </mxCell>
        <mxCell id="9tC2t4doHbZ-rZqAeVVs-36" value="&lt;font style=&quot;font-size: 14px;&quot;&gt;C++ Bindings&lt;/font&gt;" style="rounded=0;whiteSpace=wrap;html=1;shadow=0;sketch=1;curveFitting=1;jiggle=2;fontSize=14;fillColor=#dae8fc;strokeColor=#6c8ebf;" vertex="1" parent="1">
          <mxGeometry x="268.12080536912754" y="866" width="321.87919463087246" height="30" as="geometry" />
        </mxCell>
        <mxCell id="9tC2t4doHbZ-rZqAeVVs-37" value="libuv" style="rounded=0;whiteSpace=wrap;html=1;shadow=0;sketch=1;curveFitting=1;jiggle=2;fontSize=14;fillColor=#ffe6cc;strokeColor=#d79b00;" vertex="1" parent="1">
          <mxGeometry x="268.120711771025" y="906" width="144.88986268732916" height="30" as="geometry" />
        </mxCell>
        <mxCell id="9tC2t4doHbZ-rZqAeVVs-38" value="c-ares, http" style="rounded=0;whiteSpace=wrap;html=1;shadow=0;sketch=1;curveFitting=1;jiggle=2;fontSize=14;fillColor=#ffe6cc;strokeColor=#d79b00;" vertex="1" parent="1">
          <mxGeometry x="433.48993288590606" y="906" width="153.55704697986576" height="30" as="geometry" />
        </mxCell>
        <mxCell id="9tC2t4doHbZ-rZqAeVVs-39" value="The Operating System" style="rounded=0;whiteSpace=wrap;html=1;shadow=0;sketch=1;curveFitting=1;jiggle=2;fontSize=14;fillColor=#eeeeee;strokeColor=#36393d;" vertex="1" parent="1">
          <mxGeometry x="150" y="960" width="440" height="30" as="geometry" />
        </mxCell>
        <mxCell id="9tC2t4doHbZ-rZqAeVVs-49" value="Node.js 架构概览" style="text;whiteSpace=wrap;html=1;fontFamily=Verdana;fontSize=14;" vertex="1" parent="1">
          <mxGeometry x="150" y="725" width="310" height="40" as="geometry" />
        </mxCell>
        <mxCell id="9tC2t4doHbZ-rZqAeVVs-42" value="&amp;nbsp; 客户端GUI： 右键菜单、窗口定制、系统托盘、Dock..." style="rounded=0;whiteSpace=wrap;html=1;shadow=0;sketch=1;curveFitting=1;jiggle=2;fontSize=13;fillColor=#d5e8d4;strokeColor=#82b366;align=left;" vertex="1" parent="1">
          <mxGeometry x="220" y="1180" width="370" height="30" as="geometry" />
        </mxCell>
        <mxCell id="9tC2t4doHbZ-rZqAeVVs-43" value="&amp;nbsp; 桌面环境集成： 系统通知、剪切板、系统快捷键、文件拖放" style="rounded=0;whiteSpace=wrap;html=1;shadow=0;sketch=1;curveFitting=1;jiggle=2;fontSize=13;fillColor=#dae8fc;strokeColor=#6c8ebf;align=left;" vertex="1" parent="1">
          <mxGeometry x="220" y="1220" width="370" height="30" as="geometry" />
        </mxCell>
        <mxCell id="9tC2t4doHbZ-rZqAeVVs-44" value="&amp;nbsp; 设备API： 电源监视、内存、CPU、屏幕" style="rounded=0;whiteSpace=wrap;html=1;shadow=0;sketch=1;curveFitting=1;jiggle=2;fontSize=13;fillColor=#ffe6cc;strokeColor=#d79b00;align=left;" vertex="1" parent="1">
          <mxGeometry x="220" y="1260" width="370" height="30" as="geometry" />
        </mxCell>
        <mxCell id="9tC2t4doHbZ-rZqAeVVs-45" value="OS" style="rounded=0;whiteSpace=wrap;html=1;shadow=0;sketch=1;curveFitting=1;jiggle=2;fontSize=14;fillColor=#eeeeee;strokeColor=#36393d;" vertex="1" parent="1">
          <mxGeometry x="160" y="1309" width="55.12820512820513" height="61" as="geometry" />
        </mxCell>
        <mxCell id="9tC2t4doHbZ-rZqAeVVs-46" value="&amp;nbsp; Applescript(macOs):&amp;nbsp; &amp;nbsp;系统原生应用调用" style="rounded=0;whiteSpace=wrap;html=1;shadow=0;sketch=1;curveFitting=1;jiggle=2;fontSize=13;fillColor=#eeeeee;strokeColor=#36393d;align=left;" vertex="1" parent="1">
          <mxGeometry x="215.12820512820514" y="1309" width="374.8717948717949" height="31" as="geometry" />
        </mxCell>
        <mxCell id="9tC2t4doHbZ-rZqAeVVs-47" value="&amp;nbsp; Windows RT:&amp;nbsp; USB、蓝牙、预览文件" style="rounded=0;whiteSpace=wrap;html=1;shadow=0;sketch=1;curveFitting=1;jiggle=2;fontSize=13;fillColor=#eeeeee;strokeColor=#36393d;align=left;" vertex="1" parent="1">
          <mxGeometry x="215.12820512820514" y="1340" width="374.8717948717949" height="31" as="geometry" />
        </mxCell>
        <mxCell id="9tC2t4doHbZ-rZqAeVVs-50" value="Native&lt;br&gt;API" style="rounded=0;whiteSpace=wrap;html=1;shadow=0;sketch=1;curveFitting=1;jiggle=2;fontSize=14;fillColor=#eeeeee;strokeColor=#36393d;" vertex="1" parent="1">
          <mxGeometry x="160" y="1180" width="60" height="110" as="geometry" />
        </mxCell>
        <mxCell id="9tC2t4doHbZ-rZqAeVVs-52" value="Electron 生态" style="text;whiteSpace=wrap;html=1;fontFamily=Verdana;fontSize=14;" vertex="1" parent="1">
          <mxGeometry x="160" y="1440" width="310" height="40" as="geometry" />
        </mxCell>
        <mxCell id="9tC2t4doHbZ-rZqAeVVs-56" value="" style="group" vertex="1" connectable="0" parent="1">
          <mxGeometry x="220" y="1640" width="360" height="31" as="geometry" />
        </mxCell>
        <mxCell id="9tC2t4doHbZ-rZqAeVVs-53" value="Web 前端生态领域" style="rounded=0;whiteSpace=wrap;html=1;shadow=0;sketch=1;curveFitting=1;jiggle=2;fontSize=13;fillColor=#eeeeee;strokeColor=#36393d;align=center;" vertex="1" parent="9tC2t4doHbZ-rZqAeVVs-56">
          <mxGeometry width="168" height="31" as="geometry" />
        </mxCell>
        <mxCell id="9tC2t4doHbZ-rZqAeVVs-54" value="Node.js生态领域" style="rounded=0;whiteSpace=wrap;html=1;shadow=0;sketch=1;curveFitting=1;jiggle=2;fontSize=13;fillColor=#eeeeee;strokeColor=#36393d;align=center;" vertex="1" parent="9tC2t4doHbZ-rZqAeVVs-56">
          <mxGeometry x="192" width="168" height="31" as="geometry" />
        </mxCell>
        <mxCell id="9tC2t4doHbZ-rZqAeVVs-57" value="" style="rounded=0;whiteSpace=wrap;html=1;fillColor=#f5f5f5;strokeColor=#666666;shadow=1;sketch=1;curveFitting=1;jiggle=2;fontColor=#333333;opacity=10;" vertex="1" parent="1">
          <mxGeometry x="110" y="1730" width="520" height="280" as="geometry" />
        </mxCell>
        <mxCell id="9tC2t4doHbZ-rZqAeVVs-58" value="Electron 主进程与渲染进程示意图" style="text;whiteSpace=wrap;html=1;fontFamily=Verdana;fontSize=14;" vertex="1" parent="1">
          <mxGeometry x="160" y="1750" width="310" height="40" as="geometry" />
        </mxCell>
        <mxCell id="9tC2t4doHbZ-rZqAeVVs-69" value="" style="rounded=0;whiteSpace=wrap;html=1;shadow=0;sketch=1;curveFitting=1;jiggle=2;fontSize=14;fillColor=#fff2cc;strokeColor=#d6b656;align=center;opacity=30;" vertex="1" parent="1">
          <mxGeometry x="140" y="1790" width="450.25" height="200" as="geometry" />
        </mxCell>
        <mxCell id="9tC2t4doHbZ-rZqAeVVs-74" value="" style="group" vertex="1" connectable="0" parent="1">
          <mxGeometry x="170" y="1900" width="400" height="80" as="geometry" />
        </mxCell>
        <mxCell id="9tC2t4doHbZ-rZqAeVVs-59" value="Renderer" style="swimlane;whiteSpace=wrap;html=1;sketch=1;curveFitting=1;jiggle=2;shadow=1;" vertex="1" parent="9tC2t4doHbZ-rZqAeVVs-74">
          <mxGeometry width="120" height="70" as="geometry" />
        </mxCell>
        <mxCell id="9tC2t4doHbZ-rZqAeVVs-62" value="渲染进程" style="text;strokeColor=none;align=center;fillColor=none;html=1;verticalAlign=middle;whiteSpace=wrap;rounded=0;fontSize=14;" vertex="1" parent="9tC2t4doHbZ-rZqAeVVs-59">
          <mxGeometry x="22.230022230022232" y="32.57142857142858" width="70.2000702000702" height="34.28571428571429" as="geometry" />
        </mxCell>
        <mxCell id="9tC2t4doHbZ-rZqAeVVs-64" value="Renderer" style="swimlane;whiteSpace=wrap;html=1;sketch=1;curveFitting=1;jiggle=2;shadow=1;" vertex="1" parent="9tC2t4doHbZ-rZqAeVVs-74">
          <mxGeometry x="142.6" width="117.4" height="70" as="geometry" />
        </mxCell>
        <mxCell id="9tC2t4doHbZ-rZqAeVVs-65" value="渲染进程" style="text;strokeColor=none;align=center;fillColor=none;html=1;verticalAlign=middle;whiteSpace=wrap;rounded=0;fontSize=14;" vertex="1" parent="9tC2t4doHbZ-rZqAeVVs-64">
          <mxGeometry x="22.230022230022232" y="32.57142857142858" width="70.2000702000702" height="34.28571428571429" as="geometry" />
        </mxCell>
        <mxCell id="9tC2t4doHbZ-rZqAeVVs-66" value="Renderer" style="swimlane;whiteSpace=wrap;html=1;sketch=1;curveFitting=1;jiggle=2;shadow=1;" vertex="1" parent="9tC2t4doHbZ-rZqAeVVs-74">
          <mxGeometry x="283" width="117" height="70" as="geometry" />
        </mxCell>
        <mxCell id="9tC2t4doHbZ-rZqAeVVs-67" value="..." style="text;strokeColor=none;align=center;fillColor=none;html=1;verticalAlign=middle;whiteSpace=wrap;rounded=0;fontSize=14;" vertex="1" parent="9tC2t4doHbZ-rZqAeVVs-66">
          <mxGeometry x="22.230022230022232" y="30.571428571428577" width="70.2000702000702" height="34.28571428571429" as="geometry" />
        </mxCell>
        <mxCell id="9tC2t4doHbZ-rZqAeVVs-75" value="Electron 应用" style="text;whiteSpace=wrap;html=1;fontFamily=Verdana;fontSize=14;" vertex="1" parent="1">
          <mxGeometry x="311.13" y="1794" width="101.88" height="40" as="geometry" />
        </mxCell>
        <mxCell id="9tC2t4doHbZ-rZqAeVVs-76" value="主进程" style="rounded=0;whiteSpace=wrap;html=1;shadow=0;sketch=1;curveFitting=1;jiggle=2;fontSize=17;fillColor=#d5e8d4;strokeColor=#82b366;align=center;opacity=50;" vertex="1" parent="1">
          <mxGeometry x="160" y="1830" width="410" height="30" as="geometry" />
        </mxCell>
        <mxCell id="9tC2t4doHbZ-rZqAeVVs-77" value="" style="shape=curlyBracket;whiteSpace=wrap;html=1;rounded=1;labelPosition=left;verticalLabelPosition=middle;align=right;verticalAlign=middle;rotation=90;fillColor=#d5e8d4;strokeColor=#82b366;sketch=1;curveFitting=1;jiggle=2;" vertex="1" parent="1">
          <mxGeometry x="356.25" y="1671" width="27.5" height="415" as="geometry" />
        </mxCell>
        <mxCell id="9tC2t4doHbZ-rZqAeVVs-82" value="渲染进程" style="text;strokeColor=none;align=center;fillColor=none;html=1;verticalAlign=middle;whiteSpace=wrap;rounded=0;fontSize=18;" vertex="1" parent="1">
          <mxGeometry x="428.61" y="2115" width="76.51" height="34.29" as="geometry" />
        </mxCell>
        <mxCell id="9tC2t4doHbZ-rZqAeVVs-83" value="主进程" style="text;strokeColor=none;align=center;fillColor=none;html=1;verticalAlign=middle;whiteSpace=wrap;rounded=0;fontSize=18;" vertex="1" parent="1">
          <mxGeometry x="235.12002223002227" y="2115.0014285714287" width="70.2000702000702" height="34.28571428571429" as="geometry" />
        </mxCell>
        <mxCell id="9tC2t4doHbZ-rZqAeVVs-86" value="app&#xa;BrowserWindow&#xa;IpcMain&#xa;Tray&#xa;MenuItem&#xa;Dock&#xa;Menu&#xa;dialog&#xa;Notification&#xa;webContents&#xa;...." style="text;strokeColor=none;align=left;fillColor=none;verticalAlign=top;whiteSpace=wrap;rounded=0;fontSize=12;spacing=0;fontColor=#007FFF;" vertex="1" parent="1">
          <mxGeometry x="245.11999999999998" y="2149.29" width="60.2" height="175.71" as="geometry" />
        </mxCell>
        <mxCell id="9tC2t4doHbZ-rZqAeVVs-87" value="Screen&#xa;session&#xa;BrowserView&#xa;protocol&#xa;netLog&#xa;TouchBar&#xa;...." style="text;strokeColor=none;align=left;fillColor=none;verticalAlign=top;whiteSpace=wrap;rounded=0;fontSize=12;spacing=0;fontColor=#7EA6E0;" vertex="1" parent="1">
          <mxGeometry x="165.12" y="2181.29" width="60.2" height="175.71" as="geometry" />
        </mxCell>
        <mxCell id="9tC2t4doHbZ-rZqAeVVs-90" value="ipcRenderer&#xa;remote&#xa;desktopCapture&#xa;webFrame" style="text;strokeColor=none;align=left;fillColor=none;verticalAlign=top;whiteSpace=wrap;rounded=0;fontSize=12;spacing=0;fontColor=#009900;" vertex="1" parent="1">
          <mxGeometry x="444.92" y="2192.14" width="90.2" height="75.71" as="geometry" />
        </mxCell>
        <mxCell id="9tC2t4doHbZ-rZqAeVVs-91" value="clipboard&#xa;crashReporter&#xa;shell&#xa;nativeImage" style="text;strokeColor=none;align=left;fillColor=none;verticalAlign=top;whiteSpace=wrap;rounded=0;fontSize=12;spacing=0;fontColor=#0066CC;" vertex="1" parent="1">
          <mxGeometry x="334.92" y="2192.14" width="90.2" height="75.71" as="geometry" />
        </mxCell>
        <mxCell id="9tC2t4doHbZ-rZqAeVVs-94" value="VUE" style="rounded=0;whiteSpace=wrap;html=1;shadow=0;sketch=1;curveFitting=1;jiggle=2;fontSize=13;fillColor=#d5e8d4;strokeColor=#82b366;align=center;" vertex="1" parent="1">
          <mxGeometry x="160.24" y="2570.71" width="79.76" height="30" as="geometry" />
        </mxCell>
        <mxCell id="9tC2t4doHbZ-rZqAeVVs-95" value="React" style="rounded=0;whiteSpace=wrap;html=1;shadow=0;sketch=1;curveFitting=1;jiggle=2;fontSize=13;fillColor=#dae8fc;strokeColor=#6c8ebf;align=center;" vertex="1" parent="1">
          <mxGeometry x="270" y="2570.71" width="82.44" height="30" as="geometry" />
        </mxCell>
        <mxCell id="9tC2t4doHbZ-rZqAeVVs-96" value="Angular" style="rounded=0;whiteSpace=wrap;html=1;shadow=0;sketch=1;curveFitting=1;jiggle=2;fontSize=13;fillColor=#ffe6cc;strokeColor=#d79b00;align=center;" vertex="1" parent="1">
          <mxGeometry x="380" y="2570.71" width="80" height="30" as="geometry" />
        </mxCell>
        <mxCell id="9tC2t4doHbZ-rZqAeVVs-97" value="webpack" style="rounded=0;whiteSpace=wrap;html=1;shadow=0;sketch=1;curveFitting=1;jiggle=2;fontSize=13;fillColor=#f8cecc;strokeColor=#b85450;align=center;" vertex="1" parent="1">
          <mxGeometry x="500" y="2570.71" width="80" height="30" as="geometry" />
        </mxCell>
        <mxCell id="9tC2t4doHbZ-rZqAeVVs-98" value="&amp;nbsp; &amp;nbsp;数据存储" style="rounded=0;whiteSpace=wrap;html=1;shadow=0;fontSize=13;align=left;sketch=1;curveFitting=1;jiggle=2;glass=0;opacity=20;" vertex="1" parent="1">
          <mxGeometry x="150" y="2695.71" width="440" height="80" as="geometry" />
        </mxCell>
        <mxCell id="9tC2t4doHbZ-rZqAeVVs-99" value=" Cookie&lt;br&gt;LocalStorage&amp;nbsp;&lt;br&gt;IndexedDB " style="rounded=0;whiteSpace=wrap;html=1;shadow=0;sketch=1;curveFitting=1;jiggle=2;fontSize=13;align=center;" vertex="1" parent="1">
          <mxGeometry x="263.08" y="2685.71" width="111.88" height="60" as="geometry" />
        </mxCell>
        <mxCell id="9tC2t4doHbZ-rZqAeVVs-100" value="web" style="text;strokeColor=none;align=center;fillColor=none;html=1;verticalAlign=middle;whiteSpace=wrap;rounded=0;fontSize=16;" vertex="1" parent="1">
          <mxGeometry x="270.24" y="2745.71" width="93.26" height="34.29" as="geometry" />
        </mxCell>
        <mxCell id="9tC2t4doHbZ-rZqAeVVs-101" value="rxdb:NoSQL&lt;br&gt;SQLite" style="rounded=0;whiteSpace=wrap;html=1;shadow=0;sketch=1;curveFitting=1;jiggle=2;fontSize=13;align=center;" vertex="1" parent="1">
          <mxGeometry x="438.36" y="2685.71" width="111.88" height="60" as="geometry" />
        </mxCell>
        <mxCell id="9tC2t4doHbZ-rZqAeVVs-102" value="Electron生态" style="text;strokeColor=none;align=center;fillColor=none;html=1;verticalAlign=middle;whiteSpace=wrap;rounded=0;fontSize=16;" vertex="1" parent="1">
          <mxGeometry x="445.52" y="2745.71" width="93.26" height="34.29" as="geometry" />
        </mxCell>
        <mxCell id="9tC2t4doHbZ-rZqAeVVs-103" value="Vue CLI Plugin&lt;br style=&quot;font-size: 14px;&quot;&gt; electron-vue" style="text;strokeColor=none;align=left;fillColor=none;html=1;verticalAlign=middle;whiteSpace=wrap;rounded=0;fontSize=14;" vertex="1" parent="1">
          <mxGeometry x="160.24" y="2610.71" width="119.76" height="50" as="geometry" />
        </mxCell>
        <mxCell id="9tC2t4doHbZ-rZqAeVVs-104" value="electron-react-boilerplate " style="text;strokeColor=none;align=left;fillColor=none;html=1;verticalAlign=middle;whiteSpace=wrap;rounded=0;fontSize=14;" vertex="1" parent="1">
          <mxGeometry x="272.44" y="2610.71" width="100" height="50" as="geometry" />
        </mxCell>
        <mxCell id="9tC2t4doHbZ-rZqAeVVs-105" value="angular-electron" style="text;strokeColor=none;align=left;fillColor=none;html=1;verticalAlign=top;whiteSpace=wrap;rounded=0;fontSize=14;" vertex="1" parent="1">
          <mxGeometry x="380" y="2610.71" width="120" height="50" as="geometry" />
        </mxCell>
        <mxCell id="9tC2t4doHbZ-rZqAeVVs-107" value="electron-webpack" style="text;strokeColor=none;align=left;fillColor=none;html=1;verticalAlign=top;whiteSpace=wrap;rounded=0;fontSize=14;" vertex="1" parent="1">
          <mxGeometry x="500" y="2610.71" width="100" height="50" as="geometry" />
        </mxCell>
        <mxCell id="9tC2t4doHbZ-rZqAeVVs-110" value="模板创建" style="text;strokeColor=none;align=center;fillColor=none;html=1;verticalAlign=middle;whiteSpace=wrap;rounded=0;fontSize=15;" vertex="1" parent="1">
          <mxGeometry x="161.98000000000002" y="2525.71" width="76.51" height="34.29" as="geometry" />
        </mxCell>
        <mxCell id="9tC2t4doHbZ-rZqAeVVs-113" value="构建工具&amp;nbsp; &amp;nbsp;electron-builder" style="rounded=0;whiteSpace=wrap;html=1;shadow=0;sketch=1;curveFitting=1;jiggle=2;fontSize=17;align=center;fillColor=#f9f7ed;strokeColor=#36393d;" vertex="1" parent="1">
          <mxGeometry x="150" y="2475.71" width="440" height="30" as="geometry" />
        </mxCell>
        <mxCell id="9tC2t4doHbZ-rZqAeVVs-143" value="" style="group" vertex="1" connectable="0" parent="1">
          <mxGeometry x="150" y="2890" width="448.88" height="290" as="geometry" />
        </mxCell>
        <mxCell id="9tC2t4doHbZ-rZqAeVVs-120" value="Service" style="rounded=0;whiteSpace=wrap;html=1;shadow=0;sketch=1;curveFitting=1;jiggle=2;fontSize=16;align=right;verticalAlign=top;horizontal=0;spacingBottom=3;spacingLeft=5;spacingRight=21;" vertex="1" parent="9tC2t4doHbZ-rZqAeVVs-143">
          <mxGeometry width="448.88" height="290" as="geometry" />
        </mxCell>
        <mxCell id="9tC2t4doHbZ-rZqAeVVs-115" value="定义一个服务" style="rounded=0;whiteSpace=wrap;html=1;shadow=0;sketch=1;curveFitting=1;jiggle=2;fontSize=13;align=center;" vertex="1" parent="9tC2t4doHbZ-rZqAeVVs-143">
          <mxGeometry x="84.12213521772343" y="22" width="128.59434682964095" height="30.000000000000004" as="geometry" />
        </mxCell>
        <mxCell id="9tC2t4doHbZ-rZqAeVVs-116" value="导出服务" style="rounded=0;whiteSpace=wrap;html=1;shadow=0;sketch=1;curveFitting=1;jiggle=2;fontSize=13;align=center;" vertex="1" parent="9tC2t4doHbZ-rZqAeVVs-143">
          <mxGeometry x="266.70467532467535" y="22" width="128.59434682964095" height="30.000000000000004" as="geometry" />
        </mxCell>
        <mxCell id="9tC2t4doHbZ-rZqAeVVs-121" value="主进程" style="rounded=0;whiteSpace=wrap;html=1;shadow=0;sketch=1;curveFitting=1;jiggle=2;fontSize=17;align=center;opacity=50;verticalAlign=top;" vertex="1" parent="9tC2t4doHbZ-rZqAeVVs-143">
          <mxGeometry y="120.00000000000001" width="244.87578495034379" height="170" as="geometry" />
        </mxCell>
        <mxCell id="9tC2t4doHbZ-rZqAeVVs-124" value="注册服务ipcMain.handle()" style="text;whiteSpace=wrap;html=1;fillColor=#f5f5f5;strokeColor=none;fontColor=#333333;align=center;" vertex="1" parent="9tC2t4doHbZ-rZqAeVVs-143">
          <mxGeometry x="20.232177234530173" y="160" width="202.55752864782278" height="30.000000000000004" as="geometry" />
        </mxCell>
        <mxCell id="9tC2t4doHbZ-rZqAeVVs-125" value="渲染进程" style="rounded=0;whiteSpace=wrap;html=1;shadow=0;sketch=1;curveFitting=1;jiggle=2;fontSize=17;align=center;opacity=50;verticalAlign=top;" vertex="1" parent="9tC2t4doHbZ-rZqAeVVs-143">
          <mxGeometry x="245.27228418640183" y="120.00000000000001" width="203.60771581359816" height="170" as="geometry" />
        </mxCell>
        <mxCell id="9tC2t4doHbZ-rZqAeVVs-127" value="&lt;pre style=&quot;margin-top: 0px; margin-bottom: 0px; overflow-wrap: initial; background: rgb(246, 246, 246); border-radius: 4px; font-size: 10px; overflow: auto; padding: calc(0.888889em); word-break: initial; color: rgb(18, 18, 18);&quot;&gt;&lt;code style=&quot;background-color: inherit; border-radius: 0px; font-family: Menlo, Monaco, Consolas, &amp;quot;Andale Mono&amp;quot;, &amp;quot;lucida console&amp;quot;, &amp;quot;Courier New&amp;quot;, monospace; font-size: 10px; margin: 0px; padding: 0px;&quot; class=&quot;language-js&quot;&gt;&lt;span style=&quot;color: rgb(5, 109, 232); font-size: 10px;&quot; class=&quot;nb&quot;&gt;window&lt;/span&gt;&lt;span class=&quot;p&quot; style=&quot;font-size: 10px;&quot;&gt;.&lt;/span&gt;&lt;span class=&quot;nx&quot; style=&quot;font-size: 10px;&quot;&gt;jsBridge&lt;/span&gt;&lt;span class=&quot;p&quot; style=&quot;font-size: 10px;&quot;&gt;.xxx&lt;/span&gt;&lt;span class=&quot;p&quot; style=&quot;font-size: 10px;&quot;&gt;()&lt;/span&gt;&lt;/code&gt;&lt;/pre&gt;" style="text;html=1;whiteSpace=wrap;fontSize=10;" vertex="1" parent="9tC2t4doHbZ-rZqAeVVs-143">
          <mxGeometry x="255.88131779984718" y="200" width="122.70043926661575" height="30.000000000000004" as="geometry" />
        </mxCell>
        <mxCell id="9tC2t4doHbZ-rZqAeVVs-128" value="&lt;pre style=&quot;margin-top: 0px; margin-bottom: 0px; overflow-wrap: initial; background: rgb(246, 246, 246); border-radius: 4px; font-size: 0.9em; overflow: auto; padding: calc(0.888889em); word-break: initial; color: rgb(18, 18, 18); text-align: start;&quot;&gt;&lt;code style=&quot;background-color: inherit; border-radius: 0px; font-family: Menlo, Monaco, Consolas, &amp;quot;Andale Mono&amp;quot;, &amp;quot;lucida console&amp;quot;, &amp;quot;Courier New&amp;quot;, monospace; font-size: inherit; margin: 0px; padding: 0px;&quot; class=&quot;language-js&quot;&gt;export &lt;/code&gt;Service&lt;/pre&gt;" style="text;whiteSpace=wrap;html=1;align=center;" vertex="1" parent="9tC2t4doHbZ-rZqAeVVs-143">
          <mxGeometry x="266.70467532467535" y="46" width="128.59434682964095" height="32" as="geometry" />
        </mxCell>
        <mxCell id="9tC2t4doHbZ-rZqAeVVs-132" value="&lt;pre style=&quot;margin-top: 0px; margin-bottom: 0px; overflow-wrap: initial; background: rgb(246, 246, 246); border-radius: 4px; font-size: 0.9em; overflow: auto; padding: calc(0.888889em); word-break: initial; color: rgb(18, 18, 18); text-align: start;&quot;&gt;&lt;code style=&quot;background-color: inherit; border-radius: 0px; font-family: Menlo, Monaco, Consolas, &amp;quot;Andale Mono&amp;quot;, &amp;quot;lucida console&amp;quot;, &amp;quot;Courier New&amp;quot;, monospace; font-size: inherit; margin: 0px; padding: 0px;&quot; class=&quot;language-js&quot;&gt;const Service={}&lt;/code&gt;&lt;/pre&gt;" style="text;whiteSpace=wrap;html=1;align=center;" vertex="1" parent="9tC2t4doHbZ-rZqAeVVs-143">
          <mxGeometry x="88.93370702826583" y="46" width="128.59434682964095" height="32" as="geometry" />
        </mxCell>
        <mxCell id="9tC2t4doHbZ-rZqAeVVs-135" value="main.js" style="text;strokeColor=none;align=center;fillColor=none;html=1;verticalAlign=middle;whiteSpace=wrap;rounded=0;" vertex="1" parent="9tC2t4doHbZ-rZqAeVVs-143">
          <mxGeometry x="151.44127578304048" y="120.00000000000001" width="64.29717341482048" height="30.000000000000004" as="geometry" />
        </mxCell>
        <mxCell id="9tC2t4doHbZ-rZqAeVVs-136" value="src下添加preload脚本，main.js配置" style="text;whiteSpace=wrap;html=1;fillColor=#f5f5f5;strokeColor=none;fontColor=#333333;align=left;" vertex="1" parent="9tC2t4doHbZ-rZqAeVVs-143">
          <mxGeometry x="22.375416348357522" y="200" width="201.4644766997708" height="30.000000000000004" as="geometry" />
        </mxCell>
        <mxCell id="9tC2t4doHbZ-rZqAeVVs-137" value="html/js&amp;nbsp; 调用服务" style="text;strokeColor=none;align=center;fillColor=none;html=1;verticalAlign=middle;whiteSpace=wrap;rounded=0;" vertex="1" parent="9tC2t4doHbZ-rZqAeVVs-143">
          <mxGeometry x="264.4435580595875" y="170" width="167.7191768525592" height="30.000000000000004" as="geometry" />
        </mxCell>
        <mxCell id="9tC2t4doHbZ-rZqAeVVs-142" value="webPreferences:{&lt;br&gt;&amp;nbsp; &amp;nbsp; preload:&amp;nbsp; &#39;./src/main/preload.js&#39;&lt;br&gt;}" style="text;whiteSpace=wrap;html=1;fillColor=#f5f5f5;strokeColor=none;fontColor=#333333;align=left;spacingLeft=5;" vertex="1" parent="9tC2t4doHbZ-rZqAeVVs-143">
          <mxGeometry x="22.846928953399534" y="219" width="200.99296409472882" height="50" as="geometry" />
        </mxCell>
      </root>
    </mxGraphModel>
  </diagram>
</mxfile>
